Uncut Sans-Bold.ufo
<glyph name="exclam" format="2">
	<advance width="389"/>
	<unicode hex="0021"/>
	<outline>
		<contour>
			<point x="101" y="240" type="line"/>
			<point x="229" y="240" type="line"/>
			<point x="319" y="700" type="line"/>
			<point x="171" y="700" type="line"/>
		</contour>
		<contour>
			<point x="80" y="0" type="line"/>
			<point x="250" y="0" type="line"/>
			<point x="250" y="160" type="line"/>
			<point x="80" y="160" type="line"/>
		</contour>
	</outline>
</glyph>
<glyph name="numbersign" format="2">
	<advance width="785"/>
	<unicode hex="0023"/>
	<outline>
		<contour>
			<point x="366" y="0" type="line"/>
			<point x="490" y="0" type="line"/>
			<point x="737" y="716" type="line"/>
			<point x="613" y="716" type="line"/>
		</contour>
		<contour>
			<point x="30" y="162" type="line"/>
			<point x="695" y="162" type="line"/>
			<point x="695" y="250" type="line"/>
			<point x="30" y="250" type="line"/>
		</contour>
		<contour>
			<point x="71" y="0" type="line"/>
			<point x="195" y="0" type="line"/>
			<point x="442" y="716" type="line"/>
			<point x="318" y="716" type="line"/>
		</contour>
		<contour>
			<point x="90" y="432" type="line"/>
			<point x="755" y="432" type="line"/>
			<point x="755" y="520" type="line"/>
			<point x="90" y="520" type="line"/>
		</contour>
	</outline>
</glyph>
<glyph name="dollar" format="2">
	<advance width="631"/>
	<unicode hex="0024"/>
	<outline>
		<contour>
			<point x="330" y="-16" type="curve" smooth="yes"/>
			<point x="489" y="-16"/>
			<point x="591" y="83"/>
			<point x="591" y="191" type="curve" smooth="yes"/>
			<point x="591" y="482"/>
			<point x="212" y="381"/>
			<point x="212" y="528" type="curve" smooth="yes"/>
			<point x="212" y="590"/>
			<point x="261" y="603"/>
			<point x="320" y="603" type="curve" smooth="yes"/>
			<point x="390" y="603"/>
			<point x="425" y="576"/>
			<point x="425" y="491" type="curve"/>
			<point x="563" y="501" type="line"/>
			<point x="563" y="630"/>
			<point x="474" y="716"/>
			<point x="320" y="716" type="curve" smooth="yes"/>
			<point x="186" y="716"/>
			<point x="74" y="649"/>
			<point x="74" y="528" type="curve" smooth="yes"/>
			<point x="74" y="251"/>
			<point x="453" y="368"/>
			<point x="453" y="191" type="curve" smooth="yes"/>
			<point x="453" y="119"/>
			<point x="399" y="97"/>
			<point x="330" y="97" type="curve" smooth="yes"/>
			<point x="222" y="97"/>
			<point x="174" y="159"/>
			<point x="174" y="283" type="curve"/>
			<point x="35" y="273" type="line"/>
			<point x="35" y="113"/>
			<point x="127" y="-16"/>
		</contour>
		<contour>
			<point x="287" y="-116" type="line"/>
			<point x="360" y="-116" type="line"/>
			<point x="360" y="800" type="line"/>
			<point x="287" y="800" type="line"/>
		</contour>
	</outline>
</glyph>
<glyph name="percent" format="2">
	<advance width="794"/>
	<unicode hex="0025"/>
	<outline>
		<contour>
			<point x="83" y="0" type="line"/>
			<point x="211" y="0" type="line"/>
			<point x="724" y="716" type="line"/>
			<point x="596" y="716" type="line"/>
		</contour>
		<contour>
			<point x="200" y="374" type="curve" smooth="yes"/>
			<point x="294" y="374"/>
			<point x="370" y="450"/>
			<point x="370" y="544" type="curve" smooth="yes"/>
			<point x="370" y="638"/>
			<point x="294" y="714"/>
			<point x="200" y="714" type="curve" smooth="yes"/>
			<point x="106" y="714"/>
			<point x="30" y="638"/>
			<point x="30" y="544" type="curve" smooth="yes"/>
			<point x="30" y="450"/>
			<point x="106" y="374"/>
		</contour>
		<contour>
			<point x="200" y="467" type="curve" smooth="yes"/>
			<point x="157" y="467"/>
			<point x="123" y="501"/>
			<point x="123" y="544" type="curve" smooth="yes"/>
			<point x="123" y="587"/>
			<point x="157" y="621"/>
			<point x="200" y="621" type="curve" smooth="yes"/>
			<point x="243" y="621"/>
			<point x="277" y="587"/>
			<point x="277" y="544" type="curve" smooth="yes"/>
			<point x="277" y="501"/>
			<point x="243" y="467"/>
		</contour>
		<contour>
			<point x="594" y="-16" type="curve" smooth="yes"/>
			<point x="688" y="-16"/>
			<point x="764" y="60"/>
			<point x="764" y="154" type="curve" smooth="yes"/>
			<point x="764" y="248"/>
			<point x="688" y="324"/>
			<point x="594" y="324" type="curve" smooth="yes"/>
			<point x="500" y="324"/>
			<point x="424" y="248"/>
			<point x="424" y="154" type="curve" smooth="yes"/>
			<point x="424" y="60"/>
			<point x="500" y="-16"/>
		</contour>
		<contour>
			<point x="594" y="77" type="curve" smooth="yes"/>
			<point x="551" y="77"/>
			<point x="517" y="111"/>
			<point x="517" y="154" type="curve" smooth="yes"/>
			<point x="517" y="197"/>
			<point x="551" y="231"/>
			<point x="594" y="231" type="curve" smooth="yes"/>
			<point x="637" y="231"/>
			<point x="671" y="197"/>
			<point x="671" y="154" type="curve" smooth="yes"/>
			<point x="671" y="111"/>
			<point x="637" y="77"/>
		</contour>
	</outline>
</glyph>
<glyph name="ampersand" format="2">
	<advance width="726"/>
	<unicode hex="0026"/>
	<outline>
		<contour>
			<point x="306" y="-16" type="curve" smooth="yes"/>
			<point x="526" y="-16"/>
			<point x="646" y="214"/>
			<point x="646" y="364" type="curve"/>
			<point x="508" y="364" type="line"/>
			<point x="508" y="264"/>
			<point x="436" y="97"/>
			<point x="306" y="97" type="curve" smooth="yes"/>
			<point x="236" y="97"/>
			<point x="188" y="128"/>
			<point x="188" y="188" type="curve" smooth="yes"/>
			<point x="188" y="358"/>
			<point x="546" y="332"/>
			<point x="546" y="532" type="curve" smooth="yes"/>
			<point x="546" y="642"/>
			<point x="462" y="716"/>
			<point x="332" y="716" type="curve" smooth="yes"/>
			<point x="202" y="716"/>
			<point x="118" y="642"/>
			<point x="118" y="532" type="curve" smooth="yes"/>
			<point x="118" y="452"/>
			<point x="201" y="367"/>
			<point x="222" y="346" type="curve" smooth="yes"/>
			<point x="565" y="0" type="line"/>
			<point x="726" y="0" type="line"/>
			<point x="359" y="374" type="line" smooth="yes"/>
			<point x="338" y="395"/>
			<point x="256" y="472"/>
			<point x="256" y="532" type="curve" smooth="yes"/>
			<point x="256" y="572"/>
			<point x="282" y="603"/>
			<point x="332" y="603" type="curve" smooth="yes"/>
			<point x="382" y="603"/>
			<point x="408" y="572"/>
			<point x="408" y="532" type="curve" smooth="yes"/>
			<point x="408" y="412"/>
			<point x="50" y="418"/>
			<point x="50" y="188" type="curve" smooth="yes"/>
			<point x="50" y="58"/>
			<point x="156" y="-16"/>
		</contour>
	</outline>
</glyph>
<glyph name="quotesingle" format="2">
	<advance width="315"/>
	<unicode hex="0027"/>
	<outline>
		<contour>
			<point x="97" y="469" type="line"/>
			<point x="218" y="469" type="line"/>
			<point x="235" y="729" type="line"/>
			<point x="80" y="729" type="line"/>
		</contour>
	</outline>
</glyph>
<glyph name="parenleft" format="2">
	<advance width="386"/>
	<unicode hex="0028"/>
	<outline>
		<contour>
			<point x="222" y="-110" type="curve"/>
			<point x="376" y="-110" type="line"/>
			<point x="307" y="-33"/>
			<point x="218" y="96"/>
			<point x="218" y="303" type="curve" smooth="yes"/>
			<point x="218" y="510"/>
			<point x="307" y="639"/>
			<point x="376" y="716" type="curve"/>
			<point x="222" y="716" type="line"/>
			<point x="174" y="665"/>
			<point x="70" y="526"/>
			<point x="70" y="303" type="curve" smooth="yes"/>
			<point x="70" y="80"/>
			<point x="174" y="-59"/>
		</contour>
	</outline>
</glyph>
<glyph name="parenright" format="2">
	<advance width="386"/>
	<unicode hex="0029"/>
	<outline>
		<contour>
			<point x="10" y="-110" type="curve"/>
			<point x="164" y="-110" type="line"/>
			<point x="212" y="-59"/>
			<point x="316" y="80"/>
			<point x="316" y="303" type="curve" smooth="yes"/>
			<point x="316" y="526"/>
			<point x="212" y="665"/>
			<point x="164" y="716" type="curve"/>
			<point x="10" y="716" type="line"/>
			<point x="79" y="639"/>
			<point x="168" y="510"/>
			<point x="168" y="303" type="curve" smooth="yes"/>
			<point x="168" y="96"/>
			<point x="79" y="-33"/>
		</contour>
	</outline>
</glyph>
<glyph name="asterisk" format="2">
	<advance width="520"/>
	<unicode hex="002A"/>
	<outline>
		<contour>
			<point x="359" y="353" type="line"/>
			<point x="423" y="418" type="line"/>
			<point x="260" y="537" type="line"/>
			<point x="140" y="700" type="line"/>
			<point x="77" y="637" type="line"/>
			<point x="239" y="517" type="line"/>
		</contour>
		<contour>
			<point x="140" y="353" type="line"/>
			<point x="260" y="515" type="line"/>
			<point x="423" y="635" type="line"/>
			<point x="359" y="699" type="line"/>
			<point x="239" y="536" type="line"/>
			<point x="77" y="416" type="line"/>
		</contour>
		<contour>
			<point x="205" y="326" type="line"/>
			<point x="295" y="326" type="line"/>
			<point x="265" y="526" type="line"/>
			<point x="295" y="726" type="line"/>
			<point x="205" y="726" type="line"/>
			<point x="235" y="526" type="line"/>
		</contour>
		<contour>
			<point x="50" y="482" type="line"/>
			<point x="250" y="511" type="line"/>
			<point x="450" y="481" type="line"/>
			<point x="450" y="571" type="line"/>
			<point x="250" y="541" type="line"/>
			<point x="50" y="571" type="line"/>
		</contour>
	</outline>
</glyph>
<glyph name="plus" format="2">
	<advance width="619"/>
	<unicode hex="002B"/>
	<outline>
		<contour>
			<point x="253" y="57" type="line"/>
			<point x="366" y="57" type="line"/>
			<point x="366" y="536" type="line"/>
			<point x="253" y="536" type="line"/>
		</contour>
		<contour>
			<point x="70" y="239" type="line"/>
			<point x="549" y="239" type="line"/>
			<point x="549" y="352" type="line"/>
			<point x="70" y="352" type="line"/>
		</contour>
	</outline>
</glyph>
<glyph name="comma" format="2">
	<advance width="290"/>
	<unicode hex="002C"/>
	<outline>
		<contour>
			<point x="45" y="-157" type="line"/>
			<point x="165" y="-157"/>
			<point x="235" y="-120"/>
			<point x="235" y="0" type="curve"/>
			<point x="155" y="0" type="line"/>
			<point x="155" y="-60"/>
			<point x="125" y="-74"/>
			<point x="45" y="-74" type="curve"/>
		</contour>
		<contour>
			<point x="65" y="0" type="line"/>
			<point x="235" y="0" type="line"/>
			<point x="235" y="160" type="line"/>
			<point x="65" y="160" type="line"/>
		</contour>
	</outline>
</glyph>
<glyph name="hyphen" format="2">
	<advance width="485"/>
	<unicode hex="002D"/>
	<outline>
		<contour>
			<point x="70" y="239" type="line"/>
			<point x="415" y="239" type="line"/>
			<point x="415" y="352" type="line"/>
			<point x="70" y="352" type="line"/>
		</contour>
	</outline>
</glyph>
<glyph name="period" format="2">
	<advance width="280"/>
	<unicode hex="002E"/>
	<outline>
		<contour>
			<point x="55" y="0" type="line"/>
			<point x="225" y="0" type="line"/>
			<point x="225" y="160" type="line"/>
			<point x="55" y="160" type="line"/>
		</contour>
	</outline>
</glyph>
<glyph name="slash" format="2">
	<advance width="528"/>
	<unicode hex="002F"/>
	<outline>
		<contour>
			<point x="40" y="-110" type="line"/>
			<point x="159" y="-110" type="line"/>
			<point x="488" y="716" type="line"/>
			<point x="369" y="716" type="line"/>
		</contour>
	</outline>
</glyph>
<glyph name="zero" format="2">
	<advance width="716"/>
	<unicode hex="0030"/>
	<outline>
		<contour>
			<point x="358" y="-16" type="curve" smooth="yes"/>
			<point x="558" y="-16"/>
			<point x="666" y="130"/>
			<point x="666" y="350" type="curve" smooth="yes"/>
			<point x="666" y="570"/>
			<point x="558" y="716"/>
			<point x="358" y="716" type="curve" smooth="yes"/>
			<point x="158" y="716"/>
			<point x="50" y="570"/>
			<point x="50" y="350" type="curve" smooth="yes"/>
			<point x="50" y="130"/>
			<point x="158" y="-16"/>
		</contour>
		<contour>
			<point x="358" y="97" type="curve" smooth="yes"/>
			<point x="248" y="97"/>
			<point x="198" y="210"/>
			<point x="198" y="350" type="curve" smooth="yes"/>
			<point x="198" y="490"/>
			<point x="248" y="603"/>
			<point x="358" y="603" type="curve" smooth="yes"/>
			<point x="468" y="603"/>
			<point x="518" y="490"/>
			<point x="518" y="350" type="curve" smooth="yes"/>
			<point x="518" y="210"/>
			<point x="468" y="97"/>
		</contour>
	</outline>
</glyph>
<glyph name="one" format="2">
	<advance width="598"/>
	<unicode hex="0031"/>
	<outline>
		<contour>
			<point x="250" y="0" type="line"/>
			<point x="398" y="0" type="line"/>
			<point x="398" y="700" type="line"/>
			<point x="250" y="700" type="line"/>
			<point x="250" y="550"/>
			<point x="214" y="500"/>
			<point x="134" y="500" type="curve" smooth="yes"/>
			<point x="70" y="500" type="line"/>
			<point x="70" y="387" type="line"/>
			<point x="134" y="387" type="line" smooth="yes"/>
			<point x="234" y="387"/>
			<point x="267" y="450"/>
			<point x="267" y="590" type="curve"/>
			<point x="250" y="590" type="line"/>
		</contour>
		<contour>
			<point x="70" y="0" type="line"/>
			<point x="578" y="0" type="line"/>
			<point x="578" y="113" type="line"/>
			<point x="70" y="113" type="line"/>
		</contour>
	</outline>
</glyph>
<glyph name="two" format="2">
	<advance width="651"/>
	<unicode hex="0032"/>
	<outline>
		<contour>
			<point x="51" y="0" type="line"/>
			<point x="601" y="0" type="line"/>
			<point x="601" y="113" type="line"/>
			<point x="174" y="113" type="line"/>
			<point x="174" y="64" type="line"/>
			<point x="255" y="98"/>
			<point x="585" y="260"/>
			<point x="585" y="480" type="curve" smooth="yes"/>
			<point x="585" y="610"/>
			<point x="477" y="716"/>
			<point x="317" y="716" type="curve" smooth="yes"/>
			<point x="157" y="716"/>
			<point x="50" y="609"/>
			<point x="50" y="490" type="curve"/>
			<point x="198" y="480" type="line"/>
			<point x="198" y="560"/>
			<point x="247" y="603"/>
			<point x="317" y="603" type="curve" smooth="yes"/>
			<point x="387" y="603"/>
			<point x="437" y="560"/>
			<point x="437" y="480" type="curve" smooth="yes"/>
			<point x="437" y="320"/>
			<point x="156" y="170"/>
			<point x="51" y="113" type="curve"/>
		</contour>
	</outline>
</glyph>
<glyph name="three" format="2">
	<advance width="666"/>
	<unicode hex="0033"/>
	<outline>
		<contour>
			<point x="327" y="-16" type="curve" smooth="yes"/>
			<point x="507" y="-16"/>
			<point x="616" y="73"/>
			<point x="616" y="193" type="curve" smooth="yes"/>
			<point x="616" y="333"/>
			<point x="483" y="380"/>
			<point x="373" y="380" type="curve"/>
			<point x="373" y="347" type="line"/>
			<point x="483" y="347"/>
			<point x="590" y="402"/>
			<point x="590" y="522" type="curve" smooth="yes"/>
			<point x="590" y="642"/>
			<point x="497" y="716"/>
			<point x="327" y="716" type="curve" smooth="yes"/>
			<point x="157" y="716"/>
			<point x="64" y="620"/>
			<point x="64" y="510" type="curve"/>
			<point x="212" y="500" type="line"/>
			<point x="212" y="570"/>
			<point x="257" y="603"/>
			<point x="327" y="603" type="curve" smooth="yes"/>
			<point x="397" y="603"/>
			<point x="444" y="572"/>
			<point x="444" y="512" type="curve" smooth="yes"/>
			<point x="444" y="452"/>
			<point x="397" y="421"/>
			<point x="327" y="421" type="curve" smooth="yes"/>
			<point x="252" y="421" type="line"/>
			<point x="252" y="308" type="line"/>
			<point x="327" y="308" type="line" smooth="yes"/>
			<point x="397" y="308"/>
			<point x="468" y="283"/>
			<point x="468" y="203" type="curve" smooth="yes"/>
			<point x="468" y="133"/>
			<point x="407" y="97"/>
			<point x="327" y="97" type="curve" smooth="yes"/>
			<point x="247" y="97"/>
			<point x="188" y="129"/>
			<point x="188" y="229" type="curve"/>
			<point x="40" y="219" type="line"/>
			<point x="40" y="69"/>
			<point x="147" y="-16"/>
		</contour>
	</outline>
</glyph>
<glyph name="four" format="2">
	<advance width="749"/>
	<unicode hex="0034"/>
	<outline>
		<contour>
			<point x="30" y="173" type="line"/>
			<point x="714" y="173" type="line"/>
			<point x="714" y="286" type="line"/>
			<point x="90" y="286" type="line"/>
			<point x="73" y="209" type="line"/>
			<point x="343" y="334"/>
			<point x="366" y="530"/>
			<point x="366" y="700" type="curve"/>
			<point x="228" y="700" type="line"/>
			<point x="228" y="530"/>
			<point x="223" y="391"/>
			<point x="30" y="286" type="curve"/>
		</contour>
		<contour>
			<point x="456" y="0" type="line"/>
			<point x="594" y="0" type="line"/>
			<point x="594" y="700" type="line"/>
			<point x="456" y="700" type="line"/>
		</contour>
	</outline>
</glyph>
<glyph name="five" format="2">
	<advance width="647"/>
	<unicode hex="0035"/>
	<outline>
		<contour>
			<point x="327" y="-16" type="curve" smooth="yes"/>
			<point x="497" y="-16"/>
			<point x="607" y="88"/>
			<point x="607" y="228" type="curve" smooth="yes"/>
			<point x="607" y="368"/>
			<point x="517" y="468"/>
			<point x="367" y="468" type="curve" smooth="yes"/>
			<point x="197" y="468"/>
			<point x="183" y="368"/>
			<point x="173" y="318" type="curve"/>
			<point x="203" y="338" type="line"/>
			<point x="221" y="587" type="line"/>
			<point x="554" y="587" type="line"/>
			<point x="554" y="700" type="line"/>
			<point x="92" y="700" type="line"/>
			<point x="58" y="302" type="line"/>
			<point x="200" y="302" type="line"/>
			<point x="220" y="332"/>
			<point x="257" y="359"/>
			<point x="327" y="359" type="curve" smooth="yes"/>
			<point x="407" y="359"/>
			<point x="459" y="308"/>
			<point x="459" y="228" type="curve" smooth="yes"/>
			<point x="459" y="148"/>
			<point x="407" y="96"/>
			<point x="327" y="96" type="curve" smooth="yes"/>
			<point x="247" y="96"/>
			<point x="199" y="149"/>
			<point x="199" y="209" type="curve"/>
			<point x="50" y="199" type="line"/>
			<point x="50" y="69"/>
			<point x="157" y="-16"/>
		</contour>
	</outline>
</glyph>
<glyph name="six" format="2">
	<advance width="685"/>
	<unicode hex="0036"/>
	<outline>
		<contour>
			<point x="348" y="-16" type="curve" smooth="yes"/>
			<point x="498" y="-16"/>
			<point x="624" y="75"/>
			<point x="624" y="235" type="curve" smooth="yes"/>
			<point x="624" y="395"/>
			<point x="507" y="485"/>
			<point x="358" y="485" type="curve" smooth="yes"/>
			<point x="248" y="485"/>
			<point x="150" y="418"/>
			<point x="150" y="278" type="curve"/>
			<point x="180" y="308" type="line"/>
			<point x="160" y="527"/>
			<point x="268" y="603"/>
			<point x="358" y="603" type="curve" smooth="yes"/>
			<point x="438" y="603"/>
			<point x="472" y="553"/>
			<point x="487" y="505" type="curve"/>
			<point x="635" y="515" type="line"/>
			<point x="601" y="661"/>
			<point x="488" y="716"/>
			<point x="358" y="716" type="curve" smooth="yes"/>
			<point x="188" y="716"/>
			<point x="50" y="603"/>
			<point x="50" y="343" type="curve" smooth="yes"/>
			<point x="50" y="183"/>
			<point x="108" y="-16"/>
		</contour>
		<contour>
			<point x="348" y="97" type="curve" smooth="yes"/>
			<point x="258" y="97"/>
			<point x="217" y="165"/>
			<point x="217" y="235" type="curve" smooth="yes"/>
			<point x="217" y="305"/>
			<point x="258" y="372"/>
			<point x="348" y="372" type="curve" smooth="yes"/>
			<point x="438" y="372"/>
			<point x="476" y="305"/>
			<point x="476" y="235" type="curve" smooth="yes"/>
			<point x="476" y="165"/>
			<point x="438" y="97"/>
		</contour>
	</outline>
</glyph>
<glyph name="seven" format="2">
	<advance width="590"/>
	<unicode hex="0037"/>
	<outline>
		<contour>
			<point x="171" y="0" type="curve"/>
			<point x="309" y="0" type="line"/>
			<point x="309" y="310"/>
			<point x="329" y="464"/>
			<point x="560" y="587" type="curve"/>
			<point x="560" y="700" type="line"/>
			<point x="20" y="700" type="line"/>
			<point x="20" y="587" type="line"/>
			<point x="510" y="587" type="line"/>
			<point x="548" y="671" type="line"/>
			<point x="222" y="573"/>
			<point x="171" y="310"/>
		</contour>
	</outline>
</glyph>
<glyph name="eight" format="2">
	<advance width="668"/>
	<unicode hex="0038"/>
	<outline>
		<contour>
			<point x="334" y="-16" type="curve" smooth="yes"/>
			<point x="514" y="-16"/>
			<point x="628" y="73"/>
			<point x="628" y="193" type="curve" smooth="yes"/>
			<point x="628" y="301"/>
			<point x="524" y="380"/>
			<point x="404" y="380" type="curve"/>
			<point x="404" y="346" type="line"/>
			<point x="514" y="346"/>
			<point x="602" y="424"/>
			<point x="602" y="522" type="curve" smooth="yes"/>
			<point x="602" y="622"/>
			<point x="514" y="716"/>
			<point x="334" y="716" type="curve" smooth="yes"/>
			<point x="154" y="716"/>
			<point x="66" y="622"/>
			<point x="66" y="522" type="curve" smooth="yes"/>
			<point x="66" y="433"/>
			<point x="154" y="346"/>
			<point x="264" y="346" type="curve"/>
			<point x="264" y="380" type="line"/>
			<point x="144" y="380"/>
			<point x="40" y="301"/>
			<point x="40" y="193" type="curve" smooth="yes"/>
			<point x="40" y="73"/>
			<point x="154" y="-16"/>
		</contour>
		<contour>
			<point x="334" y="97" type="curve" smooth="yes"/>
			<point x="254" y="97"/>
			<point x="188" y="133"/>
			<point x="188" y="203" type="curve" smooth="yes"/>
			<point x="188" y="273"/>
			<point x="254" y="308"/>
			<point x="334" y="308" type="curve" smooth="yes"/>
			<point x="414" y="308"/>
			<point x="480" y="273"/>
			<point x="480" y="203" type="curve" smooth="yes"/>
			<point x="480" y="133"/>
			<point x="414" y="97"/>
		</contour>
		<contour>
			<point x="334" y="421" type="curve" smooth="yes"/>
			<point x="274" y="421"/>
			<point x="214" y="452"/>
			<point x="214" y="512" type="curve" smooth="yes"/>
			<point x="214" y="572"/>
			<point x="274" y="603"/>
			<point x="334" y="603" type="curve" smooth="yes"/>
			<point x="394" y="603"/>
			<point x="454" y="572"/>
			<point x="454" y="512" type="curve" smooth="yes"/>
			<point x="454" y="452"/>
			<point x="394" y="421"/>
		</contour>
	</outline>
</glyph>
<glyph name="nine" format="2">
	<advance width="685"/>
	<unicode hex="0039"/>
	<outline>
		<contour>
			<point x="327" y="-16" type="curve" smooth="yes"/>
			<point x="497" y="-16"/>
			<point x="635" y="97"/>
			<point x="635" y="357" type="curve" smooth="yes"/>
			<point x="635" y="517"/>
			<point x="577" y="716"/>
			<point x="337" y="716" type="curve" smooth="yes"/>
			<point x="187" y="716"/>
			<point x="61" y="625"/>
			<point x="61" y="465" type="curve" smooth="yes"/>
			<point x="61" y="305"/>
			<point x="178" y="215"/>
			<point x="327" y="215" type="curve" smooth="yes"/>
			<point x="437" y="215"/>
			<point x="535" y="282"/>
			<point x="535" y="422" type="curve"/>
			<point x="505" y="392" type="line"/>
			<point x="525" y="173"/>
			<point x="417" y="97"/>
			<point x="327" y="97" type="curve" smooth="yes"/>
			<point x="247" y="97"/>
			<point x="213" y="147"/>
			<point x="198" y="195" type="curve"/>
			<point x="50" y="185" type="line"/>
			<point x="84" y="39"/>
			<point x="197" y="-16"/>
		</contour>
		<contour>
			<point x="337" y="328" type="curve" smooth="yes"/>
			<point x="247" y="328"/>
			<point x="209" y="395"/>
			<point x="209" y="465" type="curve" smooth="yes"/>
			<point x="209" y="535"/>
			<point x="247" y="603"/>
			<point x="337" y="603" type="curve" smooth="yes"/>
			<point x="427" y="603"/>
			<point x="468" y="535"/>
			<point x="468" y="465" type="curve" smooth="yes"/>
			<point x="468" y="395"/>
			<point x="427" y="328"/>
		</contour>
	</outline>
</glyph>
<glyph name="less" format="2">
	<advance width="619"/>
	<unicode hex="003C"/>
	<outline>
		<contour>
			<point x="549" y="-25" type="line"/>
			<point x="549" y="104" type="line"/>
			<point x="107" y="346" type="line"/>
			<point x="107" y="235" type="line"/>
			<point x="549" y="477" type="line"/>
			<point x="549" y="606" type="line"/>
			<point x="70" y="344" type="line"/>
			<point x="70" y="237" type="line"/>
		</contour>
	</outline>
</glyph>
<glyph name="equal" format="2">
	<advance width="619"/>
	<unicode hex="003D"/>
	<outline>
		<contour>
			<point x="70" y="356" type="line"/>
			<point x="549" y="356" type="line"/>
			<point x="549" y="469" type="line"/>
			<point x="70" y="469" type="line"/>
		</contour>
		<contour>
			<point x="70" y="123" type="line"/>
			<point x="549" y="123" type="line"/>
			<point x="549" y="236" type="line"/>
			<point x="70" y="236" type="line"/>
		</contour>
	</outline>
</glyph>
<glyph name="greater" format="2">
	<advance width="619"/>
	<unicode hex="003E"/>
	<outline>
		<contour>
			<point x="70" y="-25" type="line"/>
			<point x="549" y="237" type="line"/>
			<point x="549" y="344" type="line"/>
			<point x="70" y="606" type="line"/>
			<point x="70" y="477" type="line"/>
			<point x="512" y="235" type="line"/>
			<point x="512" y="346" type="line"/>
			<point x="70" y="104" type="line"/>
		</contour>
	</outline>
</glyph>
<glyph name="question" format="2">
	<advance width="580"/>
	<unicode hex="003F"/>
	<outline>
		<contour>
			<point x="192" y="200" type="line"/>
			<point x="335" y="200" type="line"/>
			<point x="335" y="304" type="line"/>
			<point x="287" y="281" type="line"/>
			<point x="417" y="281"/>
			<point x="545" y="361"/>
			<point x="545" y="501" type="curve" smooth="yes"/>
			<point x="545" y="621"/>
			<point x="467" y="716"/>
			<point x="297" y="716" type="curve" smooth="yes"/>
			<point x="127" y="716"/>
			<point x="30" y="601"/>
			<point x="30" y="461" type="curve"/>
			<point x="174" y="451" type="line"/>
			<point x="174" y="571"/>
			<point x="237" y="603"/>
			<point x="297" y="603" type="curve" smooth="yes"/>
			<point x="357" y="603"/>
			<point x="397" y="571"/>
			<point x="397" y="501" type="curve" smooth="yes"/>
			<point x="397" y="411"/>
			<point x="322" y="361"/>
			<point x="192" y="361" type="curve"/>
		</contour>
		<contour>
			<point x="184" y="0" type="line"/>
			<point x="344" y="0" type="line"/>
			<point x="344" y="130" type="line"/>
			<point x="184" y="130" type="line"/>
		</contour>
	</outline>
</glyph>
<glyph name="at" format="2">
	<advance width="843"/>
	<unicode hex="0040"/>
	<outline>
		<contour>
			<point x="422" y="-103" type="curve" smooth="yes"/>
			<point x="522" y="-103"/>
			<point x="614" y="-64"/>
			<point x="682" y="0" type="curve"/>
			<point x="552" y="0" type="line"/>
			<point x="512" y="-19"/>
			<point x="468" y="-29"/>
			<point x="422" y="-29" type="curve" smooth="yes"/>
			<point x="252" y="-29"/>
			<point x="114" y="109"/>
			<point x="114" y="279" type="curve" smooth="yes"/>
			<point x="114" y="448"/>
			<point x="252" y="586"/>
			<point x="422" y="586" type="curve" smooth="yes"/>
			<point x="601" y="586"/>
			<point x="729" y="458"/>
			<point x="729" y="279" type="curve"/>
			<point x="803" y="279" type="line"/>
			<point x="803" y="499"/>
			<point x="642" y="660"/>
			<point x="422" y="660" type="curve" smooth="yes"/>
			<point x="211" y="660"/>
			<point x="40" y="489"/>
			<point x="40" y="279" type="curve" smooth="yes"/>
			<point x="40" y="68"/>
			<point x="211" y="-103"/>
		</contour>
		<contour>
			<point x="403" y="183" type="curve" smooth="yes"/>
			<point x="370" y="183"/>
			<point x="357" y="197"/>
			<point x="357" y="216" type="curve" smooth="yes"/>
			<point x="357" y="235"/>
			<point x="376" y="246"/>
			<point x="410" y="250" type="curve" smooth="yes"/>
			<point x="468" y="257"/>
			<point x="513" y="259"/>
			<point x="510" y="356" type="curve"/>
			<point x="488" y="335" type="line"/>
			<point x="488" y="281" type="line" smooth="yes"/>
			<point x="488" y="211"/>
			<point x="437" y="183"/>
		</contour>
		<contour>
			<point x="651" y="83" type="curve" smooth="yes"/>
			<point x="731" y="83"/>
			<point x="803" y="149"/>
			<point x="803" y="279" type="curve"/>
			<point x="729" y="279" type="line"/>
			<point x="729" y="199"/>
			<point x="691" y="160"/>
			<point x="651" y="160" type="curve" smooth="yes"/>
			<point x="611" y="160"/>
			<point x="590" y="183"/>
			<point x="590" y="243" type="curve" smooth="yes"/>
			<point x="590" y="336" type="line" smooth="yes"/>
			<point x="590" y="447"/>
			<point x="515" y="476"/>
			<point x="430" y="476" type="curve" smooth="yes"/>
			<point x="328" y="476"/>
			<point x="260" y="416"/>
			<point x="262" y="342" type="curve"/>
			<point x="364" y="332" type="line"/>
			<point x="362" y="375"/>
			<point x="388" y="389"/>
			<point x="430" y="389" type="curve" smooth="yes"/>
			<point x="464" y="389"/>
			<point x="482" y="377"/>
			<point x="486" y="360" type="curve" smooth="yes"/>
			<point x="492" y="335"/>
			<point x="472" y="326"/>
			<point x="431" y="323" type="curve" smooth="yes"/>
			<point x="381" y="320"/>
			<point x="252" y="308"/>
			<point x="252" y="209" type="curve" smooth="yes"/>
			<point x="252" y="128"/>
			<point x="315" y="96"/>
			<point x="375" y="96" type="curve" smooth="yes"/>
			<point x="456" y="96"/>
			<point x="493" y="148"/>
			<point x="501" y="209" type="curve"/>
			<point x="491" y="219" type="line"/>
			<point x="492" y="119"/>
			<point x="571" y="83"/>
		</contour>
	</outline>
</glyph>
<glyph name="A" format="2">
	<advance width="689"/>
	<unicode hex="0041"/>
	<outline>
		<contour>
			<point x="10" y="0" type="line"/>
			<point x="150" y="0" type="line"/>
			<point x="378" y="678" type="line"/>
			<point x="313" y="678" type="line"/>
			<point x="539" y="0" type="line"/>
			<point x="679" y="0" type="line"/>
			<point x="445" y="700" type="line"/>
			<point x="244" y="700" type="line"/>
		</contour>
		<contour>
			<point x="158" y="206" type="line"/>
			<point x="531" y="206" type="line"/>
			<point x="531" y="319" type="line"/>
			<point x="158" y="319" type="line"/>
		</contour>
	</outline>
</glyph>
<glyph name="B" format="2">
	<advance width="636"/>
	<unicode hex="0042"/>
	<outline>
		<contour>
			<point x="108" y="0" type="line"/>
			<point x="315" y="0" type="line" smooth="yes"/>
			<point x="435" y="0"/>
			<point x="586" y="36"/>
			<point x="586" y="206" type="curve" smooth="yes"/>
			<point x="586" y="306"/>
			<point x="503" y="371"/>
			<point x="373" y="371" type="curve"/>
			<point x="373" y="348" type="line"/>
			<point x="483" y="348"/>
			<point x="546" y="410"/>
			<point x="546" y="500" type="curve" smooth="yes"/>
			<point x="546" y="650"/>
			<point x="425" y="700"/>
			<point x="275" y="700" type="curve" smooth="yes"/>
			<point x="88" y="700" type="line"/>
			<point x="88" y="587" type="line"/>
			<point x="275" y="587" type="line" smooth="yes"/>
			<point x="365" y="587"/>
			<point x="408" y="563"/>
			<point x="408" y="500" type="curve" smooth="yes"/>
			<point x="408" y="437"/>
			<point x="365" y="411"/>
			<point x="275" y="411" type="curve" smooth="yes"/>
			<point x="88" y="411" type="line"/>
			<point x="88" y="299" type="line"/>
			<point x="315" y="299" type="line" smooth="yes"/>
			<point x="395" y="299"/>
			<point x="448" y="276"/>
			<point x="448" y="206" type="curve" smooth="yes"/>
			<point x="448" y="136"/>
			<point x="395" y="113"/>
			<point x="315" y="113" type="curve" smooth="yes"/>
			<point x="108" y="113" type="line"/>
		</contour>
		<contour>
			<point x="75" y="0" type="line"/>
			<point x="208" y="0" type="line"/>
			<point x="208" y="700" type="line"/>
			<point x="75" y="700" type="line"/>
		</contour>
	</outline>
</glyph>
<glyph name="C" format="2">
	<advance width="774"/>
	<unicode hex="0043"/>
	<outline>
		<contour>
			<point x="402" y="-16" type="curve" smooth="yes"/>
			<point x="592" y="-16"/>
			<point x="715" y="124"/>
			<point x="719" y="273" type="curve"/>
			<point x="581" y="283" type="line"/>
			<point x="576" y="194"/>
			<point x="532" y="97"/>
			<point x="402" y="97" type="curve" smooth="yes"/>
			<point x="271" y="97"/>
			<point x="188" y="194"/>
			<point x="188" y="350" type="curve" smooth="yes"/>
			<point x="188" y="506"/>
			<point x="270" y="602"/>
			<point x="402" y="602" type="curve" smooth="yes"/>
			<point x="532" y="602"/>
			<point x="576" y="501"/>
			<point x="581" y="412" type="curve"/>
			<point x="719" y="422" type="line"/>
			<point x="715" y="572"/>
			<point x="592" y="716"/>
			<point x="402" y="716" type="curve" smooth="yes"/>
			<point x="214" y="716"/>
			<point x="50" y="590"/>
			<point x="50" y="350" type="curve" smooth="yes"/>
			<point x="50" y="110"/>
			<point x="214" y="-16"/>
		</contour>
	</outline>
</glyph>
<glyph name="D" format="2">
	<advance width="698"/>
	<unicode hex="0044"/>
	<outline>
		<contour>
			<point x="133" y="0" type="line"/>
			<point x="305" y="0" type="line" smooth="yes"/>
			<point x="503" y="0"/>
			<point x="653" y="90"/>
			<point x="653" y="350" type="curve" smooth="yes"/>
			<point x="653" y="610"/>
			<point x="503" y="700"/>
			<point x="305" y="700" type="curve" smooth="yes"/>
			<point x="133" y="700" type="line"/>
			<point x="133" y="587" type="line"/>
			<point x="305" y="587" type="line" smooth="yes"/>
			<point x="449" y="587"/>
			<point x="515" y="525"/>
			<point x="515" y="350" type="curve" smooth="yes"/>
			<point x="515" y="175"/>
			<point x="449" y="113"/>
			<point x="305" y="113" type="curve" smooth="yes"/>
			<point x="133" y="113" type="line"/>
		</contour>
		<contour>
			<point x="75" y="0" type="line"/>
			<point x="213" y="0" type="line"/>
			<point x="213" y="700" type="line"/>
			<point x="75" y="700" type="line"/>
		</contour>
	</outline>
</glyph>
<glyph name="E" format="2">
	<advance width="588"/>
	<unicode hex="0045"/>
	<outline>
		<contour>
			<point x="75" y="0" type="line"/>
			<point x="213" y="0" type="line"/>
			<point x="213" y="700" type="line"/>
			<point x="75" y="700" type="line"/>
		</contour>
		<contour>
			<point x="143" y="0" type="line"/>
			<point x="543" y="0" type="line"/>
			<point x="543" y="113" type="line"/>
			<point x="143" y="113" type="line"/>
		</contour>
		<contour>
			<point x="143" y="307" type="line"/>
			<point x="483" y="307" type="line"/>
			<point x="483" y="420" type="line"/>
			<point x="143" y="420" type="line"/>
		</contour>
		<contour>
			<point x="143" y="587" type="line"/>
			<point x="543" y="587" type="line"/>
			<point x="543" y="700" type="line"/>
			<point x="143" y="700" type="line"/>
		</contour>
	</outline>
</glyph>
<glyph name="F" format="2">
	<advance width="573"/>
	<unicode hex="0046"/>
	<outline>
		<contour>
			<point x="75" y="0" type="line"/>
			<point x="213" y="0" type="line"/>
			<point x="213" y="700" type="line"/>
			<point x="75" y="700" type="line"/>
		</contour>
		<contour>
			<point x="143" y="307" type="line"/>
			<point x="493" y="307" type="line"/>
			<point x="493" y="420" type="line"/>
			<point x="143" y="420" type="line"/>
		</contour>
		<contour>
			<point x="143" y="587" type="line"/>
			<point x="543" y="587" type="line"/>
			<point x="543" y="700" type="line"/>
			<point x="143" y="700" type="line"/>
		</contour>
	</outline>
</glyph>
<glyph name="G" format="2">
	<advance width="825"/>
	<unicode hex="0047"/>
	<outline>
		<contour>
			<point x="402" y="-16" type="curve" smooth="yes"/>
			<point x="582" y="-16"/>
			<point x="677" y="122"/>
			<point x="685" y="301" type="curve"/>
			<point x="665" y="291" type="line"/>
			<point x="631" y="0" type="line"/>
			<point x="765" y="0" type="line"/>
			<point x="765" y="354" type="line"/>
			<point x="377" y="354" type="line"/>
			<point x="377" y="241" type="line"/>
			<point x="615" y="241" type="line"/>
			<point x="603" y="162"/>
			<point x="522" y="97"/>
			<point x="402" y="97" type="curve" smooth="yes"/>
			<point x="271" y="97"/>
			<point x="188" y="194"/>
			<point x="188" y="350" type="curve" smooth="yes"/>
			<point x="188" y="506"/>
			<point x="270" y="602"/>
			<point x="402" y="602" type="curve" smooth="yes"/>
			<point x="532" y="602"/>
			<point x="597" y="515"/>
			<point x="602" y="425" type="curve"/>
			<point x="741" y="435" type="line"/>
			<point x="737" y="585"/>
			<point x="592" y="715"/>
			<point x="402" y="715" type="curve" smooth="yes"/>
			<point x="214" y="715"/>
			<point x="50" y="590"/>
			<point x="50" y="350" type="curve" smooth="yes"/>
			<point x="50" y="110"/>
			<point x="214" y="-16"/>
		</contour>
	</outline>
</glyph>
<glyph name="H" format="2">
	<advance width="706"/>
	<unicode hex="0048"/>
	<outline>
		<contour>
			<point x="493" y="0" type="line"/>
			<point x="631" y="0" type="line"/>
			<point x="631" y="700" type="line"/>
			<point x="493" y="700" type="line"/>
		</contour>
		<contour>
			<point x="75" y="0" type="line"/>
			<point x="213" y="0" type="line"/>
			<point x="213" y="700" type="line"/>
			<point x="75" y="700" type="line"/>
		</contour>
		<contour>
			<point x="143" y="307" type="line"/>
			<point x="563" y="307" type="line"/>
			<point x="563" y="420" type="line"/>
			<point x="143" y="420" type="line"/>
		</contour>
	</outline>
</glyph>
<glyph name="J" format="2">
	<advance width="595"/>
	<unicode hex="004A"/>
	<outline>
		<contour>
			<point x="278" y="-16" type="curve" smooth="yes"/>
			<point x="423" y="-16"/>
			<point x="525" y="70"/>
			<point x="525" y="242" type="curve" smooth="yes"/>
			<point x="525" y="700" type="line"/>
			<point x="387" y="700" type="line"/>
			<point x="387" y="242" type="line" smooth="yes"/>
			<point x="387" y="138"/>
			<point x="343" y="97"/>
			<point x="278" y="97" type="curve" smooth="yes"/>
			<point x="213" y="97"/>
			<point x="168" y="138"/>
			<point x="168" y="242" type="curve" smooth="yes"/>
			<point x="168" y="270" type="line"/>
			<point x="30" y="270" type="line"/>
			<point x="30" y="242" type="line" smooth="yes"/>
			<point x="30" y="70"/>
			<point x="132" y="-16"/>
		</contour>
	</outline>
</glyph>
<glyph name="K" format="2">
	<advance width="662"/>
	<unicode hex="004B"/>
	<outline>
		<contour>
			<point x="178" y="199" type="line"/>
			<point x="628" y="700" type="line"/>
			<point x="470" y="700" type="line"/>
			<point x="86" y="279" type="line"/>
		</contour>
		<contour>
			<point x="75" y="0" type="line"/>
			<point x="213" y="0" type="line"/>
			<point x="213" y="700" type="line"/>
			<point x="75" y="700" type="line"/>
		</contour>
		<contour>
			<point x="497" y="0" type="line"/>
			<point x="652" y="0" type="line"/>
			<point x="340" y="451" type="line"/>
			<point x="222" y="399" type="line"/>
		</contour>
	</outline>
</glyph>
<glyph name="L" format="2">
	<advance width="548"/>
	<unicode hex="004C"/>
	<outline>
		<contour>
			<point x="75" y="0" type="line"/>
			<point x="213" y="0" type="line"/>
			<point x="213" y="700" type="line"/>
			<point x="75" y="700" type="line"/>
		</contour>
		<contour>
			<point x="138" y="0" type="line"/>
			<point x="538" y="0" type="line"/>
			<point x="538" y="113" type="line"/>
			<point x="138" y="113" type="line"/>
		</contour>
	</outline>
</glyph>
<glyph name="M" format="2">
	<advance width="888"/>
	<unicode hex="004D"/>
	<outline>
		<contour>
			<point x="75" y="0" type="line"/>
			<point x="213" y="0" type="line"/>
			<point x="213" y="572" type="line"/>
			<point x="172" y="572" type="line"/>
			<point x="393" y="0" type="line"/>
			<point x="495" y="0" type="line"/>
			<point x="716" y="572" type="line"/>
			<point x="675" y="572" type="line"/>
			<point x="675" y="0" type="line"/>
			<point x="813" y="0" type="line"/>
			<point x="813" y="700" type="line"/>
			<point x="633" y="700" type="line"/>
			<point x="417" y="131" type="line"/>
			<point x="471" y="131" type="line"/>
			<point x="254" y="700" type="line"/>
			<point x="75" y="700" type="line"/>
		</contour>
	</outline>
</glyph>
<glyph name="N" format="2">
	<advance width="746"/>
	<unicode hex="004E"/>
	<outline>
		<contour>
			<point x="522" y="0" type="line"/>
			<point x="665" y="0" type="line"/>
			<point x="224" y="700" type="line"/>
			<point x="81" y="700" type="line"/>
		</contour>
		<contour>
			<point x="75" y="0" type="line"/>
			<point x="214" y="0" type="line"/>
			<point x="214" y="700" type="line"/>
			<point x="75" y="700" type="line"/>
		</contour>
		<contour>
			<point x="532" y="0" type="line"/>
			<point x="671" y="0" type="line"/>
			<point x="671" y="700" type="line"/>
			<point x="532" y="700" type="line"/>
		</contour>
	</outline>
</glyph>
<glyph name="O" format="2">
	<advance width="804"/>
	<unicode hex="004F"/>
	<outline>
		<contour>
			<point x="402" y="-16" type="curve" smooth="yes"/>
			<point x="602" y="-16"/>
			<point x="754" y="120"/>
			<point x="754" y="350" type="curve" smooth="yes"/>
			<point x="754" y="580"/>
			<point x="602" y="716"/>
			<point x="402" y="716" type="curve" smooth="yes"/>
			<point x="202" y="716"/>
			<point x="50" y="580"/>
			<point x="50" y="350" type="curve" smooth="yes"/>
			<point x="50" y="120"/>
			<point x="202" y="-16"/>
		</contour>
		<contour>
			<point x="402" y="97" type="curve" smooth="yes"/>
			<point x="272" y="97"/>
			<point x="188" y="200"/>
			<point x="188" y="350" type="curve" smooth="yes"/>
			<point x="188" y="500"/>
			<point x="272" y="603"/>
			<point x="402" y="603" type="curve" smooth="yes"/>
			<point x="532" y="603"/>
			<point x="616" y="500"/>
			<point x="616" y="350" type="curve" smooth="yes"/>
			<point x="616" y="200"/>
			<point x="532" y="97"/>
		</contour>
	</outline>
</glyph>
<glyph name="P" format="2">
	<advance width="616"/>
	<unicode hex="0050"/>
	<outline>
		<contour>
			<point x="108" y="268" type="line"/>
			<point x="315" y="268" type="line" smooth="yes"/>
			<point x="475" y="268"/>
			<point x="586" y="344"/>
			<point x="586" y="484" type="curve" smooth="yes"/>
			<point x="586" y="624"/>
			<point x="475" y="700"/>
			<point x="315" y="700" type="curve" smooth="yes"/>
			<point x="108" y="700" type="line"/>
			<point x="108" y="587" type="line"/>
			<point x="315" y="587" type="line" smooth="yes"/>
			<point x="395" y="587"/>
			<point x="448" y="564"/>
			<point x="448" y="484" type="curve" smooth="yes"/>
			<point x="448" y="404"/>
			<point x="395" y="381"/>
			<point x="315" y="381" type="curve" smooth="yes"/>
			<point x="108" y="381" type="line"/>
		</contour>
		<contour>
			<point x="75" y="0" type="line"/>
			<point x="213" y="0" type="line"/>
			<point x="213" y="700" type="line"/>
			<point x="75" y="700" type="line"/>
		</contour>
	</outline>
</glyph>
<glyph name="R" format="2">
	<advance width="652"/>
	<unicode hex="0052"/>
	<outline>
		<contour>
			<point x="75" y="0" type="line"/>
			<point x="213" y="0" type="line"/>
			<point x="213" y="268" type="line"/>
			<point x="315" y="268" type="line" smooth="yes"/>
			<point x="435" y="268"/>
			<point x="440" y="233"/>
			<point x="446" y="153" type="curve" smooth="yes"/>
			<point x="457" y="0" type="line"/>
			<point x="597" y="0" type="line"/>
			<point x="586" y="140" type="line" smooth="yes"/>
			<point x="573" y="309"/>
			<point x="540" y="322"/>
			<point x="360" y="322" type="curve"/>
			<point x="360" y="317" type="line"/>
			<point x="460" y="317"/>
			<point x="586" y="340"/>
			<point x="586" y="484" type="curve" smooth="yes"/>
			<point x="586" y="624"/>
			<point x="475" y="700"/>
			<point x="315" y="700" type="curve" smooth="yes"/>
			<point x="75" y="700" type="line"/>
		</contour>
		<contour>
			<point x="213" y="381" type="line"/>
			<point x="213" y="587" type="line"/>
			<point x="315" y="587" type="line" smooth="yes"/>
			<point x="395" y="587"/>
			<point x="448" y="554"/>
			<point x="448" y="484" type="curve" smooth="yes"/>
			<point x="448" y="414"/>
			<point x="395" y="381"/>
			<point x="315" y="381" type="curve" smooth="yes"/>
		</contour>
	</outline>
</glyph>
<glyph name="S" format="2">
	<advance width="631"/>
	<unicode hex="0053"/>
	<outline>
		<contour>
			<point x="330" y="-16" type="curve" smooth="yes"/>
			<point x="489" y="-16"/>
			<point x="591" y="83"/>
			<point x="591" y="201" type="curve" smooth="yes"/>
			<point x="591" y="472"/>
			<point x="212" y="381"/>
			<point x="212" y="528" type="curve" smooth="yes"/>
			<point x="212" y="580"/>
			<point x="261" y="603"/>
			<point x="320" y="603" type="curve" smooth="yes"/>
			<point x="400" y="603"/>
			<point x="425" y="566"/>
			<point x="425" y="491" type="curve"/>
			<point x="563" y="501" type="line"/>
			<point x="563" y="630"/>
			<point x="474" y="716"/>
			<point x="320" y="716" type="curve" smooth="yes"/>
			<point x="176" y="716"/>
			<point x="74" y="639"/>
			<point x="74" y="518" type="curve" smooth="yes"/>
			<point x="74" y="261"/>
			<point x="453" y="358"/>
			<point x="453" y="191" type="curve" smooth="yes"/>
			<point x="453" y="119"/>
			<point x="399" y="97"/>
			<point x="330" y="97" type="curve" smooth="yes"/>
			<point x="222" y="97"/>
			<point x="174" y="159"/>
			<point x="174" y="283" type="curve"/>
			<point x="35" y="273" type="line"/>
			<point x="35" y="113"/>
			<point x="127" y="-16"/>
		</contour>
	</outline>
</glyph>
<glyph name="T" format="2">
	<advance width="658"/>
	<unicode hex="0054"/>
	<outline>
		<contour>
			<point x="260" y="0" type="line"/>
			<point x="398" y="0" type="line"/>
			<point x="398" y="627" type="line"/>
			<point x="260" y="627" type="line"/>
		</contour>
		<contour>
			<point x="10" y="587" type="line"/>
			<point x="648" y="587" type="line"/>
			<point x="648" y="700" type="line"/>
			<point x="10" y="700" type="line"/>
		</contour>
	</outline>
</glyph>
<glyph name="U" format="2">
	<advance width="695"/>
	<unicode hex="0055"/>
	<outline>
		<contour>
			<point x="348" y="-16" type="curve" smooth="yes"/>
			<point x="503" y="-16"/>
			<point x="625" y="80"/>
			<point x="625" y="272" type="curve" smooth="yes"/>
			<point x="625" y="700" type="line"/>
			<point x="487" y="700" type="line"/>
			<point x="487" y="272" type="line" smooth="yes"/>
			<point x="487" y="139"/>
			<point x="426" y="97"/>
			<point x="348" y="97" type="curve" smooth="yes"/>
			<point x="270" y="97"/>
			<point x="208" y="140"/>
			<point x="208" y="272" type="curve" smooth="yes"/>
			<point x="208" y="700" type="line"/>
			<point x="70" y="700" type="line"/>
			<point x="70" y="272" type="line" smooth="yes"/>
			<point x="70" y="80"/>
			<point x="193" y="-16"/>
		</contour>
	</outline>
</glyph>
<glyph name="V" format="2">
	<advance width="664"/>
	<unicode hex="0056"/>
	<outline>
		<contour>
			<point x="257" y="0" type="line"/>
			<point x="407" y="0" type="line"/>
			<point x="654" y="700" type="line"/>
			<point x="519" y="700" type="line"/>
			<point x="285" y="36" type="line"/>
			<point x="379" y="36" type="line"/>
			<point x="145" y="700" type="line"/>
			<point x="10" y="700" type="line"/>
		</contour>
	</outline>
</glyph>
<glyph name="W" format="2">
	<advance width="925"/>
	<unicode hex="0057"/>
	<outline>
		<contour>
			<point x="177" y="0" type="line"/>
			<point x="351" y="0" type="line"/>
			<point x="488" y="587" type="line"/>
			<point x="438" y="587" type="line"/>
			<point x="575" y="0" type="line"/>
			<point x="748" y="0" type="line"/>
			<point x="900" y="700" type="line"/>
			<point x="768" y="700" type="line"/>
			<point x="625" y="38" type="line"/>
			<point x="676" y="38" type="line"/>
			<point x="523" y="700" type="line"/>
			<point x="403" y="700" type="line"/>
			<point x="250" y="38" type="line"/>
			<point x="301" y="38" type="line"/>
			<point x="158" y="700" type="line"/>
			<point x="25" y="700" type="line"/>
		</contour>
	</outline>
</glyph>
<glyph name="X" format="2">
	<advance width="662"/>
	<unicode hex="0058"/>
	<outline>
		<contour>
			<point x="498" y="0" type="line"/>
			<point x="652" y="0" type="line"/>
			<point x="164" y="700" type="line"/>
			<point x="10" y="700" type="line"/>
		</contour>
		<contour>
			<point x="10" y="0" type="line"/>
			<point x="164" y="0" type="line"/>
			<point x="652" y="700" type="line"/>
			<point x="498" y="700" type="line"/>
		</contour>
	</outline>
</glyph>
<glyph name="Y" format="2">
	<advance width="608"/>
	<unicode hex="0059"/>
	<outline>
		<contour>
			<point x="132" y="0" type="line"/>
			<point x="275" y="0" type="line"/>
			<point x="598" y="700" type="line"/>
			<point x="455" y="700" type="line"/>
		</contour>
		<contour>
			<point x="279" y="104" type="line"/>
			<point x="361" y="245" type="line"/>
			<point x="154" y="700" type="line"/>
			<point x="10" y="700" type="line"/>
		</contour>
	</outline>
</glyph>
<glyph name="Z" format="2">
	<advance width="610"/>
	<unicode hex="005A"/>
	<outline>
		<contour>
			<point x="60" y="113" type="line"/>
			<point x="210" y="113" type="line"/>
			<point x="550" y="587" type="line"/>
			<point x="400" y="587" type="line"/>
		</contour>
		<contour>
			<point x="60" y="0" type="line"/>
			<point x="550" y="0" type="line"/>
			<point x="550" y="113" type="line"/>
			<point x="60" y="113" type="line"/>
		</contour>
		<contour>
			<point x="60" y="587" type="line"/>
			<point x="550" y="587" type="line"/>
			<point x="550" y="700" type="line"/>
			<point x="60" y="700" type="line"/>
		</contour>
	</outline>
</glyph>
<glyph name="bracketleft" format="2">
	<advance width="396"/>
	<unicode hex="005B"/>
	<outline>
		<contour>
			<point x="80" y="-110" type="line"/>
			<point x="218" y="-110" type="line"/>
			<point x="218" y="716" type="line"/>
			<point x="80" y="716" type="line"/>
		</contour>
		<contour>
			<point x="148" y="-110" type="line"/>
			<point x="366" y="-110" type="line"/>
			<point x="366" y="4" type="line"/>
			<point x="148" y="4" type="line"/>
		</contour>
		<contour>
			<point x="148" y="603" type="line"/>
			<point x="366" y="603" type="line"/>
			<point x="366" y="716" type="line"/>
			<point x="148" y="716" type="line"/>
		</contour>
	</outline>
</glyph>
<glyph name="backslash" format="2">
	<advance width="528"/>
	<unicode hex="005C"/>
	<outline>
		<contour>
			<point x="369" y="-110" type="line"/>
			<point x="488" y="-110" type="line"/>
			<point x="159" y="716" type="line"/>
			<point x="40" y="716" type="line"/>
		</contour>
	</outline>
</glyph>
<glyph name="bracketright" format="2">
	<advance width="396"/>
	<unicode hex="005D"/>
	<outline>
		<contour>
			<point x="178" y="-110" type="line"/>
			<point x="316" y="-110" type="line"/>
			<point x="316" y="716" type="line"/>
			<point x="178" y="716" type="line"/>
		</contour>
		<contour>
			<point x="30" y="-110" type="line"/>
			<point x="248" y="-110" type="line"/>
			<point x="248" y="4" type="line"/>
			<point x="30" y="4" type="line"/>
		</contour>
		<contour>
			<point x="30" y="603" type="line"/>
			<point x="248" y="603" type="line"/>
			<point x="248" y="716" type="line"/>
			<point x="30" y="716" type="line"/>
		</contour>
	</outline>
</glyph>
<glyph name="underscore" format="2">
	<advance width="345"/>
	<unicode hex="005F"/>
	<outline>
		<contour>
			<point x="0" y="-129" type="line"/>
			<point x="345" y="-129" type="line"/>
			<point x="345" y="-16" type="line"/>
			<point x="0" y="-16" type="line"/>
		</contour>
	</outline>
</glyph>
<glyph name="grave" format="2">
	<advance width="474"/>
	<unicode hex="0060"/>
	<outline>
		<contour>
			<point x="334" y="580" type="line"/>
			<point x="278" y="720" type="line"/>
			<point x="140" y="720" type="line"/>
			<point x="244" y="580" type="line"/>
		</contour>
	</outline>
</glyph>
<glyph name="a" format="2">
	<advance width="566"/>
	<unicode hex="0061"/>
	<outline>
		<contour>
			<point x="209" y="-16" type="curve" smooth="yes"/>
			<point x="339" y="-16"/>
			<point x="386" y="80"/>
			<point x="386" y="180" type="curve"/>
			<point x="376" y="141" type="line"/>
			<point x="376" y="0" type="line"/>
			<point x="511" y="0" type="line"/>
			<point x="511" y="326" type="line" smooth="yes"/>
			<point x="511" y="476"/>
			<point x="408" y="516"/>
			<point x="288" y="516" type="curve" smooth="yes"/>
			<point x="148" y="516"/>
			<point x="54" y="432"/>
			<point x="54" y="332" type="curve"/>
			<point x="188" y="322" type="line"/>
			<point x="188" y="382"/>
			<point x="228" y="403"/>
			<point x="288" y="403" type="curve" smooth="yes"/>
			<point x="338" y="403"/>
			<point x="367" y="385"/>
			<point x="374" y="357" type="curve" smooth="yes"/>
			<point x="383" y="318"/>
			<point x="350" y="301"/>
			<point x="290" y="298" type="curve" smooth="yes"/>
			<point x="180" y="292"/>
			<point x="40" y="270"/>
			<point x="40" y="140" type="curve" smooth="yes"/>
			<point x="40" y="29"/>
			<point x="139" y="-16"/>
		</contour>
		<contour>
			<point x="249" y="97" type="curve" smooth="yes"/>
			<point x="199" y="97"/>
			<point x="178" y="120"/>
			<point x="178" y="150" type="curve" smooth="yes"/>
			<point x="178" y="180"/>
			<point x="209" y="199"/>
			<point x="259" y="205" type="curve" smooth="yes"/>
			<point x="339" y="215"/>
			<point x="396" y="218"/>
			<point x="396" y="338" type="curve"/>
			<point x="376" y="318" type="line"/>
			<point x="376" y="243" type="line" smooth="yes"/>
			<point x="376" y="140"/>
			<point x="299" y="97"/>
		</contour>
	</outline>
</glyph>
<glyph name="c" format="2">
	<advance width="578"/>
	<unicode hex="0063"/>
	<outline>
		<contour>
			<point x="296" y="-16" type="curve" smooth="yes"/>
			<point x="418" y="-16"/>
			<point x="527" y="34"/>
			<point x="543" y="193" type="curve"/>
			<point x="397" y="203" type="line"/>
			<point x="382" y="118"/>
			<point x="346" y="97"/>
			<point x="296" y="97" type="curve" smooth="yes"/>
			<point x="222" y="97"/>
			<point x="183" y="147"/>
			<point x="183" y="248" type="curve" smooth="yes"/>
			<point x="183" y="341"/>
			<point x="224" y="403"/>
			<point x="296" y="403" type="curve" smooth="yes"/>
			<point x="354" y="403"/>
			<point x="382" y="375"/>
			<point x="397" y="291" type="curve"/>
			<point x="543" y="301" type="line"/>
			<point x="526" y="460"/>
			<point x="419" y="516"/>
			<point x="296" y="516" type="curve" smooth="yes"/>
			<point x="163" y="516"/>
			<point x="35" y="431"/>
			<point x="35" y="247" type="curve" smooth="yes"/>
			<point x="35" y="64"/>
			<point x="163" y="-16"/>
		</contour>
	</outline>
</glyph>
<glyph name="e" format="2">
	<advance width="571"/>
	<unicode hex="0065"/>
	<outline>
		<contour>
			<point x="296" y="-16" type="curve" smooth="yes"/>
			<point x="436" y="-16"/>
			<point x="523" y="58"/>
			<point x="536" y="147" type="curve"/>
			<point x="400" y="157" type="line"/>
			<point x="389" y="129"/>
			<point x="366" y="97"/>
			<point x="296" y="97" type="curve" smooth="yes"/>
			<point x="231" y="97"/>
			<point x="174" y="140"/>
			<point x="174" y="210" type="curve"/>
			<point x="536" y="210" type="line"/>
			<point x="536" y="248" type="line" smooth="yes"/>
			<point x="536" y="418"/>
			<point x="427" y="516"/>
			<point x="287" y="516" type="curve" smooth="yes"/>
			<point x="147" y="516"/>
			<point x="35" y="418"/>
			<point x="35" y="248" type="curve" smooth="yes"/>
			<point x="35" y="78"/>
			<point x="156" y="-16"/>
		</contour>
		<contour>
			<point x="174" y="308" type="line"/>
			<point x="174" y="368"/>
			<point x="227" y="403"/>
			<point x="287" y="403" type="curve" smooth="yes"/>
			<point x="347" y="403"/>
			<point x="397" y="368"/>
			<point x="397" y="308" type="curve"/>
		</contour>
	</outline>
</glyph>
<glyph name="f" format="2">
	<advance width="413"/>
	<unicode hex="0066"/>
	<outline>
		<contour>
			<point x="118" y="0" type="line"/>
			<point x="253" y="0" type="line"/>
			<point x="253" y="537" type="line" smooth="yes"/>
			<point x="253" y="577"/>
			<point x="273" y="597"/>
			<point x="313" y="597" type="curve" smooth="yes"/>
			<point x="403" y="597" type="line"/>
			<point x="403" y="710" type="line"/>
			<point x="288" y="710" type="line" smooth="yes"/>
			<point x="178" y="710"/>
			<point x="118" y="660"/>
			<point x="118" y="550" type="curve" smooth="yes"/>
		</contour>
		<contour>
			<point x="10" y="387" type="line"/>
			<point x="403" y="387" type="line"/>
			<point x="403" y="500" type="line"/>
			<point x="10" y="500" type="line"/>
		</contour>
	</outline>
</glyph>
<glyph name="g" format="2">
	<advance width="621"/>
	<unicode hex="0067"/>
	<outline>
		<contour>
			<point x="292" y="-216" type="curve" smooth="yes"/>
			<point x="472" y="-216"/>
			<point x="556" y="-130"/>
			<point x="556" y="50" type="curve" smooth="yes"/>
			<point x="556" y="500" type="line"/>
			<point x="421" y="500" type="line"/>
			<point x="421" y="20" type="line" smooth="yes"/>
			<point x="421" y="-90"/>
			<point x="342" y="-103"/>
			<point x="292" y="-103" type="curve" smooth="yes"/>
			<point x="242" y="-103"/>
			<point x="208" y="-85"/>
			<point x="198" y="-45" type="curve"/>
			<point x="50" y="-55" type="line"/>
			<point x="50" y="-113"/>
			<point x="122" y="-216"/>
		</contour>
		<contour>
			<point x="257" y="-16" type="curve" smooth="yes"/>
			<point x="397" y="-16"/>
			<point x="436" y="100"/>
			<point x="436" y="210" type="curve"/>
			<point x="436" y="290" type="line"/>
			<point x="436" y="400"/>
			<point x="397" y="516"/>
			<point x="257" y="516" type="curve" smooth="yes"/>
			<point x="107" y="516"/>
			<point x="35" y="398"/>
			<point x="35" y="250" type="curve" smooth="yes"/>
			<point x="35" y="102"/>
			<point x="107" y="-16"/>
		</contour>
		<contour>
			<point x="297" y="97" type="curve" smooth="yes"/>
			<point x="237" y="97"/>
			<point x="173" y="140"/>
			<point x="173" y="250" type="curve" smooth="yes"/>
			<point x="173" y="360"/>
			<point x="237" y="403"/>
			<point x="297" y="403" type="curve" smooth="yes"/>
			<point x="357" y="403"/>
			<point x="421" y="360"/>
			<point x="421" y="250" type="curve" smooth="yes"/>
			<point x="421" y="140"/>
			<point x="357" y="97"/>
		</contour>
	</outline>
</glyph>
<glyph name="k" format="2">
	<advance width="581"/>
	<unicode hex="006B"/>
	<outline>
		<contour>
			<point x="188" y="146" type="line"/>
			<point x="566" y="500" type="line"/>
			<point x="388" y="500" type="line"/>
			<point x="102" y="240" type="line"/>
		</contour>
		<contour>
			<point x="65" y="0" type="line"/>
			<point x="200" y="0" type="line"/>
			<point x="200" y="700" type="line"/>
			<point x="65" y="700" type="line"/>
		</contour>
		<contour>
			<point x="404" y="0" type="line"/>
			<point x="564" y="0" type="line"/>
			<point x="336" y="362" type="line"/>
			<point x="227" y="290" type="line"/>
		</contour>
	</outline>
</glyph>
<glyph name="l" format="2">
	<advance width="265"/>
	<unicode hex="006C"/>
	<outline>
		<contour>
			<point x="65" y="0" type="line"/>
			<point x="200" y="0" type="line"/>
			<point x="200" y="710" type="line"/>
			<point x="65" y="710" type="line"/>
		</contour>
	</outline>
</glyph>
<glyph name="m" format="2">
	<advance width="896"/>
	<unicode hex="006D"/>
	<outline>
		<contour>
			<point x="65" y="0" type="line"/>
			<point x="200" y="0" type="line"/>
			<point x="200" y="500" type="line"/>
			<point x="65" y="500" type="line"/>
		</contour>
		<contour>
			<point x="383" y="0" type="line"/>
			<point x="518" y="0" type="line"/>
			<point x="518" y="319" type="line" smooth="yes"/>
			<point x="518" y="459"/>
			<point x="457" y="516"/>
			<point x="367" y="516" type="curve" smooth="yes"/>
			<point x="237" y="516"/>
			<point x="184" y="413"/>
			<point x="184" y="293" type="curve"/>
			<point x="200" y="243" type="line"/>
			<point x="200" y="354"/>
			<point x="246" y="403"/>
			<point x="306" y="403" type="curve" smooth="yes"/>
			<point x="346" y="403"/>
			<point x="383" y="393"/>
			<point x="383" y="303" type="curve" smooth="yes"/>
		</contour>
		<contour>
			<point x="701" y="0" type="line"/>
			<point x="836" y="0" type="line"/>
			<point x="836" y="319" type="line" smooth="yes"/>
			<point x="836" y="459"/>
			<point x="775" y="516"/>
			<point x="685" y="516" type="curve" smooth="yes"/>
			<point x="555" y="516"/>
			<point x="502" y="413"/>
			<point x="502" y="293" type="curve"/>
			<point x="518" y="243" type="line"/>
			<point x="518" y="354"/>
			<point x="564" y="403"/>
			<point x="624" y="403" type="curve" smooth="yes"/>
			<point x="664" y="403"/>
			<point x="701" y="393"/>
			<point x="701" y="303" type="curve" smooth="yes"/>
		</contour>
	</outline>
</glyph>
<glyph name="n" format="2">
	<advance width="588"/>
	<unicode hex="006E"/>
	<outline>
		<contour>
			<point x="393" y="0" type="line"/>
			<point x="528" y="0" type="line"/>
			<point x="528" y="319" type="line" smooth="yes"/>
			<point x="528" y="459"/>
			<point x="462" y="516"/>
			<point x="372" y="516" type="curve" smooth="yes"/>
			<point x="242" y="516"/>
			<point x="184" y="413"/>
			<point x="184" y="293" type="curve"/>
			<point x="200" y="243" type="line"/>
			<point x="200" y="354"/>
			<point x="251" y="403"/>
			<point x="311" y="403" type="curve" smooth="yes"/>
			<point x="351" y="403"/>
			<point x="393" y="393"/>
			<point x="393" y="303" type="curve" smooth="yes"/>
		</contour>
		<contour>
			<point x="65" y="0" type="line"/>
			<point x="200" y="0" type="line"/>
			<point x="200" y="500" type="line"/>
			<point x="65" y="500" type="line"/>
		</contour>
	</outline>
</glyph>
<glyph name="o" format="2">
	<advance width="591"/>
	<unicode hex="006F"/>
	<outline>
		<contour>
			<point x="296" y="-16" type="curve" smooth="yes"/>
			<point x="436" y="-16"/>
			<point x="556" y="90"/>
			<point x="556" y="250" type="curve" smooth="yes"/>
			<point x="556" y="410"/>
			<point x="436" y="516"/>
			<point x="296" y="516" type="curve" smooth="yes"/>
			<point x="156" y="516"/>
			<point x="35" y="410"/>
			<point x="35" y="250" type="curve" smooth="yes"/>
			<point x="35" y="90"/>
			<point x="156" y="-16"/>
		</contour>
		<contour>
			<point x="296" y="97" type="curve" smooth="yes"/>
			<point x="216" y="97"/>
			<point x="173" y="150"/>
			<point x="173" y="250" type="curve" smooth="yes"/>
			<point x="173" y="350"/>
			<point x="216" y="403"/>
			<point x="296" y="403" type="curve" smooth="yes"/>
			<point x="376" y="403"/>
			<point x="419" y="350"/>
			<point x="419" y="250" type="curve" smooth="yes"/>
			<point x="419" y="150"/>
			<point x="376" y="97"/>
		</contour>
	</outline>
</glyph>
<glyph name="q" format="2">
	<advance width="621"/>
	<unicode hex="0071"/>
	<outline>
		<contour>
			<point x="421" y="-200" type="line"/>
			<point x="556" y="-200" type="line"/>
			<point x="556" y="500" type="line"/>
			<point x="421" y="500" type="line"/>
		</contour>
		<contour>
			<point x="257" y="-16" type="curve" smooth="yes"/>
			<point x="397" y="-16"/>
			<point x="436" y="100"/>
			<point x="436" y="210" type="curve"/>
			<point x="436" y="290" type="line"/>
			<point x="436" y="400"/>
			<point x="397" y="516"/>
			<point x="257" y="516" type="curve" smooth="yes"/>
			<point x="107" y="516"/>
			<point x="35" y="398"/>
			<point x="35" y="250" type="curve" smooth="yes"/>
			<point x="35" y="102"/>
			<point x="107" y="-16"/>
		</contour>
		<contour>
			<point x="297" y="97" type="curve" smooth="yes"/>
			<point x="237" y="97"/>
			<point x="173" y="140"/>
			<point x="173" y="250" type="curve" smooth="yes"/>
			<point x="173" y="360"/>
			<point x="237" y="403"/>
			<point x="297" y="403" type="curve" smooth="yes"/>
			<point x="357" y="403"/>
			<point x="421" y="360"/>
			<point x="421" y="250" type="curve" smooth="yes"/>
			<point x="421" y="140"/>
			<point x="357" y="97"/>
		</contour>
	</outline>
</glyph>
<glyph name="r" format="2">
	<advance width="418"/>
	<unicode hex="0072"/>
	<outline>
		<contour>
			<point x="70" y="0" type="line"/>
			<point x="205" y="0" type="line"/>
			<point x="205" y="208" type="line" smooth="yes"/>
			<point x="205" y="338"/>
			<point x="236" y="387"/>
			<point x="326" y="387" type="curve" smooth="yes"/>
			<point x="408" y="387" type="line"/>
			<point x="408" y="500" type="line"/>
			<point x="316" y="500" type="line" smooth="yes"/>
			<point x="216" y="500"/>
			<point x="187" y="375"/>
			<point x="187" y="245" type="curve"/>
			<point x="205" y="314" type="line"/>
			<point x="205" y="500" type="line"/>
			<point x="70" y="500" type="line"/>
		</contour>
	</outline>
</glyph>
<glyph name="s" format="2">
	<advance width="547"/>
	<unicode hex="0073"/>
	<outline>
		<contour>
			<point x="280" y="-16" type="curve" smooth="yes"/>
			<point x="405" y="-16"/>
			<point x="512" y="51"/>
			<point x="512" y="151" type="curve" smooth="yes"/>
			<point x="512" y="361"/>
			<point x="188" y="269"/>
			<point x="188" y="359" type="curve" smooth="yes"/>
			<point x="188" y="389"/>
			<point x="220" y="403"/>
			<point x="270" y="403" type="curve" smooth="yes"/>
			<point x="330" y="403"/>
			<point x="357" y="387"/>
			<point x="357" y="347" type="curve"/>
			<point x="491" y="357" type="line"/>
			<point x="491" y="471"/>
			<point x="385" y="516"/>
			<point x="270" y="516" type="curve" smooth="yes"/>
			<point x="150" y="516"/>
			<point x="50" y="458"/>
			<point x="50" y="359" type="curve" smooth="yes"/>
			<point x="50" y="149"/>
			<point x="374" y="261"/>
			<point x="374" y="151" type="curve" smooth="yes"/>
			<point x="374" y="121"/>
			<point x="340" y="97"/>
			<point x="280" y="97" type="curve" smooth="yes"/>
			<point x="200" y="97"/>
			<point x="163" y="116"/>
			<point x="163" y="176" type="curve"/>
			<point x="30" y="166" type="line"/>
			<point x="30" y="36"/>
			<point x="142" y="-16"/>
		</contour>
	</outline>
</glyph>
<glyph name="t" format="2">
	<advance width="418"/>
	<unicode hex="0074"/>
	<outline>
		<contour>
			<point x="283" y="0" type="curve" smooth="yes"/>
			<point x="398" y="0" type="line"/>
			<point x="398" y="113" type="line"/>
			<point x="308" y="113" type="line" smooth="yes"/>
			<point x="268" y="113"/>
			<point x="248" y="133"/>
			<point x="248" y="173" type="curve" smooth="yes"/>
			<point x="248" y="661" type="line"/>
			<point x="113" y="661" type="line"/>
			<point x="113" y="160" type="line" smooth="yes"/>
			<point x="113" y="50"/>
			<point x="173" y="0"/>
		</contour>
		<contour>
			<point x="5" y="387" type="line"/>
			<point x="398" y="387" type="line"/>
			<point x="398" y="500" type="line"/>
			<point x="5" y="500" type="line"/>
		</contour>
	</outline>
</glyph>
<glyph name="u" format="2">
	<advance width="583"/>
	<unicode hex="0075"/>
	<outline>
		<contour>
			<point x="211" y="-16" type="curve" smooth="yes"/>
			<point x="341" y="-16"/>
			<point x="399" y="87"/>
			<point x="399" y="207" type="curve"/>
			<point x="383" y="257" type="line"/>
			<point x="383" y="146"/>
			<point x="332" y="97"/>
			<point x="272" y="97" type="curve" smooth="yes"/>
			<point x="232" y="97"/>
			<point x="190" y="107"/>
			<point x="190" y="197" type="curve" smooth="yes"/>
			<point x="190" y="500" type="line"/>
			<point x="55" y="500" type="line"/>
			<point x="55" y="181" type="line" smooth="yes"/>
			<point x="55" y="41"/>
			<point x="121" y="-16"/>
		</contour>
		<contour>
			<point x="383" y="0" type="line"/>
			<point x="518" y="0" type="line"/>
			<point x="518" y="500" type="line"/>
			<point x="383" y="500" type="line"/>
		</contour>
	</outline>
</glyph>
<glyph name="v" format="2">
	<advance width="559"/>
	<unicode hex="0076"/>
	<outline>
		<contour>
			<point x="217" y="0" type="line"/>
			<point x="361" y="0" type="line"/>
			<point x="554" y="500" type="line"/>
			<point x="410" y="500" type="line"/>
		</contour>
		<contour>
			<point x="187" y="0" type="line"/>
			<point x="330" y="0" type="line"/>
			<point x="148" y="500" type="line"/>
			<point x="5" y="500" type="line"/>
		</contour>
	</outline>
</glyph>
<glyph name="w" format="2">
	<advance width="783"/>
	<unicode hex="0077"/>
	<outline>
		<contour>
			<point x="142" y="0" type="line"/>
			<point x="295" y="0" type="line"/>
			<point x="405" y="352" type="line"/>
			<point x="379" y="352" type="line"/>
			<point x="488" y="0" type="line"/>
			<point x="641" y="0" type="line"/>
			<point x="763" y="500" type="line"/>
			<point x="620" y="500" type="line"/>
			<point x="535" y="152" type="line"/>
			<point x="559" y="153" type="line"/>
			<point x="451" y="500" type="line"/>
			<point x="332" y="500" type="line"/>
			<point x="224" y="153" type="line"/>
			<point x="248" y="152" type="line"/>
			<point x="163" y="500" type="line"/>
			<point x="20" y="500" type="line"/>
		</contour>
	</outline>
</glyph>
<glyph name="x" format="2">
	<advance width="546"/>
	<unicode hex="0078"/>
	<outline>
		<contour>
			<point x="374" y="0" type="line"/>
			<point x="536" y="0" type="line"/>
			<point x="172" y="500" type="line"/>
			<point x="10" y="500" type="line"/>
		</contour>
		<contour>
			<point x="10" y="0" type="line"/>
			<point x="172" y="0" type="line"/>
			<point x="536" y="500" type="line"/>
			<point x="374" y="500" type="line"/>
		</contour>
	</outline>
</glyph>
<glyph name="y" format="2">
	<advance width="575"/>
	<unicode hex="0079"/>
	<outline>
		<contour>
			<point x="209" y="0" type="line"/>
			<point x="347" y="0" type="line"/>
			<point x="143" y="500" type="line"/>
			<point x="5" y="500" type="line"/>
		</contour>
		<contour>
			<point x="121" y="-200" type="line"/>
			<point x="261" y="-200" type="line"/>
			<point x="570" y="500" type="line"/>
			<point x="430" y="500" type="line"/>
		</contour>
	</outline>
</glyph>
<glyph name="z" format="2">
	<advance width="487"/>
	<unicode hex="007A"/>
	<outline>
		<contour>
			<point x="25" y="108" type="line"/>
			<point x="189" y="108" type="line"/>
			<point x="462" y="392" type="line"/>
			<point x="299" y="392" type="line"/>
		</contour>
		<contour>
			<point x="25" y="0" type="line"/>
			<point x="462" y="0" type="line"/>
			<point x="462" y="108" type="line"/>
			<point x="25" y="108" type="line"/>
		</contour>
		<contour>
			<point x="25" y="392" type="line"/>
			<point x="462" y="392" type="line"/>
			<point x="462" y="500" type="line"/>
			<point x="25" y="500" type="line"/>
		</contour>
	</outline>
</glyph>
<glyph name="braceleft" format="2">
	<advance width="512"/>
	<unicode hex="007B"/>
	<outline>
		<contour>
			<point x="90" y="293" type="line"/>
			<point x="211" y="293" type="line"/>
			<point x="301" y="323"/>
			<point x="342" y="358"/>
			<point x="342" y="478" type="curve" smooth="yes"/>
			<point x="342" y="551" type="line" smooth="yes"/>
			<point x="342" y="591"/>
			<point x="354" y="603"/>
			<point x="394" y="603" type="curve" smooth="yes"/>
			<point x="472" y="603" type="line"/>
			<point x="472" y="716" type="line"/>
			<point x="394" y="716" type="line" smooth="yes"/>
			<point x="274" y="716"/>
			<point x="204" y="671"/>
			<point x="204" y="551" type="curve" smooth="yes"/>
			<point x="204" y="478" type="line" smooth="yes"/>
			<point x="204" y="388"/>
			<point x="140" y="356"/>
			<point x="90" y="356" type="curve"/>
		</contour>
		<contour>
			<point x="394" y="-110" type="curve" smooth="yes"/>
			<point x="472" y="-110" type="line"/>
			<point x="472" y="3" type="line"/>
			<point x="394" y="3" type="line" smooth="yes"/>
			<point x="354" y="3"/>
			<point x="342" y="15"/>
			<point x="342" y="55" type="curve" smooth="yes"/>
			<point x="342" y="128" type="line" smooth="yes"/>
			<point x="342" y="248"/>
			<point x="301" y="283"/>
			<point x="211" y="313" type="curve"/>
			<point x="90" y="313" type="line"/>
			<point x="90" y="250" type="line"/>
			<point x="140" y="250"/>
			<point x="204" y="218"/>
			<point x="204" y="128" type="curve" smooth="yes"/>
			<point x="204" y="55" type="line" smooth="yes"/>
			<point x="204" y="-65"/>
			<point x="274" y="-110"/>
		</contour>
	</outline>
</glyph>
<glyph name="bar" format="2">
	<advance width="323"/>
	<unicode hex="007C"/>
	<outline>
		<contour>
			<point x="90" y="-106" type="line"/>
			<point x="233" y="-106" type="line"/>
			<point x="233" y="780" type="line"/>
			<point x="90" y="780" type="line"/>
		</contour>
	</outline>
</glyph>
<glyph name="braceright" format="2">
	<advance width="512"/>
	<unicode hex="007D"/>
	<outline>
		<contour>
			<point x="301" y="293" type="curve"/>
			<point x="422" y="293" type="line"/>
			<point x="422" y="356" type="line"/>
			<point x="372" y="356"/>
			<point x="308" y="388"/>
			<point x="308" y="478" type="curve" smooth="yes"/>
			<point x="308" y="551" type="line" smooth="yes"/>
			<point x="308" y="671"/>
			<point x="238" y="716"/>
			<point x="118" y="716" type="curve" smooth="yes"/>
			<point x="40" y="716" type="line"/>
			<point x="40" y="603" type="line"/>
			<point x="118" y="603" type="line" smooth="yes"/>
			<point x="158" y="603"/>
			<point x="170" y="591"/>
			<point x="170" y="551" type="curve" smooth="yes"/>
			<point x="170" y="478" type="line" smooth="yes"/>
			<point x="170" y="358"/>
			<point x="211" y="323"/>
		</contour>
		<contour>
			<point x="40" y="-110" type="line"/>
			<point x="118" y="-110" type="line" smooth="yes"/>
			<point x="238" y="-110"/>
			<point x="308" y="-65"/>
			<point x="308" y="55" type="curve" smooth="yes"/>
			<point x="308" y="128" type="line" smooth="yes"/>
			<point x="308" y="218"/>
			<point x="372" y="250"/>
			<point x="422" y="250" type="curve"/>
			<point x="422" y="313" type="line"/>
			<point x="301" y="313" type="line"/>
			<point x="211" y="283"/>
			<point x="170" y="248"/>
			<point x="170" y="128" type="curve" smooth="yes"/>
			<point x="170" y="55" type="line" smooth="yes"/>
			<point x="170" y="15"/>
			<point x="158" y="3"/>
			<point x="118" y="3" type="curve" smooth="yes"/>
			<point x="40" y="3" type="line"/>
		</contour>
	</outline>
</glyph>
<glyph name="asciitilde" format="2">
	<advance width="520"/>
	<unicode hex="007E"/>
	<outline>
		<contour>
			<point x="162" y="208" type="line"/>
			<point x="162" y="248"/>
			<point x="180" y="265"/>
			<point x="200" y="265" type="curve" smooth="yes"/>
			<point x="250" y="265"/>
			<point x="250" y="208"/>
			<point x="340" y="208" type="curve" smooth="yes"/>
			<point x="410" y="208"/>
			<point x="470" y="260"/>
			<point x="470" y="360" type="curve"/>
			<point x="358" y="370" type="line"/>
			<point x="358" y="330"/>
			<point x="340" y="312"/>
			<point x="320" y="312" type="curve" smooth="yes"/>
			<point x="270" y="312"/>
			<point x="270" y="372"/>
			<point x="180" y="370" type="curve" smooth="yes"/>
			<point x="110" y="368"/>
			<point x="50" y="318"/>
			<point x="50" y="218" type="curve"/>
		</contour>
	</outline>
</glyph>
<glyph name="cent" format="2">
	<advance width="578"/>
	<unicode hex="00A2"/>
	<outline>
		<contour>
			<point x="296" y="76" type="curve" smooth="yes"/>
			<point x="418" y="76"/>
			<point x="527" y="126"/>
			<point x="543" y="285" type="curve"/>
			<point x="397" y="295" type="line"/>
			<point x="382" y="210"/>
			<point x="346" y="189"/>
			<point x="296" y="189" type="curve" smooth="yes"/>
			<point x="222" y="189"/>
			<point x="183" y="239"/>
			<point x="183" y="340" type="curve" smooth="yes"/>
			<point x="183" y="433"/>
			<point x="224" y="495"/>
			<point x="296" y="495" type="curve" smooth="yes"/>
			<point x="354" y="495"/>
			<point x="382" y="467"/>
			<point x="397" y="383" type="curve"/>
			<point x="543" y="393" type="line"/>
			<point x="526" y="552"/>
			<point x="419" y="608"/>
			<point x="296" y="608" type="curve" smooth="yes"/>
			<point x="163" y="608"/>
			<point x="35" y="523"/>
			<point x="35" y="339" type="curve" smooth="yes"/>
			<point x="35" y="156"/>
			<point x="163" y="76"/>
		</contour>
		<contour>
			<point x="260" y="-116" type="line"/>
			<point x="333" y="-116" type="line"/>
			<point x="333" y="800" type="line"/>
			<point x="260" y="800" type="line"/>
		</contour>
	</outline>
</glyph>
<glyph name="sterling" format="2">
	<advance width="690"/>
	<unicode hex="00A3"/>
	<outline>
		<contour>
			<point x="35" y="0" type="line"/>
			<point x="607" y="0" type="line"/>
			<point x="607" y="113" type="line"/>
			<point x="78" y="113" type="line"/>
			<point x="99" y="40" type="line"/>
			<point x="401" y="196"/>
			<point x="230" y="353"/>
			<point x="230" y="503" type="curve" smooth="yes"/>
			<point x="230" y="573"/>
			<point x="290" y="603"/>
			<point x="360" y="603" type="curve" smooth="yes"/>
			<point x="430" y="603"/>
			<point x="482" y="560"/>
			<point x="482" y="470" type="curve"/>
			<point x="620" y="480" type="line"/>
			<point x="620" y="610"/>
			<point x="530" y="716"/>
			<point x="360" y="716" type="curve" smooth="yes"/>
			<point x="200" y="716"/>
			<point x="92" y="633"/>
			<point x="92" y="503" type="curve" smooth="yes"/>
			<point x="92" y="313"/>
			<point x="227" y="240"/>
			<point x="35" y="113" type="curve"/>
		</contour>
		<contour>
			<point x="10" y="287" type="line"/>
			<point x="449" y="287" type="line"/>
			<point x="449" y="370" type="line"/>
			<point x="10" y="370" type="line"/>
		</contour>
	</outline>
</glyph>
<glyph name="currency" format="2">
	<advance width="682"/>
	<unicode hex="00A4"/>
	<outline>
		<contour>
			<point x="341" y="78" type="curve" smooth="yes"/>
			<point x="461" y="77"/>
			<point x="558" y="174"/>
			<point x="557" y="294" type="curve" smooth="yes"/>
			<point x="558" y="414"/>
			<point x="461" y="511"/>
			<point x="341" y="510" type="curve" smooth="yes"/>
			<point x="221" y="511"/>
			<point x="124" y="414"/>
			<point x="125" y="294" type="curve" smooth="yes"/>
			<point x="124" y="174"/>
			<point x="221" y="77"/>
		</contour>
		<contour>
			<point x="149" y="23" type="line"/>
			<point x="262" y="133" type="line"/>
			<point x="203" y="237" type="line"/>
			<point x="70" y="103" type="line"/>
		</contour>
		<contour>
			<point x="533" y="23" type="line"/>
			<point x="612" y="103" type="line"/>
			<point x="496" y="219" type="line"/>
			<point x="405" y="151" type="line"/>
		</contour>
		<contour>
			<point x="341" y="190" type="curve" smooth="yes"/>
			<point x="284" y="190"/>
			<point x="237" y="237"/>
			<point x="237" y="294" type="curve" smooth="yes"/>
			<point x="237" y="351"/>
			<point x="284" y="398"/>
			<point x="341" y="398" type="curve" smooth="yes"/>
			<point x="398" y="398"/>
			<point x="445" y="351"/>
			<point x="445" y="294" type="curve" smooth="yes"/>
			<point x="445" y="237"/>
			<point x="398" y="190"/>
		</contour>
		<contour>
			<point x="189" y="367" type="line"/>
			<point x="274" y="441" type="line"/>
			<point x="150" y="565" type="line"/>
			<point x="70" y="486" type="line"/>
		</contour>
		<contour>
			<point x="494" y="368" type="line"/>
			<point x="612" y="486" type="line"/>
			<point x="532" y="565" type="line"/>
			<point x="412" y="446" type="line"/>
		</contour>
	</outline>
</glyph>
<glyph name="yen" format="2">
	<advance width="696"/>
	<unicode hex="00A5"/>
	<outline>
		<contour>
			<point x="399" y="257" type="line"/>
			<point x="686" y="700" type="line"/>
			<point x="534" y="700" type="line"/>
			<point x="285" y="319" type="line"/>
		</contour>
		<contour>
			<point x="99" y="280" type="line"/>
			<point x="597" y="280" type="line"/>
			<point x="597" y="353" type="line"/>
			<point x="99" y="353" type="line"/>
		</contour>
		<contour>
			<point x="99" y="127" type="line"/>
			<point x="597" y="127" type="line"/>
			<point x="597" y="200" type="line"/>
			<point x="99" y="200" type="line"/>
		</contour>
		<contour>
			<point x="279" y="0" type="line"/>
			<point x="417" y="0" type="line"/>
			<point x="417" y="337" type="line"/>
			<point x="279" y="337" type="line"/>
		</contour>
		<contour>
			<point x="297" y="257" type="line"/>
			<point x="411" y="319" type="line"/>
			<point x="162" y="700" type="line"/>
			<point x="10" y="700" type="line"/>
		</contour>
	</outline>
</glyph>
<glyph name="brokenbar" format="2">
	<advance width="323"/>
	<unicode hex="00A6"/>
	<outline>
		<contour>
			<point x="90" y="392" type="line"/>
			<point x="233" y="392" type="line"/>
			<point x="233" y="780" type="line"/>
			<point x="90" y="780" type="line"/>
		</contour>
		<contour>
			<point x="90" y="-96" type="line"/>
			<point x="233" y="-96" type="line"/>
			<point x="233" y="292" type="line"/>
			<point x="90" y="292" type="line"/>
		</contour>
	</outline>
</glyph>
<glyph name="section" format="2">
	<advance width="530"/>
	<unicode hex="00A7"/>
	<outline>
		<contour>
			<point x="312" y="192" type="line"/>
			<point x="362" y="192"/>
			<point x="490" y="208"/>
			<point x="490" y="318" type="curve" smooth="yes"/>
			<point x="490" y="458"/>
			<point x="201" y="458"/>
			<point x="201" y="548" type="curve" smooth="yes"/>
			<point x="201" y="578"/>
			<point x="221" y="603"/>
			<point x="261" y="603" type="curve" smooth="yes"/>
			<point x="301" y="603"/>
			<point x="331" y="559"/>
			<point x="331" y="524" type="curve"/>
			<point x="479" y="534" type="line"/>
			<point x="479" y="628"/>
			<point x="391" y="716"/>
			<point x="261" y="716" type="curve" smooth="yes"/>
			<point x="131" y="716"/>
			<point x="53" y="638"/>
			<point x="53" y="548" type="curve" smooth="yes"/>
			<point x="53" y="348"/>
			<point x="342" y="408"/>
			<point x="342" y="298" type="curve" smooth="yes"/>
			<point x="342" y="248"/>
			<point x="283" y="245"/>
			<point x="233" y="245" type="curve"/>
		</contour>
		<contour>
			<point x="269" y="-84" type="curve" smooth="yes"/>
			<point x="399" y="-84"/>
			<point x="477" y="-6"/>
			<point x="477" y="84" type="curve" smooth="yes"/>
			<point x="477" y="284"/>
			<point x="188" y="224"/>
			<point x="188" y="334" type="curve" smooth="yes"/>
			<point x="188" y="384"/>
			<point x="247" y="387"/>
			<point x="297" y="387" type="curve"/>
			<point x="218" y="440" type="line"/>
			<point x="168" y="440"/>
			<point x="40" y="424"/>
			<point x="40" y="314" type="curve" smooth="yes"/>
			<point x="40" y="174"/>
			<point x="329" y="174"/>
			<point x="329" y="84" type="curve" smooth="yes"/>
			<point x="329" y="54"/>
			<point x="309" y="29"/>
			<point x="269" y="29" type="curve" smooth="yes"/>
			<point x="229" y="29"/>
			<point x="199" y="73"/>
			<point x="199" y="108" type="curve"/>
			<point x="51" y="98" type="line"/>
			<point x="51" y="4"/>
			<point x="139" y="-84"/>
		</contour>
	</outline>
</glyph>
<glyph name="dieresis" format="2">
	<advance width="600"/>
	<unicode hex="00A8"/>
	<outline>
		<contour>
			<point x="330" y="570" type="line"/>
			<point x="460" y="570" type="line"/>
			<point x="460" y="690" type="line"/>
			<point x="330" y="690" type="line"/>
		</contour>
		<contour>
			<point x="140" y="570" type="line"/>
			<point x="270" y="570" type="line"/>
			<point x="270" y="690" type="line"/>
			<point x="140" y="690" type="line"/>
		</contour>
	</outline>
</glyph>
<glyph name="copyright" format="2">
	<advance width="812"/>
	<unicode hex="00A9"/>
	<outline>
		<contour>
			<point x="410" y="147" type="curve" smooth="yes"/>
			<point x="504" y="147"/>
			<point x="590" y="185"/>
			<point x="600" y="300" type="curve"/>
			<point x="483" y="300" type="line"/>
			<point x="472" y="254"/>
			<point x="448" y="239"/>
			<point x="410" y="239" type="curve" smooth="yes"/>
			<point x="357" y="239"/>
			<point x="330" y="274"/>
			<point x="330" y="349" type="curve" smooth="yes"/>
			<point x="330" y="416"/>
			<point x="358" y="461"/>
			<point x="410" y="461" type="curve" smooth="yes"/>
			<point x="453" y="461"/>
			<point x="472" y="441"/>
			<point x="483" y="394" type="curve"/>
			<point x="600" y="394" type="line"/>
			<point x="589" y="509"/>
			<point x="505" y="554"/>
			<point x="410" y="554" type="curve" smooth="yes"/>
			<point x="309" y="554"/>
			<point x="211" y="488"/>
			<point x="211" y="348" type="curve" smooth="yes"/>
			<point x="211" y="208"/>
			<point x="309" y="147"/>
		</contour>
		<component base="whiteCircle" xOffset="-30"/>
	</outline>
</glyph>
<glyph name="logicalnot" format="2">
	<advance width="681"/>
	<unicode hex="00AC"/>
	<outline>
		<contour>
			<point x="90" y="250" type="line"/>
			<point x="591" y="250" type="line"/>
			<point x="591" y="356" type="line"/>
			<point x="90" y="356" type="line"/>
		</contour>
		<contour>
			<point x="485" y="56" type="line"/>
			<point x="591" y="56" type="line"/>
			<point x="591" y="290" type="line"/>
			<point x="485" y="290" type="line"/>
		</contour>
	</outline>
</glyph>
<glyph name="registered" format="2">
	<advance width="510"/>
	<unicode hex="00AE"/>
	<outline>
		<contour>
			<point x="255" y="286" type="curve" smooth="yes"/>
			<point x="375" y="286"/>
			<point x="470" y="381"/>
			<point x="470" y="501" type="curve" smooth="yes"/>
			<point x="470" y="621"/>
			<point x="375" y="716"/>
			<point x="255" y="716" type="curve" smooth="yes"/>
			<point x="136" y="716"/>
			<point x="40" y="621"/>
			<point x="40" y="501" type="curve" smooth="yes"/>
			<point x="40" y="381"/>
			<point x="136" y="286"/>
		</contour>
		<contour>
			<point x="255" y="327" type="curve" smooth="yes"/>
			<point x="157" y="327"/>
			<point x="81" y="403"/>
			<point x="81" y="501" type="curve" smooth="yes"/>
			<point x="81" y="600"/>
			<point x="157" y="675"/>
			<point x="255" y="675" type="curve" smooth="yes"/>
			<point x="355" y="675"/>
			<point x="429" y="600"/>
			<point x="429" y="501" type="curve" smooth="yes"/>
			<point x="429" y="403"/>
			<point x="355" y="327"/>
		</contour>
		<contour>
			<point x="176" y="393" type="line"/>
			<point x="227" y="393" type="line"/>
			<point x="227" y="471" type="line"/>
			<point x="253" y="471" type="line" smooth="yes"/>
			<point x="284" y="471"/>
			<point x="286" y="466"/>
			<point x="287" y="442" type="curve" smooth="yes"/>
			<point x="290" y="393" type="line"/>
			<point x="342" y="393" type="line"/>
			<point x="339" y="438" type="line" smooth="yes"/>
			<point x="335" y="493"/>
			<point x="322" y="493"/>
			<point x="261" y="493" type="curve"/>
			<point x="261" y="491" type="line"/>
			<point x="292" y="490"/>
			<point x="339" y="491"/>
			<point x="339" y="541" type="curve" smooth="yes"/>
			<point x="339" y="586"/>
			<point x="303" y="611"/>
			<point x="253" y="611" type="curve" smooth="yes"/>
			<point x="176" y="611" type="line"/>
		</contour>
		<contour>
			<point x="227" y="515" type="line"/>
			<point x="227" y="567" type="line"/>
			<point x="253" y="567" type="line" smooth="yes"/>
			<point x="276" y="567"/>
			<point x="288" y="559"/>
			<point x="288" y="541" type="curve" smooth="yes"/>
			<point x="288" y="523"/>
			<point x="276" y="515"/>
			<point x="253" y="515" type="curve" smooth="yes"/>
		</contour>
	</outline>
</glyph>
<glyph name="macron" format="2">
	<advance width="632"/>
	<unicode hex="00AF"/>
	<outline>
		<contour>
			<point x="140" y="570" type="line"/>
			<point x="492" y="570" type="line"/>
			<point x="492" y="673" type="line"/>
			<point x="140" y="673" type="line"/>
		</contour>
	</outline>
</glyph>
<glyph name="degree" format="2">
	<advance width="400"/>
	<unicode hex="00B0"/>
	<outline>
		<contour>
			<point x="200" y="392" type="curve" smooth="yes"/>
			<point x="292" y="392"/>
			<point x="370" y="470"/>
			<point x="370" y="562" type="curve" smooth="yes"/>
			<point x="370" y="654"/>
			<point x="292" y="732"/>
			<point x="200" y="732" type="curve" smooth="yes"/>
			<point x="108" y="732"/>
			<point x="30" y="654"/>
			<point x="30" y="562" type="curve" smooth="yes"/>
			<point x="30" y="470"/>
			<point x="108" y="392"/>
		</contour>
		<contour>
			<point x="200" y="500" type="curve" smooth="yes"/>
			<point x="162" y="500"/>
			<point x="138" y="524"/>
			<point x="138" y="562" type="curve" smooth="yes"/>
			<point x="138" y="600"/>
			<point x="162" y="624"/>
			<point x="200" y="624" type="curve" smooth="yes"/>
			<point x="238" y="624"/>
			<point x="262" y="600"/>
			<point x="262" y="562" type="curve" smooth="yes"/>
			<point x="262" y="524"/>
			<point x="238" y="500"/>
		</contour>
	</outline>
</glyph>
<glyph name="plusminus" format="2">
	<advance width="619"/>
	<unicode hex="00B1"/>
	<outline>
		<contour>
			<point x="253" y="170" type="line"/>
			<point x="366" y="170" type="line"/>
			<point x="366" y="649" type="line"/>
			<point x="253" y="649" type="line"/>
		</contour>
		<contour>
			<point x="70" y="-1" type="line"/>
			<point x="549" y="-1" type="line"/>
			<point x="549" y="112" type="line"/>
			<point x="70" y="112" type="line"/>
		</contour>
		<contour>
			<point x="70" y="352" type="line"/>
			<point x="549" y="352" type="line"/>
			<point x="549" y="465" type="line"/>
			<point x="70" y="465" type="line"/>
		</contour>
	</outline>
</glyph>
<glyph name="acute" format="2">
	<advance width="474"/>
	<unicode hex="00B4"/>
	<outline>
		<contour>
			<point x="140" y="580" type="line"/>
			<point x="230" y="580" type="line"/>
			<point x="334" y="720" type="line"/>
			<point x="196" y="720" type="line"/>
		</contour>
	</outline>
</glyph>
<glyph name="paragraph" format="2">
	<advance width="759"/>
	<unicode hex="00B6"/>
	<outline>
		<contour>
			<point x="291" y="269" type="curve" smooth="yes"/>
			<point x="421" y="269" type="line"/>
			<point x="421" y="382" type="line"/>
			<point x="311" y="382" type="line" smooth="yes"/>
			<point x="206" y="382"/>
			<point x="158" y="406"/>
			<point x="158" y="484" type="curve" smooth="yes"/>
			<point x="158" y="562"/>
			<point x="206" y="587"/>
			<point x="311" y="587" type="curve" smooth="yes"/>
			<point x="709" y="587" type="line"/>
			<point x="709" y="700" type="line"/>
			<point x="291" y="700" type="line" smooth="yes"/>
			<point x="229" y="700"/>
			<point x="40" y="677"/>
			<point x="40" y="484" type="curve" smooth="yes"/>
			<point x="40" y="292"/>
			<point x="229" y="269"/>
		</contour>
		<contour>
			<point x="333" y="-70" type="line"/>
			<point x="451" y="-70" type="line"/>
			<point x="451" y="700" type="line"/>
			<point x="333" y="700" type="line"/>
		</contour>
		<contour>
			<point x="511" y="-70" type="line"/>
			<point x="629" y="-70" type="line"/>
			<point x="629" y="700" type="line"/>
			<point x="511" y="700" type="line"/>
		</contour>
	</outline>
</glyph>
<glyph name="periodcentered" format="2">
	<advance width="280"/>
	<unicode hex="00B7"/>
	<outline>
		<contour>
			<point x="70" y="275" type="line"/>
			<point x="210" y="275" type="line"/>
			<point x="210" y="425" type="line"/>
			<point x="70" y="425" type="line"/>
		</contour>
	</outline>
</glyph>
<glyph name="cedilla" format="2">
	<advance width="498"/>
	<unicode hex="00B8"/>
	<outline>
		<contour>
			<point x="248" y="-216" type="curve" smooth="yes"/>
			<point x="308" y="-216"/>
			<point x="358" y="-187"/>
			<point x="358" y="-127" type="curve" smooth="yes"/>
			<point x="358" y="-67"/>
			<point x="318" y="-39"/>
			<point x="268" y="-39" type="curve" smooth="yes"/>
			<point x="230" y="-39"/>
			<point x="197" y="-79"/>
			<point x="197" y="-94" type="curve"/>
			<point x="225" y="-103" type="line"/>
			<point x="228" y="-99"/>
			<point x="238" y="-94"/>
			<point x="248" y="-94" type="curve" smooth="yes"/>
			<point x="268" y="-94"/>
			<point x="283" y="-102"/>
			<point x="283" y="-122" type="curve" smooth="yes"/>
			<point x="283" y="-142"/>
			<point x="268" y="-151"/>
			<point x="248" y="-151" type="curve" smooth="yes"/>
			<point x="228" y="-151"/>
			<point x="213" y="-142"/>
			<point x="213" y="-127" type="curve"/>
			<point x="140" y="-137" type="line"/>
			<point x="140" y="-182"/>
			<point x="188" y="-216"/>
		</contour>
		<contour>
			<point x="225" y="-103" type="line"/>
			<point x="286" y="25" type="line"/>
			<point x="224" y="25" type="line"/>
			<point x="165" y="-84" type="line"/>
		</contour>
	</outline>
</glyph>
<glyph name="AE" format="2">
	<advance width="870"/>
	<unicode hex="00C6"/>
	<outline>
		<contour>
			<point x="415" y="587" type="line"/>
			<point x="825" y="587" type="line"/>
			<point x="825" y="700" type="line"/>
			<point x="415" y="700" type="line"/>
		</contour>
		<component base="A"/>
		<contour>
			<point x="566" y="0" type="line"/>
			<point x="825" y="0" type="line"/>
			<point x="825" y="113" type="line"/>
			<point x="566" y="113" type="line"/>
		</contour>
		<contour>
			<point x="495" y="307" type="line"/>
			<point x="765" y="307" type="line"/>
			<point x="765" y="420" type="line"/>
			<point x="495" y="420" type="line"/>
		</contour>
	</outline>
</glyph>
<glyph name="multiply" format="2">
	<advance width="587"/>
	<unicode hex="00D7"/>
	<outline>
		<contour>
			<point x="150" y="74" type="line"/>
			<point x="517" y="440" type="line"/>
			<point x="438" y="520" type="line"/>
			<point x="71" y="153" type="line"/>
		</contour>
		<contour>
			<point x="437" y="73" type="line"/>
			<point x="516" y="152" type="line"/>
			<point x="150" y="519" type="line"/>
			<point x="70" y="440" type="line"/>
		</contour>
	</outline>
</glyph>
<glyph name="Oslash" format="2">
	<advance width="765"/>
	<unicode hex="00D8"/>
	<outline>
		<contour>
			<point x="0" y="-66" type="line"/>
			<point x="119" y="-66" type="line"/>
			<point x="765" y="765" type="line"/>
			<point x="646" y="765" type="line"/>
		</contour>
		<component base="O" xOffset="-19"/>
	</outline>
</glyph>
<glyph name="Thorn" format="2">
	<advance width="636"/>
	<unicode hex="00DE"/>
	<outline>
		<contour>
			<point x="108" y="134" type="line"/>
			<point x="315" y="134" type="line" smooth="yes"/>
			<point x="475" y="134"/>
			<point x="586" y="210"/>
			<point x="586" y="350" type="curve" smooth="yes"/>
			<point x="586" y="490"/>
			<point x="475" y="566"/>
			<point x="315" y="566" type="curve" smooth="yes"/>
			<point x="108" y="566" type="line"/>
			<point x="108" y="453" type="line"/>
			<point x="315" y="453" type="line" smooth="yes"/>
			<point x="395" y="453"/>
			<point x="448" y="430"/>
			<point x="448" y="350" type="curve" smooth="yes"/>
			<point x="448" y="270"/>
			<point x="395" y="247"/>
			<point x="315" y="247" type="curve" smooth="yes"/>
			<point x="108" y="247" type="line"/>
		</contour>
		<contour>
			<point x="75" y="0" type="line"/>
			<point x="213" y="0" type="line"/>
			<point x="213" y="700" type="line"/>
			<point x="75" y="700" type="line"/>
		</contour>
	</outline>
</glyph>
<glyph name="germandbls" format="2">
	<advance width="616"/>
	<unicode hex="00DF"/>
	<outline>
		<contour>
			<point x="279" y="0" type="line"/>
			<point x="329" y="0" type="line" smooth="yes"/>
			<point x="476" y="0"/>
			<point x="581" y="61"/>
			<point x="581" y="201" type="curve" smooth="yes"/>
			<point x="581" y="321"/>
			<point x="496" y="377"/>
			<point x="366" y="377" type="curve"/>
			<point x="366" y="361" type="line"/>
			<point x="476" y="361"/>
			<point x="547" y="423"/>
			<point x="547" y="533" type="curve" smooth="yes"/>
			<point x="547" y="643"/>
			<point x="469" y="716"/>
			<point x="319" y="716" type="curve" smooth="yes"/>
			<point x="169" y="716"/>
			<point x="65" y="640"/>
			<point x="65" y="480" type="curve"/>
			<point x="200" y="480" type="line"/>
			<point x="200" y="560"/>
			<point x="244" y="603"/>
			<point x="314" y="603" type="curve" smooth="yes"/>
			<point x="374" y="603"/>
			<point x="409" y="563"/>
			<point x="409" y="513" type="curve" smooth="yes"/>
			<point x="409" y="463"/>
			<point x="379" y="422"/>
			<point x="299" y="422" type="curve" smooth="yes"/>
			<point x="279" y="422" type="line"/>
			<point x="279" y="306" type="line"/>
			<point x="339" y="306" type="line" smooth="yes"/>
			<point x="399" y="306"/>
			<point x="443" y="281"/>
			<point x="443" y="211" type="curve" smooth="yes"/>
			<point x="443" y="141"/>
			<point x="399" y="116"/>
			<point x="339" y="116" type="curve" smooth="yes"/>
			<point x="279" y="116" type="line"/>
		</contour>
		<contour>
			<point x="65" y="0" type="line"/>
			<point x="200" y="0" type="line"/>
			<point x="200" y="480" type="line"/>
			<point x="65" y="480" type="line"/>
		</contour>
	</outline>
</glyph>
<glyph name="ae" format="2">
	<advance width="922"/>
	<unicode hex="00E6"/>
	<outline>
		<contour>
			<point x="647" y="-16" type="curve" smooth="yes"/>
			<point x="787" y="-16"/>
			<point x="874" y="58"/>
			<point x="887" y="147" type="curve"/>
			<point x="751" y="157" type="line"/>
			<point x="740" y="129"/>
			<point x="717" y="97"/>
			<point x="647" y="97" type="curve" smooth="yes"/>
			<point x="582" y="97"/>
			<point x="525" y="140"/>
			<point x="525" y="210" type="curve"/>
			<point x="887" y="210" type="line"/>
			<point x="887" y="248" type="line" smooth="yes"/>
			<point x="887" y="418"/>
			<point x="778" y="516"/>
			<point x="638" y="516" type="curve" smooth="yes"/>
			<point x="498" y="516"/>
			<point x="386" y="418"/>
			<point x="386" y="248" type="curve" smooth="yes"/>
			<point x="386" y="78"/>
			<point x="507" y="-16"/>
		</contour>
		<contour>
			<point x="249" y="97" type="curve" smooth="yes"/>
			<point x="209" y="97"/>
			<point x="178" y="108"/>
			<point x="178" y="148" type="curve" smooth="yes"/>
			<point x="178" y="198"/>
			<point x="231" y="203"/>
			<point x="271" y="207" type="curve" smooth="yes"/>
			<point x="353" y="216"/>
			<point x="406" y="226"/>
			<point x="406" y="309" type="curve"/>
			<point x="386" y="308" type="line"/>
			<point x="386" y="233" type="line" smooth="yes"/>
			<point x="386" y="150"/>
			<point x="319" y="97"/>
		</contour>
		<contour>
			<point x="229" y="-16" type="curve" smooth="yes"/>
			<point x="339" y="-16"/>
			<point x="456" y="40"/>
			<point x="456" y="220" type="curve"/>
			<point x="509" y="336" type="line"/>
			<point x="509" y="480"/>
			<point x="409" y="516"/>
			<point x="288" y="516" type="curve" smooth="yes"/>
			<point x="144" y="516"/>
			<point x="54" y="449"/>
			<point x="54" y="362" type="curve"/>
			<point x="188" y="343" type="line"/>
			<point x="188" y="393"/>
			<point x="258" y="403"/>
			<point x="298" y="403" type="curve" smooth="yes"/>
			<point x="348" y="403"/>
			<point x="380" y="391"/>
			<point x="388" y="362" type="curve" smooth="yes"/>
			<point x="396" y="333"/>
			<point x="382" y="313"/>
			<point x="322" y="309" type="curve" smooth="yes"/>
			<point x="212" y="302"/>
			<point x="40" y="298"/>
			<point x="40" y="148" type="curve" smooth="yes"/>
			<point x="40" y="47"/>
			<point x="123" y="-16"/>
		</contour>
		<contour>
			<point x="525" y="308" type="line"/>
			<point x="525" y="368"/>
			<point x="578" y="403"/>
			<point x="638" y="403" type="curve" smooth="yes"/>
			<point x="698" y="403"/>
			<point x="748" y="368"/>
			<point x="748" y="308" type="curve"/>
		</contour>
	</outline>
</glyph>
<glyph name="eth" format="2">
	<advance width="611"/>
	<unicode hex="00F0"/>
	<outline>
		<contour>
			<point x="301" y="-16" type="curve" smooth="yes"/>
			<point x="451" y="-15"/>
			<point x="561" y="80"/>
			<point x="561" y="280" type="curve" smooth="yes"/>
			<point x="561" y="600"/>
			<point x="368" y="715"/>
			<point x="168" y="715" type="curve"/>
			<point x="168" y="605" type="line"/>
			<point x="327" y="605"/>
			<point x="447" y="529"/>
			<point x="447" y="329" type="curve"/>
			<point x="468" y="287" type="line"/>
			<point x="468" y="407"/>
			<point x="391" y="465"/>
			<point x="291" y="465" type="curve" smooth="yes"/>
			<point x="146" y="465"/>
			<point x="35" y="366"/>
			<point x="35" y="224" type="curve" smooth="yes"/>
			<point x="35" y="77"/>
			<point x="151" y="-17"/>
		</contour>
		<contour>
			<point x="301" y="97" type="curve" smooth="yes"/>
			<point x="229" y="97"/>
			<point x="183" y="148"/>
			<point x="183" y="226" type="curve" smooth="yes"/>
			<point x="183" y="304"/>
			<point x="228" y="352"/>
			<point x="301" y="352" type="curve" smooth="yes"/>
			<point x="374" y="352"/>
			<point x="422" y="304"/>
			<point x="422" y="226" type="curve" smooth="yes"/>
			<point x="422" y="148"/>
			<point x="374" y="97"/>
		</contour>
		<contour>
			<point x="214" y="483" type="line"/>
			<point x="531" y="631" type="line"/>
			<point x="505" y="685" type="line"/>
			<point x="188" y="537" type="line"/>
		</contour>
	</outline>
</glyph>
<glyph name="divide" format="2">
	<advance width="619"/>
	<unicode hex="00F7"/>
	<outline>
		<contour>
			<point x="70" y="239" type="line"/>
			<point x="549" y="239" type="line"/>
			<point x="549" y="352" type="line"/>
			<point x="70" y="352" type="line"/>
		</contour>
		<contour>
			<point x="310" y="39" type="curve" smooth="yes"/>
			<point x="348" y="39"/>
			<point x="380" y="71"/>
			<point x="380" y="109" type="curve" smooth="yes"/>
			<point x="380" y="147"/>
			<point x="348" y="179"/>
			<point x="310" y="179" type="curve" smooth="yes"/>
			<point x="272" y="179"/>
			<point x="240" y="147"/>
			<point x="240" y="109" type="curve" smooth="yes"/>
			<point x="240" y="71"/>
			<point x="272" y="39"/>
		</contour>
		<contour>
			<point x="310" y="412" type="curve" smooth="yes"/>
			<point x="348" y="412"/>
			<point x="380" y="444"/>
			<point x="380" y="482" type="curve" smooth="yes"/>
			<point x="380" y="520"/>
			<point x="348" y="552"/>
			<point x="310" y="552" type="curve" smooth="yes"/>
			<point x="272" y="552"/>
			<point x="240" y="520"/>
			<point x="240" y="482" type="curve" smooth="yes"/>
			<point x="240" y="444"/>
			<point x="272" y="412"/>
		</contour>
	</outline>
</glyph>
<glyph name="oslash" format="2">
	<advance width="568"/>
	<unicode hex="00F8"/>
	<outline>
		<contour>
			<point x="0" y="-66" type="line"/>
			<point x="99" y="-66" type="line"/>
			<point x="563" y="566" type="line"/>
			<point x="464" y="566" type="line"/>
		</contour>
		<component base="o" xOffset="-14"/>
	</outline>
</glyph>
<glyph name="thorn" format="2">
	<advance width="621"/>
	<unicode hex="00FE"/>
	<outline>
		<contour>
			<point x="65" y="-200" type="line"/>
			<point x="200" y="-200" type="line"/>
			<point x="200" y="700" type="line"/>
			<point x="65" y="700" type="line"/>
		</contour>
		<contour>
			<point x="364" y="-16" type="curve" smooth="yes"/>
			<point x="514" y="-16"/>
			<point x="586" y="102"/>
			<point x="586" y="250" type="curve" smooth="yes"/>
			<point x="586" y="398"/>
			<point x="514" y="516"/>
			<point x="364" y="516" type="curve" smooth="yes"/>
			<point x="224" y="516"/>
			<point x="185" y="400"/>
			<point x="185" y="290" type="curve" smooth="yes"/>
			<point x="185" y="210" type="line" smooth="yes"/>
			<point x="185" y="100"/>
			<point x="224" y="-16"/>
		</contour>
		<contour>
			<point x="324" y="97" type="curve" smooth="yes"/>
			<point x="264" y="97"/>
			<point x="200" y="140"/>
			<point x="200" y="250" type="curve" smooth="yes"/>
			<point x="200" y="360"/>
			<point x="264" y="403"/>
			<point x="324" y="403" type="curve" smooth="yes"/>
			<point x="384" y="403"/>
			<point x="448" y="360"/>
			<point x="448" y="250" type="curve" smooth="yes"/>
			<point x="448" y="140"/>
			<point x="384" y="97"/>
		</contour>
	</outline>
</glyph>
<glyph name="Dcroat" format="2">
	<advance width="713"/>
	<unicode hex="0110"/>
	<outline>
		<contour>
			<point x="5" y="294" type="line"/>
			<point x="333" y="294" type="line"/>
			<point x="333" y="407" type="line"/>
			<point x="5" y="407" type="line"/>
		</contour>
		<component base="D" xOffset="15"/>
	</outline>
</glyph>
<glyph name="dcroat" format="2">
	<advance width="626"/>
	<unicode hex="0111"/>
	<outline>
		<contour>
			<point x="263" y="568" type="line"/>
			<point x="651" y="568" type="line"/>
			<point x="651" y="630" type="line"/>
			<point x="263" y="630" type="line"/>
		</contour>
		<component base="d"/>
	</outline>
</glyph>
<glyph name="Hbar" format="2">
	<advance width="686"/>
	<unicode hex="0126"/>
	<outline>
		<contour>
			<point x="10" y="520" type="line"/>
			<point x="676" y="520" type="line"/>
			<point x="676" y="600" type="line"/>
			<point x="10" y="600" type="line"/>
		</contour>
		<component base="H" xOffset="-10"/>
	</outline>
</glyph>
<glyph name="hbar" format="2">
	<advance width="593"/>
	<unicode hex="0127"/>
	<outline>
		<contour>
			<point x="-25" y="568" type="line"/>
			<point x="363" y="568" type="line"/>
			<point x="363" y="630" type="line"/>
			<point x="-25" y="630" type="line"/>
		</contour>
		<component base="h" xOffset="5"/>
	</outline>
</glyph>
<glyph name="ibreve" format="2">
	<advance width="198"/>
	<unicode hex="012D"/>
	<outline>
		<contour>
			<point x="99" y="580" type="curve" smooth="yes"/>
			<point x="217" y="580"/>
			<point x="243" y="672"/>
			<point x="243" y="750" type="curve"/>
			<point x="130" y="750" type="line"/>
			<point x="130" y="707"/>
			<point x="124" y="684"/>
			<point x="99" y="684" type="curve" smooth="yes"/>
			<point x="74" y="684"/>
			<point x="68" y="707"/>
			<point x="68" y="750" type="curve"/>
			<point x="-45" y="750" type="line"/>
			<point x="-45" y="673"/>
			<point x="-20" y="580"/>
		</contour>
		<component base="idotless" xOffset="-33"/>
	</outline>
</glyph>
<glyph name="Lslash" format="2">
	<advance width="554"/>
	<unicode hex="0141"/>
	<outline>
		<contour>
			<point x="-5" y="225" type="line"/>
			<point x="355" y="373" type="line"/>
			<point x="355" y="475" type="line"/>
			<point x="-5" y="327" type="line"/>
		</contour>
		<component base="L" xOffset="6"/>
	</outline>
</glyph>
<glyph name="lslash" format="2">
	<advance width="350"/>
	<unicode hex="0142"/>
	<outline>
		<component base="l" xOffset="43"/>
		<contour>
			<point x="35" y="237" type="line"/>
			<point x="315" y="369" type="line"/>
			<point x="315" y="473" type="line"/>
			<point x="35" y="341" type="line"/>
		</contour>
	</outline>
</glyph>
<glyph name="Eng" format="2">
	<advance width="746"/>
	<unicode hex="014A"/>
	<outline>
		<contour>
			<point x="386" y="-200" type="line"/>
			<point x="501" y="-200" type="line" smooth="yes"/>
			<point x="611" y="-200"/>
			<point x="671" y="-150"/>
			<point x="671" y="-40" type="curve" smooth="yes"/>
			<point x="671" y="0" type="line"/>
			<point x="536" y="0" type="line"/>
			<point x="536" y="-27" type="line" smooth="yes"/>
			<point x="536" y="-67"/>
			<point x="516" y="-87"/>
			<point x="476" y="-87" type="curve" smooth="yes"/>
			<point x="386" y="-87" type="line"/>
		</contour>
		<component base="N"/>
	</outline>
</glyph>
<glyph name="eng" format="2">
	<advance width="593"/>
	<unicode hex="014B"/>
	<outline>
		<contour>
			<point x="243" y="-200" type="line"/>
			<point x="358" y="-200" type="line" smooth="yes"/>
			<point x="468" y="-200"/>
			<point x="528" y="-150"/>
			<point x="528" y="-40" type="curve" smooth="yes"/>
			<point x="528" y="0" type="line"/>
			<point x="393" y="0" type="line"/>
			<point x="393" y="-27" type="line" smooth="yes"/>
			<point x="393" y="-67"/>
			<point x="373" y="-87"/>
			<point x="333" y="-87" type="curve" smooth="yes"/>
			<point x="243" y="-87" type="line"/>
		</contour>
		<component base="n"/>
	</outline>
</glyph>
<glyph name="tbar" format="2">
	<advance width="418"/>
	<unicode hex="0167"/>
	<outline>
		<contour>
			<point x="5" y="220" type="line"/>
			<point x="398" y="220" type="line"/>
			<point x="398" y="310" type="line"/>
			<point x="5" y="310" type="line"/>
		</contour>
		<component base="t"/>
	</outline>
</glyph>
<glyph name="florin" format="2">
	<advance width="488"/>
	<unicode hex="0192"/>
	<outline>
		<contour>
			<point x="0" y="-216" type="line"/>
			<point x="120" y="-216" type="line" smooth="yes"/>
			<point x="230" y="-216"/>
			<point x="265" y="-168"/>
			<point x="278" y="-44" type="curve" smooth="yes"/>
			<point x="343" y="556" type="line" smooth="yes"/>
			<point x="346" y="586"/>
			<point x="358" y="597"/>
			<point x="388" y="597" type="curve" smooth="yes"/>
			<point x="468" y="597" type="line"/>
			<point x="468" y="710" type="line"/>
			<point x="348" y="710" type="line" smooth="yes"/>
			<point x="238" y="710"/>
			<point x="203" y="662"/>
			<point x="190" y="538" type="curve" smooth="yes"/>
			<point x="125" y="-62" type="line" smooth="yes"/>
			<point x="122" y="-92"/>
			<point x="110" y="-103"/>
			<point x="80" y="-103" type="curve" smooth="yes"/>
			<point x="0" y="-103" type="line"/>
		</contour>
		<contour>
			<point x="73" y="327" type="line"/>
			<point x="431" y="327" type="line"/>
			<point x="431" y="440" type="line"/>
			<point x="73" y="440" type="line"/>
		</contour>
	</outline>
</glyph>
<glyph name="jdotless" format="2">
	<advance width="300"/>
	<unicode hex="0237"/>
	<outline>
		<contour>
			<point x="-50" y="-200" type="line"/>
			<point x="65" y="-200" type="line" smooth="yes"/>
			<point x="175" y="-200"/>
			<point x="235" y="-150"/>
			<point x="235" y="-40" type="curve" smooth="yes"/>
			<point x="235" y="500" type="line"/>
			<point x="100" y="500" type="line"/>
			<point x="100" y="-27" type="line" smooth="yes"/>
			<point x="100" y="-67"/>
			<point x="80" y="-87"/>
			<point x="40" y="-87" type="curve" smooth="yes"/>
			<point x="-50" y="-87" type="line"/>
		</contour>
	</outline>
</glyph>
<glyph name="circumflex" format="2">
	<advance width="648"/>
	<unicode hex="02C6"/>
	<outline>
		<contour>
			<point x="140" y="580" type="line"/>
			<point x="264" y="580" type="line"/>
			<point x="324" y="680" type="line"/>
			<point x="384" y="580" type="line"/>
			<point x="508" y="580" type="line"/>
			<point x="426" y="720" type="line"/>
			<point x="222" y="720" type="line"/>
		</contour>
	</outline>
</glyph>
<glyph name="caron" format="2">
	<advance width="648"/>
	<unicode hex="02C7"/>
	<outline>
		<contour>
			<point x="222" y="590" type="line"/>
			<point x="426" y="590" type="line"/>
			<point x="508" y="730" type="line"/>
			<point x="384" y="730" type="line"/>
			<point x="324" y="630" type="line"/>
			<point x="264" y="730" type="line"/>
			<point x="140" y="730" type="line"/>
		</contour>
	</outline>
</glyph>
<glyph name="breve" format="2">
	<advance width="620"/>
	<unicode hex="02D8"/>
	<outline>
		<contour>
			<point x="310" y="580" type="curve" smooth="yes"/>
			<point x="402" y="580"/>
			<point x="480" y="650"/>
			<point x="480" y="750" type="curve"/>
			<point x="385" y="750" type="line"/>
			<point x="385" y="705"/>
			<point x="351" y="675"/>
			<point x="310" y="675" type="curve" smooth="yes"/>
			<point x="268" y="675"/>
			<point x="235" y="705"/>
			<point x="235" y="750" type="curve"/>
			<point x="140" y="750" type="line"/>
			<point x="140" y="650"/>
			<point x="215" y="580"/>
		</contour>
	</outline>
</glyph>
<glyph name="dotaccent" format="2">
	<advance width="440"/>
	<unicode hex="02D9"/>
	<outline>
		<contour>
			<point x="140" y="570" type="line"/>
			<point x="300" y="570" type="line"/>
			<point x="300" y="700" type="line"/>
			<point x="140" y="700" type="line"/>
		</contour>
	</outline>
</glyph>
<glyph name="ring" format="2">
	<advance width="518"/>
	<unicode hex="02DA"/>
	<outline>
		<contour>
			<point x="259" y="572" type="curve" smooth="yes"/>
			<point x="323" y="572"/>
			<point x="378" y="627"/>
			<point x="378" y="691" type="curve" smooth="yes"/>
			<point x="378" y="755"/>
			<point x="323" y="810"/>
			<point x="259" y="810" type="curve" smooth="yes"/>
			<point x="195" y="810"/>
			<point x="140" y="755"/>
			<point x="140" y="691" type="curve" smooth="yes"/>
			<point x="140" y="627"/>
			<point x="195" y="572"/>
		</contour>
		<contour>
			<point x="259" y="648" type="curve" smooth="yes"/>
			<point x="234" y="648"/>
			<point x="216" y="666"/>
			<point x="216" y="691" type="curve" smooth="yes"/>
			<point x="216" y="716"/>
			<point x="234" y="734"/>
			<point x="259" y="734" type="curve" smooth="yes"/>
			<point x="284" y="734"/>
			<point x="302" y="716"/>
			<point x="302" y="691" type="curve" smooth="yes"/>
			<point x="302" y="666"/>
			<point x="284" y="648"/>
		</contour>
	</outline>
</glyph>
<glyph name="ogonek" format="2">
	<advance width="497"/>
	<unicode hex="02DB"/>
	<outline>
		<contour>
			<point x="239" y="-178" type="curve" smooth="yes"/>
			<point x="314" y="-178"/>
			<point x="357" y="-123"/>
			<point x="357" y="-73" type="curve"/>
			<point x="280" y="-63" type="line"/>
			<point x="280" y="-73"/>
			<point x="269" y="-93"/>
			<point x="249" y="-93" type="curve" smooth="yes"/>
			<point x="239" y="-93"/>
			<point x="225" y="-89"/>
			<point x="225" y="-69" type="curve" smooth="yes"/>
			<point x="225" y="-39"/>
			<point x="271" y="-13"/>
			<point x="309" y="0" type="curve"/>
			<point x="224" y="0" type="line"/>
			<point x="168" y="-18"/>
			<point x="140" y="-59"/>
			<point x="140" y="-99" type="curve" smooth="yes"/>
			<point x="140" y="-148"/>
			<point x="180" y="-178"/>
		</contour>
	</outline>
</glyph>
<glyph name="tilde" format="2">
	<advance width="700"/>
	<unicode hex="02DC"/>
	<outline>
		<contour>
			<point x="252" y="580" type="line"/>
			<point x="252" y="620"/>
			<point x="270" y="637"/>
			<point x="290" y="637" type="curve" smooth="yes"/>
			<point x="340" y="637"/>
			<point x="340" y="580"/>
			<point x="430" y="580" type="curve" smooth="yes"/>
			<point x="500" y="580"/>
			<point x="560" y="632"/>
			<point x="560" y="732" type="curve"/>
			<point x="448" y="742" type="line"/>
			<point x="448" y="702"/>
			<point x="430" y="684"/>
			<point x="410" y="684" type="curve" smooth="yes"/>
			<point x="360" y="684"/>
			<point x="360" y="744"/>
			<point x="270" y="742" type="curve" smooth="yes"/>
			<point x="200" y="740"/>
			<point x="140" y="690"/>
			<point x="140" y="590" type="curve"/>
		</contour>
	</outline>
</glyph>
<glyph name="commaaccentcomb" format="2">
	<advance width="439"/>
	<unicode hex="0326"/>
	<outline>
		<contour>
			<point x="140" y="-287" type="line"/>
			<point x="240" y="-287"/>
			<point x="299" y="-250"/>
			<point x="299" y="-160" type="curve"/>
			<point x="229" y="-160" type="line"/>
			<point x="229" y="-200"/>
			<point x="200" y="-214"/>
			<point x="140" y="-214" type="curve"/>
		</contour>
		<contour>
			<point x="149" y="-160" type="line"/>
			<point x="299" y="-160" type="line"/>
			<point x="299" y="-60" type="line"/>
			<point x="149" y="-60" type="line"/>
		</contour>
	</outline>
</glyph>
<glyph name="Delta" format="2">
	<advance width="814"/>
	<unicode hex="0394"/>
	<outline>
		<contour>
			<point x="90" y="0" type="line"/>
			<point x="724" y="0" type="line"/>
			<point x="477" y="700" type="line"/>
			<point x="347" y="700" type="line"/>
		</contour>
		<contour>
			<point x="234" y="70" type="line"/>
			<point x="459" y="679" type="line"/>
			<point x="364" y="679" type="line"/>
			<point x="580" y="70" type="line"/>
			<point x="611" y="113" type="line"/>
			<point x="204" y="113" type="line"/>
		</contour>
	</outline>
</glyph>
<glyph name="Omega" format="2">
	<advance width="810"/>
	<unicode hex="03A9"/>
	<outline>
		<contour>
			<point x="30" y="0" type="line"/>
			<point x="350" y="0" type="line"/>
			<point x="350" y="104" type="line"/>
			<point x="225" y="183"/>
			<point x="190" y="294"/>
			<point x="190" y="394" type="curve" smooth="yes"/>
			<point x="190" y="514"/>
			<point x="265" y="623"/>
			<point x="405" y="623" type="curve" smooth="yes"/>
			<point x="545" y="623"/>
			<point x="620" y="514"/>
			<point x="620" y="394" type="curve" smooth="yes"/>
			<point x="620" y="294"/>
			<point x="586" y="183"/>
			<point x="460" y="104" type="curve"/>
			<point x="460" y="0" type="line"/>
			<point x="780" y="0" type="line"/>
			<point x="780" y="114" type="line"/>
			<point x="540" y="114" type="line"/>
			<point x="540" y="70" type="line"/>
			<point x="683" y="141"/>
			<point x="768" y="254"/>
			<point x="768" y="404" type="curve" smooth="yes"/>
			<point x="768" y="584"/>
			<point x="625" y="736"/>
			<point x="405" y="736" type="curve" smooth="yes"/>
			<point x="185" y="736"/>
			<point x="42" y="584"/>
			<point x="42" y="404" type="curve" smooth="yes"/>
			<point x="42" y="254"/>
			<point x="127" y="141"/>
			<point x="270" y="70" type="curve"/>
			<point x="270" y="114" type="line"/>
			<point x="30" y="114" type="line"/>
		</contour>
	</outline>
</glyph>
<glyph name="mu" format="2">
	<advance width="593"/>
	<unicode hex="03BC"/>
	<outline>
		<contour>
			<point x="221" y="-16" type="curve" smooth="yes"/>
			<point x="351" y="-16"/>
			<point x="409" y="87"/>
			<point x="409" y="207" type="curve"/>
			<point x="393" y="257" type="line"/>
			<point x="393" y="146"/>
			<point x="342" y="97"/>
			<point x="282" y="97" type="curve" smooth="yes"/>
			<point x="242" y="97"/>
			<point x="200" y="107"/>
			<point x="200" y="197" type="curve" smooth="yes"/>
			<point x="200" y="500" type="line"/>
			<point x="65" y="500" type="line"/>
			<point x="65" y="181" type="line" smooth="yes"/>
			<point x="65" y="41"/>
			<point x="131" y="-16"/>
		</contour>
		<contour>
			<point x="65" y="-200" type="line"/>
			<point x="200" y="-200" type="line"/>
			<point x="200" y="210" type="line"/>
			<point x="65" y="210" type="line"/>
		</contour>
		<contour>
			<point x="393" y="0" type="line"/>
			<point x="528" y="0" type="line"/>
			<point x="528" y="500" type="line"/>
			<point x="393" y="500" type="line"/>
		</contour>
	</outline>
</glyph>
<glyph name="pi" format="2">
	<advance width="740"/>
	<unicode hex="03C0"/>
	<outline>
		<contour>
			<point x="610" y="0" type="curve" smooth="yes"/>
			<point x="675" y="0" type="line"/>
			<point x="675" y="113" type="line"/>
			<point x="635" y="113" type="line" smooth="yes"/>
			<point x="595" y="113"/>
			<point x="575" y="133"/>
			<point x="575" y="173" type="curve" smooth="yes"/>
			<point x="575" y="500" type="line"/>
			<point x="440" y="500" type="line"/>
			<point x="440" y="160" type="line" smooth="yes"/>
			<point x="440" y="50"/>
			<point x="500" y="0"/>
		</contour>
		<contour>
			<point x="165" y="0" type="line"/>
			<point x="300" y="0" type="line"/>
			<point x="300" y="500" type="line"/>
			<point x="165" y="500" type="line"/>
		</contour>
		<contour>
			<point x="65" y="397" type="line"/>
			<point x="675" y="397" type="line"/>
			<point x="675" y="500" type="line"/>
			<point x="65" y="500" type="line"/>
		</contour>
	</outline>
</glyph>
<glyph name="Germandbls" format="2">
	<advance width="730"/>
	<unicode hex="1E9E"/>
	<outline>
		<contour>
			<point x="303" y="0" type="line"/>
			<point x="393" y="0" type="line" smooth="yes"/>
			<point x="563" y="0"/>
			<point x="675" y="72"/>
			<point x="675" y="212" type="curve" smooth="yes"/>
			<point x="675" y="352"/>
			<point x="563" y="407"/>
			<point x="393" y="407" type="curve"/>
			<point x="388" y="321" type="line"/>
			<point x="583" y="536" type="line" smooth="yes"/>
			<point x="650" y="610"/>
			<point x="615" y="700"/>
			<point x="525" y="700" type="curve" smooth="yes"/>
			<point x="105" y="700" type="line"/>
			<point x="105" y="587" type="line"/>
			<point x="475" y="587" type="line"/>
			<point x="313" y="406" type="line"/>
			<point x="313" y="306" type="line"/>
			<point x="393" y="306" type="line" smooth="yes"/>
			<point x="467" y="306"/>
			<point x="537" y="292"/>
			<point x="537" y="212" type="curve" smooth="yes"/>
			<point x="537" y="132"/>
			<point x="467" y="118"/>
			<point x="393" y="118" type="curve" smooth="yes"/>
			<point x="303" y="118" type="line"/>
		</contour>
		<contour>
			<point x="75" y="0" type="line"/>
			<point x="213" y="0" type="line"/>
			<point x="213" y="700" type="line"/>
			<point x="75" y="700" type="line"/>
		</contour>
	</outline>
</glyph>
<glyph name="dagger" format="2">
	<advance width="423"/>
	<unicode hex="2020"/>
	<outline>
		<contour>
			<point x="160" y="216" type="line"/>
			<point x="263" y="216" type="line"/>
			<point x="263" y="716" type="line"/>
			<point x="160" y="716" type="line"/>
		</contour>
		<contour>
			<point x="30" y="513" type="line"/>
			<point x="393" y="513" type="line"/>
			<point x="393" y="596" type="line"/>
			<point x="30" y="596" type="line"/>
		</contour>
	</outline>
</glyph>
<glyph name="daggerdbl" format="2">
	<advance width="423"/>
	<unicode hex="2021"/>
	<outline>
		<contour>
			<point x="160" y="216" type="line"/>
			<point x="263" y="216" type="line"/>
			<point x="263" y="716" type="line"/>
			<point x="160" y="716" type="line"/>
		</contour>
		<contour>
			<point x="30" y="326" type="line"/>
			<point x="393" y="326" type="line"/>
			<point x="393" y="409" type="line"/>
			<point x="30" y="409" type="line"/>
		</contour>
		<contour>
			<point x="30" y="523" type="line"/>
			<point x="393" y="523" type="line"/>
			<point x="393" y="606" type="line"/>
			<point x="30" y="606" type="line"/>
		</contour>
	</outline>
</glyph>
<glyph name="bullet" format="2">
	<advance width="390"/>
	<unicode hex="2022"/>
	<outline>
		<contour>
			<point x="195" y="225" type="curve" smooth="yes"/>
			<point x="263" y="225"/>
			<point x="320" y="282"/>
			<point x="320" y="350" type="curve" smooth="yes"/>
			<point x="320" y="418"/>
			<point x="263" y="475"/>
			<point x="195" y="475" type="curve" smooth="yes"/>
			<point x="127" y="475"/>
			<point x="70" y="418"/>
			<point x="70" y="350" type="curve" smooth="yes"/>
			<point x="70" y="282"/>
			<point x="127" y="225"/>
		</contour>
	</outline>
</glyph>
<glyph name="perthousand" format="2">
	<advance width="1164"/>
	<unicode hex="2030"/>
	<outline>
		<contour>
			<point x="83" y="0" type="line"/>
			<point x="211" y="0" type="line"/>
			<point x="724" y="716" type="line"/>
			<point x="596" y="716" type="line"/>
		</contour>
		<contour>
			<point x="200" y="374" type="curve" smooth="yes"/>
			<point x="294" y="374"/>
			<point x="370" y="450"/>
			<point x="370" y="544" type="curve" smooth="yes"/>
			<point x="370" y="638"/>
			<point x="294" y="714"/>
			<point x="200" y="714" type="curve" smooth="yes"/>
			<point x="106" y="714"/>
			<point x="30" y="638"/>
			<point x="30" y="544" type="curve" smooth="yes"/>
			<point x="30" y="450"/>
			<point x="106" y="374"/>
		</contour>
		<contour>
			<point x="200" y="467" type="curve" smooth="yes"/>
			<point x="157" y="467"/>
			<point x="123" y="501"/>
			<point x="123" y="544" type="curve" smooth="yes"/>
			<point x="123" y="587"/>
			<point x="157" y="621"/>
			<point x="200" y="621" type="curve" smooth="yes"/>
			<point x="243" y="621"/>
			<point x="277" y="587"/>
			<point x="277" y="544" type="curve" smooth="yes"/>
			<point x="277" y="501"/>
			<point x="243" y="467"/>
		</contour>
		<contour>
			<point x="594" y="-16" type="curve" smooth="yes"/>
			<point x="688" y="-16"/>
			<point x="764" y="60"/>
			<point x="764" y="154" type="curve" smooth="yes"/>
			<point x="764" y="248"/>
			<point x="688" y="324"/>
			<point x="594" y="324" type="curve" smooth="yes"/>
			<point x="500" y="324"/>
			<point x="424" y="248"/>
			<point x="424" y="154" type="curve" smooth="yes"/>
			<point x="424" y="60"/>
			<point x="500" y="-16"/>
		</contour>
		<contour>
			<point x="594" y="77" type="curve" smooth="yes"/>
			<point x="551" y="77"/>
			<point x="517" y="111"/>
			<point x="517" y="154" type="curve" smooth="yes"/>
			<point x="517" y="197"/>
			<point x="551" y="231"/>
			<point x="594" y="231" type="curve" smooth="yes"/>
			<point x="637" y="231"/>
			<point x="671" y="197"/>
			<point x="671" y="154" type="curve" smooth="yes"/>
			<point x="671" y="111"/>
			<point x="637" y="77"/>
		</contour>
		<contour>
			<point x="964" y="-16" type="curve" smooth="yes"/>
			<point x="1058" y="-16"/>
			<point x="1134" y="60"/>
			<point x="1134" y="154" type="curve" smooth="yes"/>
			<point x="1134" y="248"/>
			<point x="1058" y="324"/>
			<point x="964" y="324" type="curve" smooth="yes"/>
			<point x="870" y="324"/>
			<point x="794" y="248"/>
			<point x="794" y="154" type="curve" smooth="yes"/>
			<point x="794" y="60"/>
			<point x="870" y="-16"/>
		</contour>
		<contour>
			<point x="964" y="77" type="curve" smooth="yes"/>
			<point x="921" y="77"/>
			<point x="887" y="111"/>
			<point x="887" y="154" type="curve" smooth="yes"/>
			<point x="887" y="197"/>
			<point x="921" y="231"/>
			<point x="964" y="231" type="curve" smooth="yes"/>
			<point x="1007" y="231"/>
			<point x="1041" y="197"/>
			<point x="1041" y="154" type="curve" smooth="yes"/>
			<point x="1041" y="111"/>
			<point x="1007" y="77"/>
		</contour>
	</outline>
</glyph>
<glyph name="guilsinglleft" format="2">
	<advance width="318"/>
	<unicode hex="2039"/>
	<outline>
		<contour>
			<point x="155" y="70" type="line"/>
			<point x="288" y="70" type="line"/>
			<point x="145" y="309" type="line"/>
			<point x="145" y="231" type="line"/>
			<point x="288" y="470" type="line"/>
			<point x="155" y="470" type="line"/>
			<point x="35" y="270" type="line"/>
		</contour>
	</outline>
</glyph>
<glyph name="guilsinglright" format="2">
	<advance width="318"/>
	<unicode hex="203A"/>
	<outline>
		<contour>
			<point x="30" y="70" type="line"/>
			<point x="163" y="70" type="line"/>
			<point x="283" y="270" type="line"/>
			<point x="163" y="470" type="line"/>
			<point x="30" y="470" type="line"/>
			<point x="173" y="231" type="line"/>
			<point x="173" y="309" type="line"/>
		</contour>
	</outline>
</glyph>
<glyph name="fraction" format="2">
	<advance width="191"/>
	<unicode hex="2044"/>
	<outline>
		<contour>
			<point x="-180" y="0" type="line"/>
			<point x="-82" y="0" type="line"/>
			<point x="421" y="700" type="line"/>
			<point x="323" y="700" type="line"/>
		</contour>
	</outline>
</glyph>
<glyph name="won" format="2">
	<advance width="936"/>
	<unicode hex="20A9"/>
	<outline>
		<contour>
			<point x="177" y="0" type="line"/>
			<point x="346" y="0" type="line"/>
			<point x="483" y="587" type="line"/>
			<point x="453" y="587" type="line"/>
			<point x="590" y="0" type="line"/>
			<point x="759" y="0" type="line"/>
			<point x="911" y="700" type="line"/>
			<point x="793" y="700" type="line"/>
			<point x="650" y="38" type="line"/>
			<point x="681" y="38" type="line"/>
			<point x="528" y="700" type="line"/>
			<point x="408" y="700" type="line"/>
			<point x="255" y="38" type="line"/>
			<point x="286" y="38" type="line"/>
			<point x="143" y="700" type="line"/>
			<point x="25" y="700" type="line"/>
		</contour>
		<contour>
			<point x="25" y="204" type="line"/>
			<point x="911" y="204" type="line"/>
			<point x="911" y="277" type="line"/>
			<point x="25" y="277" type="line"/>
		</contour>
		<contour>
			<point x="25" y="367" type="line"/>
			<point x="911" y="367" type="line"/>
			<point x="911" y="440" type="line"/>
			<point x="25" y="440" type="line"/>
		</contour>
	</outline>
</glyph>
<glyph name="euro" format="2">
	<advance width="834"/>
	<unicode hex="20AC"/>
	<outline>
		<contour>
			<point x="462" y="-16" type="curve" smooth="yes"/>
			<point x="652" y="-16"/>
			<point x="775" y="124"/>
			<point x="779" y="273" type="curve"/>
			<point x="641" y="283" type="line"/>
			<point x="636" y="194"/>
			<point x="592" y="97"/>
			<point x="462" y="97" type="curve" smooth="yes"/>
			<point x="331" y="97"/>
			<point x="248" y="194"/>
			<point x="248" y="350" type="curve" smooth="yes"/>
			<point x="248" y="506"/>
			<point x="330" y="602"/>
			<point x="462" y="602" type="curve" smooth="yes"/>
			<point x="592" y="602"/>
			<point x="636" y="501"/>
			<point x="641" y="412" type="curve"/>
			<point x="779" y="422" type="line"/>
			<point x="775" y="572"/>
			<point x="652" y="716"/>
			<point x="462" y="716" type="curve" smooth="yes"/>
			<point x="274" y="716"/>
			<point x="110" y="590"/>
			<point x="110" y="350" type="curve" smooth="yes"/>
			<point x="110" y="110"/>
			<point x="274" y="-16"/>
		</contour>
		<contour>
			<point x="40" y="239" type="line"/>
			<point x="489" y="239" type="line"/>
			<point x="489" y="312" type="line"/>
			<point x="40" y="312" type="line"/>
		</contour>
		<contour>
			<point x="40" y="382" type="line"/>
			<point x="489" y="382" type="line"/>
			<point x="489" y="455" type="line"/>
			<point x="40" y="455" type="line"/>
		</contour>
	</outline>
</glyph>
<glyph name="rupeeIndian" format="2">
	<advance width="636"/>
	<unicode hex="20B9"/>
	<outline>
		<contour>
			<point x="292" y="0" type="line"/>
			<point x="448" y="0" type="line"/>
			<point x="193" y="355" type="line"/>
			<point x="96" y="289" type="line"/>
			<point x="235" y="289" type="line" smooth="yes"/>
			<point x="299" y="289"/>
			<point x="501" y="314"/>
			<point x="501" y="504" type="curve" smooth="yes"/>
			<point x="501" y="696"/>
			<point x="299" y="700"/>
			<point x="235" y="700" type="curve" smooth="yes"/>
			<point x="70" y="700" type="line"/>
			<point x="70" y="587" type="line"/>
			<point x="215" y="587" type="line" smooth="yes"/>
			<point x="313" y="587"/>
			<point x="353" y="576"/>
			<point x="353" y="494" type="curve" smooth="yes"/>
			<point x="353" y="412"/>
			<point x="313" y="382"/>
			<point x="215" y="382" type="curve" smooth="yes"/>
			<point x="70" y="382" type="line"/>
			<point x="70" y="307" type="line"/>
		</contour>
		<contour>
			<point x="70" y="457" type="line"/>
			<point x="586" y="457" type="line"/>
			<point x="586" y="530" type="line"/>
			<point x="70" y="530" type="line"/>
		</contour>
		<contour>
			<point x="105" y="587" type="line"/>
			<point x="586" y="587" type="line"/>
			<point x="586" y="700" type="line"/>
			<point x="105" y="700" type="line"/>
		</contour>
	</outline>
</glyph>
<glyph name="liraTurkish" format="2">
	<advance width="696"/>
	<unicode hex="20BA"/>
	<outline>
		<contour>
			<point x="132" y="0" type="line"/>
			<point x="400" y="0" type="line" smooth="yes"/>
			<point x="560" y="0"/>
			<point x="666" y="126"/>
			<point x="666" y="266" type="curve"/>
			<point x="522" y="276" type="line"/>
			<point x="522" y="176"/>
			<point x="480" y="113"/>
			<point x="400" y="113" type="curve" smooth="yes"/>
			<point x="270" y="113" type="line"/>
			<point x="270" y="700" type="line"/>
			<point x="132" y="700" type="line"/>
		</contour>
		<contour>
			<point x="50" y="234" type="line"/>
			<point x="489" y="354" type="line"/>
			<point x="489" y="427" type="line"/>
			<point x="50" y="307" type="line"/>
		</contour>
		<contour>
			<point x="50" y="377" type="line"/>
			<point x="489" y="497" type="line"/>
			<point x="489" y="570" type="line"/>
			<point x="50" y="450" type="line"/>
		</contour>
	</outline>
</glyph>
<glyph name="literSign" format="2">
	<advance width="682"/>
	<unicode hex="2113"/>
	<outline>
		<contour>
			<point x="341" y="-16" type="curve" smooth="yes"/>
			<point x="471" y="-16"/>
			<point x="536" y="79"/>
			<point x="536" y="159" type="curve"/>
			<point x="418" y="174" type="line"/>
			<point x="418" y="124"/>
			<point x="381" y="101"/>
			<point x="341" y="101" type="curve" smooth="yes"/>
			<point x="241" y="101"/>
			<point x="242" y="278"/>
			<point x="269" y="415" type="curve" smooth="yes"/>
			<point x="295" y="542"/>
			<point x="356" y="598"/>
			<point x="416" y="598" type="curve" smooth="yes"/>
			<point x="476" y="598"/>
			<point x="491" y="538"/>
			<point x="460" y="464" type="curve" smooth="yes"/>
			<point x="405" y="335"/>
			<point x="270" y="260"/>
			<point x="50" y="260" type="curve"/>
			<point x="50" y="142" type="line"/>
			<point x="320" y="142"/>
			<point x="496" y="263"/>
			<point x="562" y="420" type="curve" smooth="yes"/>
			<point x="628" y="577"/>
			<point x="586" y="716"/>
			<point x="426" y="716" type="curve" smooth="yes"/>
			<point x="306" y="716"/>
			<point x="191" y="619"/>
			<point x="151" y="423" type="curve" smooth="yes"/>
			<point x="124" y="286"/>
			<point x="111" y="-16"/>
		</contour>
	</outline>
</glyph>
<glyph name="numero" format="2">
	<advance width="1259"/>
	<unicode hex="2116"/>
	<outline>
		<contour>
			<point x="964" y="178" type="curve" smooth="yes"/>
			<point x="1087" y="178"/>
			<point x="1184" y="275"/>
			<point x="1184" y="398" type="curve" smooth="yes"/>
			<point x="1184" y="521"/>
			<point x="1087" y="618"/>
			<point x="964" y="618" type="curve" smooth="yes"/>
			<point x="842" y="618"/>
			<point x="744" y="521"/>
			<point x="744" y="398" type="curve" smooth="yes"/>
			<point x="744" y="275"/>
			<point x="842" y="178"/>
		</contour>
		<component base="N"/>
		<contour>
			<point x="777" y="0" type="line"/>
			<point x="1152" y="0" type="line"/>
			<point x="1152" y="113" type="line"/>
			<point x="777" y="113" type="line"/>
		</contour>
		<contour>
			<point x="964" y="291" type="curve" smooth="yes"/>
			<point x="902" y="291"/>
			<point x="857" y="336"/>
			<point x="857" y="398" type="curve" smooth="yes"/>
			<point x="857" y="461"/>
			<point x="902" y="505"/>
			<point x="964" y="505" type="curve" smooth="yes"/>
			<point x="1028" y="505"/>
			<point x="1071" y="461"/>
			<point x="1071" y="398" type="curve" smooth="yes"/>
			<point x="1071" y="336"/>
			<point x="1028" y="291"/>
		</contour>
	</outline>
</glyph>
<glyph name="published" format="2">
	<advance width="510"/>
	<unicode hex="2117"/>
	<outline>
		<contour>
			<point x="255" y="286" type="curve" smooth="yes"/>
			<point x="375" y="286"/>
			<point x="470" y="381"/>
			<point x="470" y="501" type="curve" smooth="yes"/>
			<point x="470" y="621"/>
			<point x="375" y="716"/>
			<point x="255" y="716" type="curve" smooth="yes"/>
			<point x="136" y="716"/>
			<point x="40" y="621"/>
			<point x="40" y="501" type="curve" smooth="yes"/>
			<point x="40" y="381"/>
			<point x="136" y="286"/>
		</contour>
		<contour>
			<point x="191" y="393" type="line"/>
			<point x="242" y="393" type="line"/>
			<point x="242" y="611" type="line"/>
			<point x="191" y="611" type="line"/>
		</contour>
		<contour>
			<point x="255" y="327" type="curve" smooth="yes"/>
			<point x="157" y="327"/>
			<point x="81" y="403"/>
			<point x="81" y="501" type="curve" smooth="yes"/>
			<point x="81" y="600"/>
			<point x="157" y="675"/>
			<point x="255" y="675" type="curve" smooth="yes"/>
			<point x="355" y="675"/>
			<point x="429" y="600"/>
			<point x="429" y="501" type="curve" smooth="yes"/>
			<point x="429" y="403"/>
			<point x="355" y="327"/>
		</contour>
		<contour>
			<point x="201" y="471" type="line"/>
			<point x="268" y="471" type="line" smooth="yes"/>
			<point x="318" y="471"/>
			<point x="354" y="496"/>
			<point x="354" y="541" type="curve" smooth="yes"/>
			<point x="354" y="586"/>
			<point x="318" y="611"/>
			<point x="268" y="611" type="curve" smooth="yes"/>
			<point x="201" y="611" type="line"/>
			<point x="201" y="567" type="line"/>
			<point x="268" y="567" type="line" smooth="yes"/>
			<point x="291" y="567"/>
			<point x="303" y="562"/>
			<point x="303" y="541" type="curve" smooth="yes"/>
			<point x="303" y="520"/>
			<point x="291" y="515"/>
			<point x="268" y="515" type="curve" smooth="yes"/>
			<point x="201" y="515" type="line"/>
		</contour>
	</outline>
</glyph>
<glyph name="trademark" format="2">
	<advance width="796"/>
	<unicode hex="2122"/>
	<outline>
		<contour>
			<point x="369" y="336" type="line"/>
			<point x="442" y="336" type="line"/>
			<point x="442" y="620" type="line"/>
			<point x="411" y="613" type="line"/>
			<point x="514" y="336" type="line"/>
			<point x="581" y="336" type="line"/>
			<point x="684" y="613" type="line"/>
			<point x="653" y="620" type="line"/>
			<point x="653" y="336" type="line"/>
			<point x="726" y="336" type="line"/>
			<point x="726" y="700" type="line"/>
			<point x="645" y="700" type="line"/>
			<point x="523" y="373" type="line"/>
			<point x="573" y="373" type="line"/>
			<point x="450" y="700" type="line"/>
			<point x="369" y="700" type="line"/>
		</contour>
		<contour>
			<point x="118" y="336" type="line"/>
			<point x="191" y="336" type="line"/>
			<point x="191" y="665" type="line"/>
			<point x="118" y="665" type="line"/>
		</contour>
		<contour>
			<point x="0" y="632" type="line"/>
			<point x="309" y="632" type="line"/>
			<point x="309" y="700" type="line"/>
			<point x="0" y="700" type="line"/>
		</contour>
	</outline>
</glyph>
<glyph name="estimated" format="2">
	<advance width="674"/>
	<unicode hex="212E"/>
	<outline>
		<contour>
			<point x="337" y="-16" type="curve" smooth="yes"/>
			<point x="434" y="-16"/>
			<point x="528" y="45"/>
			<point x="572" y="134" type="curve"/>
			<point x="533" y="134" type="line"/>
			<point x="493" y="65"/>
			<point x="415" y="19"/>
			<point x="337" y="19" type="curve" smooth="yes"/>
			<point x="214" y="19"/>
			<point x="115" y="133"/>
			<point x="115" y="274" type="curve" smooth="yes"/>
			<point x="115" y="415"/>
			<point x="214" y="529"/>
			<point x="337" y="529" type="curve" smooth="yes"/>
			<point x="460" y="529"/>
			<point x="559" y="415"/>
			<point x="559" y="274" type="curve"/>
			<point x="594" y="274" type="line"/>
			<point x="594" y="434"/>
			<point x="479" y="564"/>
			<point x="337" y="564" type="curve" smooth="yes"/>
			<point x="195" y="564"/>
			<point x="80" y="434"/>
			<point x="80" y="274" type="curve" smooth="yes"/>
			<point x="80" y="114"/>
			<point x="195" y="-16"/>
		</contour>
		<contour>
			<point x="180" y="59" type="line"/>
			<point x="180" y="489" type="line"/>
			<point x="100" y="351" type="line"/>
			<point x="100" y="198" type="line"/>
		</contour>
		<contour>
			<point x="100" y="274" type="line"/>
			<point x="573" y="274" type="line"/>
			<point x="573" y="309" type="line"/>
			<point x="100" y="309" type="line"/>
		</contour>
		<contour>
			<point x="492" y="296" type="line"/>
			<point x="577" y="303" type="line"/>
			<point x="540" y="405" type="line"/>
			<point x="492" y="498" type="line"/>
		</contour>
	</outline>
</glyph>
<glyph name="leftArrow" format="2">
	<advance width="893"/>
	<unicode hex="2190"/>
	<outline>
		<contour>
			<point x="274" y="28" type="curve"/>
			<point x="412" y="28" type="line"/>
			<point x="412" y="188"/>
			<point x="322" y="266"/>
			<point x="162" y="266" type="curve"/>
			<point x="162" y="340" type="line"/>
			<point x="322" y="340"/>
			<point x="412" y="418"/>
			<point x="412" y="578" type="curve"/>
			<point x="274" y="578" type="line"/>
			<point x="274" y="358"/>
			<point x="140" y="369"/>
			<point x="80" y="369" type="curve"/>
			<point x="80" y="237" type="line"/>
			<point x="140" y="237"/>
			<point x="274" y="248"/>
		</contour>
		<contour>
			<point x="112" y="250" type="line"/>
			<point x="813" y="250" type="line"/>
			<point x="813" y="356" type="line"/>
			<point x="112" y="356" type="line"/>
		</contour>
	</outline>
</glyph>
<glyph name="upArrow" format="2">
	<advance width="710"/>
	<unicode hex="2191"/>
	<outline>
		<contour>
			<point x="80" y="317" type="line"/>
			<point x="240" y="317"/>
			<point x="318" y="407"/>
			<point x="318" y="567" type="curve"/>
			<point x="392" y="567" type="line"/>
			<point x="392" y="407"/>
			<point x="470" y="317"/>
			<point x="630" y="317" type="curve"/>
			<point x="630" y="455" type="line"/>
			<point x="410" y="455"/>
			<point x="421" y="589"/>
			<point x="421" y="649" type="curve"/>
			<point x="289" y="649" type="line"/>
			<point x="289" y="589"/>
			<point x="300" y="455"/>
			<point x="80" y="455" type="curve"/>
		</contour>
		<contour>
			<point x="302" y="-34" type="line"/>
			<point x="408" y="-34" type="line"/>
			<point x="408" y="617" type="line"/>
			<point x="302" y="617" type="line"/>
		</contour>
	</outline>
</glyph>
<glyph name="rightArrow" format="2">
	<advance width="893"/>
	<unicode hex="2192"/>
	<outline>
		<contour>
			<point x="481" y="28" type="curve"/>
			<point x="619" y="28" type="line"/>
			<point x="619" y="248"/>
			<point x="753" y="237"/>
			<point x="813" y="237" type="curve"/>
			<point x="813" y="369" type="line"/>
			<point x="753" y="369"/>
			<point x="619" y="358"/>
			<point x="619" y="578" type="curve"/>
			<point x="481" y="578" type="line"/>
			<point x="481" y="418"/>
			<point x="571" y="340"/>
			<point x="731" y="340" type="curve"/>
			<point x="731" y="266" type="line"/>
			<point x="571" y="266"/>
			<point x="481" y="188"/>
		</contour>
		<contour>
			<point x="80" y="250" type="line"/>
			<point x="781" y="250" type="line"/>
			<point x="781" y="356" type="line"/>
			<point x="80" y="356" type="line"/>
		</contour>
	</outline>
</glyph>
<glyph name="downArrow" format="2">
	<advance width="710"/>
	<unicode hex="2193"/>
	<outline>
		<contour>
			<point x="289" y="-44" type="curve"/>
			<point x="421" y="-44" type="line"/>
			<point x="421" y="16"/>
			<point x="410" y="150"/>
			<point x="630" y="150" type="curve"/>
			<point x="630" y="288" type="line"/>
			<point x="470" y="288"/>
			<point x="392" y="198"/>
			<point x="392" y="38" type="curve"/>
			<point x="318" y="38" type="line"/>
			<point x="318" y="198"/>
			<point x="240" y="288"/>
			<point x="80" y="288" type="curve"/>
			<point x="80" y="150" type="line"/>
			<point x="300" y="150"/>
			<point x="289" y="16"/>
		</contour>
		<contour>
			<point x="302" y="-12" type="line"/>
			<point x="408" y="-12" type="line"/>
			<point x="408" y="639" type="line"/>
			<point x="302" y="639" type="line"/>
		</contour>
	</outline>
</glyph>
<glyph name="leftRightArrow" format="2">
	<advance width="1025"/>
	<unicode hex="2194"/>
	<outline>
		<contour>
			<point x="613" y="28" type="curve"/>
			<point x="751" y="28" type="line"/>
			<point x="751" y="248"/>
			<point x="885" y="237"/>
			<point x="945" y="237" type="curve"/>
			<point x="945" y="369" type="line"/>
			<point x="885" y="369"/>
			<point x="751" y="358"/>
			<point x="751" y="578" type="curve"/>
			<point x="613" y="578" type="line"/>
			<point x="613" y="418"/>
			<point x="703" y="340"/>
			<point x="863" y="340" type="curve"/>
			<point x="863" y="266" type="line"/>
			<point x="703" y="266"/>
			<point x="613" y="188"/>
		</contour>
		<contour>
			<point x="274" y="28" type="curve"/>
			<point x="412" y="28" type="line"/>
			<point x="412" y="188"/>
			<point x="322" y="266"/>
			<point x="162" y="266" type="curve"/>
			<point x="162" y="340" type="line"/>
			<point x="322" y="340"/>
			<point x="412" y="418"/>
			<point x="412" y="578" type="curve"/>
			<point x="274" y="578" type="line"/>
			<point x="274" y="358"/>
			<point x="140" y="369"/>
			<point x="80" y="369" type="curve"/>
			<point x="80" y="237" type="line"/>
			<point x="140" y="237"/>
			<point x="274" y="248"/>
		</contour>
		<contour>
			<point x="112" y="250" type="line"/>
			<point x="913" y="250" type="line"/>
			<point x="913" y="356" type="line"/>
			<point x="112" y="356" type="line"/>
		</contour>
	</outline>
</glyph>
<glyph name="upDownArrow" format="2">
	<advance width="710"/>
	<unicode hex="2195"/>
	<outline>
		<contour>
			<point x="80" y="362" type="line"/>
			<point x="240" y="362"/>
			<point x="318" y="452"/>
			<point x="318" y="612" type="curve"/>
			<point x="392" y="612" type="line"/>
			<point x="392" y="452"/>
			<point x="470" y="362"/>
			<point x="630" y="362" type="curve"/>
			<point x="630" y="500" type="line"/>
			<point x="410" y="500"/>
			<point x="421" y="634"/>
			<point x="421" y="694" type="curve"/>
			<point x="289" y="694" type="line"/>
			<point x="289" y="634"/>
			<point x="300" y="500"/>
			<point x="80" y="500" type="curve"/>
		</contour>
		<contour>
			<point x="289" y="-81" type="curve"/>
			<point x="421" y="-81" type="line"/>
			<point x="421" y="-21"/>
			<point x="410" y="113"/>
			<point x="630" y="113" type="curve"/>
			<point x="630" y="251" type="line"/>
			<point x="470" y="251"/>
			<point x="392" y="161"/>
			<point x="392" y="1" type="curve"/>
			<point x="318" y="1" type="line"/>
			<point x="318" y="161"/>
			<point x="240" y="251"/>
			<point x="80" y="251" type="curve"/>
			<point x="80" y="113" type="line"/>
			<point x="300" y="113"/>
			<point x="289" y="-21"/>
		</contour>
		<contour>
			<point x="302" y="-34" type="line"/>
			<point x="408" y="-34" type="line"/>
			<point x="408" y="637" type="line"/>
			<point x="302" y="637" type="line"/>
		</contour>
	</outline>
</glyph>
<glyph name="northWestArrow" format="2">
	<advance width="737"/>
	<unicode hex="2196"/>
	<outline>
		<contour>
			<point x="582" y="28" type="line"/>
			<point x="657" y="103" type="line"/>
			<point x="197" y="563" type="line"/>
			<point x="122" y="488" type="line"/>
		</contour>
		<contour>
			<point x="177" y="119" type="line"/>
			<point x="290" y="232"/>
			<point x="282" y="351"/>
			<point x="169" y="464" type="curve"/>
			<point x="221" y="516" type="line"/>
			<point x="334" y="403"/>
			<point x="453" y="395"/>
			<point x="566" y="508" type="curve"/>
			<point x="468" y="605" type="line"/>
			<point x="313" y="450"/>
			<point x="226" y="552"/>
			<point x="183" y="595" type="curve"/>
			<point x="90" y="501" type="line"/>
			<point x="133" y="459"/>
			<point x="235" y="372"/>
			<point x="80" y="216" type="curve"/>
		</contour>
	</outline>
</glyph>
<glyph name="northEastArrow" format="2">
	<advance width="737"/>
	<unicode hex="2197"/>
	<outline>
		<contour>
			<point x="155" y="28" type="line"/>
			<point x="615" y="488" type="line"/>
			<point x="540" y="563" type="line"/>
			<point x="80" y="103" type="line"/>
		</contour>
		<contour>
			<point x="560" y="119" type="curve"/>
			<point x="657" y="216" type="line"/>
			<point x="502" y="372"/>
			<point x="604" y="459"/>
			<point x="647" y="501" type="curve"/>
			<point x="554" y="595" type="line"/>
			<point x="511" y="552"/>
			<point x="424" y="450"/>
			<point x="269" y="605" type="curve"/>
			<point x="171" y="508" type="line"/>
			<point x="284" y="395"/>
			<point x="403" y="403"/>
			<point x="516" y="516" type="curve"/>
			<point x="568" y="464" type="line"/>
			<point x="455" y="351"/>
			<point x="447" y="232"/>
		</contour>
	</outline>
</glyph>
<glyph name="southEastArrow" format="2">
	<advance width="737"/>
	<unicode hex="2198"/>
	<outline>
		<contour>
			<point x="540" y="57" type="line"/>
			<point x="615" y="132" type="line"/>
			<point x="155" y="592" type="line"/>
			<point x="80" y="517" type="line"/>
		</contour>
		<contour>
			<point x="269" y="15" type="line"/>
			<point x="424" y="170"/>
			<point x="511" y="68"/>
			<point x="554" y="25" type="curve"/>
			<point x="647" y="119" type="line"/>
			<point x="604" y="161"/>
			<point x="502" y="248"/>
			<point x="657" y="404" type="curve"/>
			<point x="560" y="501" type="line"/>
			<point x="447" y="388"/>
			<point x="455" y="269"/>
			<point x="568" y="156" type="curve"/>
			<point x="516" y="104" type="line"/>
			<point x="403" y="217"/>
			<point x="284" y="225"/>
			<point x="171" y="112" type="curve"/>
		</contour>
	</outline>
</glyph>
<glyph name="southWestArrow" format="2">
	<advance width="737"/>
	<unicode hex="2199"/>
	<outline>
		<contour>
			<point x="197" y="57" type="line"/>
			<point x="657" y="517" type="line"/>
			<point x="582" y="592" type="line"/>
			<point x="122" y="132" type="line"/>
		</contour>
		<contour>
			<point x="468" y="15" type="curve"/>
			<point x="566" y="112" type="line"/>
			<point x="453" y="225"/>
			<point x="334" y="217"/>
			<point x="221" y="104" type="curve"/>
			<point x="169" y="156" type="line"/>
			<point x="282" y="269"/>
			<point x="290" y="388"/>
			<point x="177" y="501" type="curve"/>
			<point x="80" y="404" type="line"/>
			<point x="235" y="248"/>
			<point x="133" y="161"/>
			<point x="90" y="119" type="curve"/>
			<point x="183" y="25" type="line"/>
			<point x="226" y="68"/>
			<point x="313" y="170"/>
		</contour>
	</outline>
</glyph>
<glyph name="leftHookArrow" format="2">
	<advance width="1072"/>
	<unicode hex="21A9"/>
	<outline>
		<contour>
			<point x="110" y="250" type="line"/>
			<point x="751" y="250" type="line" smooth="yes"/>
			<point x="885" y="250"/>
			<point x="992" y="357"/>
			<point x="992" y="490" type="curve" smooth="yes"/>
			<point x="992" y="623"/>
			<point x="885" y="730"/>
			<point x="751" y="730" type="curve" smooth="yes"/>
			<point x="561" y="730" type="line"/>
			<point x="561" y="624" type="line"/>
			<point x="751" y="624" type="line" smooth="yes"/>
			<point x="829" y="624"/>
			<point x="886" y="567"/>
			<point x="886" y="490" type="curve" smooth="yes"/>
			<point x="886" y="413"/>
			<point x="829" y="356"/>
			<point x="751" y="356" type="curve" smooth="yes"/>
			<point x="110" y="356" type="line"/>
		</contour>
		<contour>
			<point x="274" y="28" type="curve"/>
			<point x="412" y="28" type="line"/>
			<point x="412" y="188"/>
			<point x="322" y="266"/>
			<point x="162" y="266" type="curve"/>
			<point x="162" y="340" type="line"/>
			<point x="322" y="340"/>
			<point x="412" y="418"/>
			<point x="412" y="578" type="curve"/>
			<point x="274" y="578" type="line"/>
			<point x="274" y="358"/>
			<point x="140" y="369"/>
			<point x="80" y="369" type="curve"/>
			<point x="80" y="237" type="line"/>
			<point x="140" y="237"/>
			<point x="274" y="248"/>
		</contour>
	</outline>
</glyph>
<glyph name="rightHookArrow" format="2">
	<advance width="1072"/>
	<unicode hex="21AA"/>
	<outline>
		<contour>
			<point x="321" y="250" type="curve" smooth="yes"/>
			<point x="962" y="250" type="line"/>
			<point x="962" y="356" type="line"/>
			<point x="321" y="356" type="line" smooth="yes"/>
			<point x="243" y="356"/>
			<point x="186" y="413"/>
			<point x="186" y="490" type="curve" smooth="yes"/>
			<point x="186" y="567"/>
			<point x="243" y="624"/>
			<point x="321" y="624" type="curve" smooth="yes"/>
			<point x="511" y="624" type="line"/>
			<point x="511" y="730" type="line"/>
			<point x="321" y="730" type="line" smooth="yes"/>
			<point x="187" y="730"/>
			<point x="80" y="623"/>
			<point x="80" y="490" type="curve" smooth="yes"/>
			<point x="80" y="357"/>
			<point x="187" y="250"/>
		</contour>
		<contour>
			<point x="660" y="28" type="curve"/>
			<point x="798" y="28" type="line"/>
			<point x="798" y="248"/>
			<point x="932" y="237"/>
			<point x="992" y="237" type="curve"/>
			<point x="992" y="369" type="line"/>
			<point x="932" y="369"/>
			<point x="798" y="358"/>
			<point x="798" y="578" type="curve"/>
			<point x="660" y="578" type="line"/>
			<point x="660" y="418"/>
			<point x="750" y="340"/>
			<point x="910" y="340" type="curve"/>
			<point x="910" y="266" type="line"/>
			<point x="750" y="266"/>
			<point x="660" y="188"/>
		</contour>
	</outline>
</glyph>
<glyph name="upTipRightArrow" format="2">
	<advance width="803"/>
	<unicode hex="21B1"/>
	<outline>
		<contour>
			<point x="391" y="28" type="curve"/>
			<point x="529" y="28" type="line"/>
			<point x="529" y="248"/>
			<point x="663" y="237"/>
			<point x="723" y="237" type="curve"/>
			<point x="723" y="369" type="line"/>
			<point x="663" y="369"/>
			<point x="529" y="358"/>
			<point x="529" y="578" type="curve"/>
			<point x="391" y="578" type="line"/>
			<point x="391" y="418"/>
			<point x="481" y="340"/>
			<point x="641" y="340" type="curve"/>
			<point x="641" y="266" type="line"/>
			<point x="481" y="266"/>
			<point x="391" y="188"/>
		</contour>
		<contour>
			<point x="80" y="-94" type="line"/>
			<point x="186" y="-94" type="line"/>
			<point x="186" y="270" type="line"/>
			<point x="80" y="270" type="line"/>
		</contour>
		<contour>
			<point x="80" y="250" type="line"/>
			<point x="691" y="250" type="line"/>
			<point x="691" y="356" type="line"/>
			<point x="80" y="356" type="line"/>
		</contour>
	</outline>
</glyph>
<glyph name="downTipLeftArrow" format="2">
	<advance width="803"/>
	<unicode hex="21B2"/>
	<outline>
		<contour>
			<point x="274" y="28" type="curve"/>
			<point x="412" y="28" type="line"/>
			<point x="412" y="188"/>
			<point x="322" y="266"/>
			<point x="162" y="266" type="curve"/>
			<point x="162" y="340" type="line"/>
			<point x="322" y="340"/>
			<point x="412" y="418"/>
			<point x="412" y="578" type="curve"/>
			<point x="274" y="578" type="line"/>
			<point x="274" y="358"/>
			<point x="140" y="369"/>
			<point x="80" y="369" type="curve"/>
			<point x="80" y="237" type="line"/>
			<point x="140" y="237"/>
			<point x="274" y="248"/>
		</contour>
		<contour>
			<point x="112" y="250" type="line"/>
			<point x="723" y="250" type="line"/>
			<point x="723" y="356" type="line"/>
			<point x="112" y="356" type="line"/>
		</contour>
		<contour>
			<point x="617" y="336" type="line"/>
			<point x="723" y="336" type="line"/>
			<point x="723" y="700" type="line"/>
			<point x="617" y="700" type="line"/>
		</contour>
	</outline>
</glyph>
<glyph name="partialdiff" format="2">
	<advance width="706"/>
	<unicode hex="2202"/>
	<outline>
		<contour>
			<point x="356" y="-16" type="curve" smooth="yes"/>
			<point x="506" y="-15"/>
			<point x="616" y="80"/>
			<point x="616" y="280" type="curve" smooth="yes"/>
			<point x="616" y="551"/>
			<point x="443" y="715"/>
			<point x="283" y="715" type="curve"/>
			<point x="283" y="605" type="line"/>
			<point x="402" y="605"/>
			<point x="492" y="477"/>
			<point x="502" y="359" type="curve"/>
			<point x="513" y="367" type="line"/>
			<point x="484" y="425"/>
			<point x="434" y="465"/>
			<point x="356" y="465" type="curve" smooth="yes"/>
			<point x="201" y="465"/>
			<point x="90" y="366"/>
			<point x="90" y="224" type="curve" smooth="yes"/>
			<point x="90" y="77"/>
			<point x="206" y="-17"/>
		</contour>
		<contour>
			<point x="356" y="97" type="curve" smooth="yes"/>
			<point x="284" y="97"/>
			<point x="238" y="148"/>
			<point x="238" y="226" type="curve" smooth="yes"/>
			<point x="238" y="304"/>
			<point x="283" y="352"/>
			<point x="356" y="352" type="curve" smooth="yes"/>
			<point x="429" y="352"/>
			<point x="477" y="304"/>
			<point x="477" y="226" type="curve" smooth="yes"/>
			<point x="477" y="148"/>
			<point x="429" y="97"/>
		</contour>
	</outline>
</glyph>
<glyph name="emptyset" format="2">
	<advance width="912"/>
	<unicode hex="2205"/>
	<outline>
		<contour>
			<point x="178" y="0" type="line"/>
			<point x="780" y="654" type="line"/>
			<point x="734" y="700" type="line"/>
			<point x="132" y="46" type="line"/>
		</contour>
		<contour>
			<point x="456" y="-16" type="curve" smooth="yes"/>
			<point x="658" y="-16"/>
			<point x="822" y="148"/>
			<point x="822" y="350" type="curve" smooth="yes"/>
			<point x="822" y="552"/>
			<point x="658" y="716"/>
			<point x="456" y="716" type="curve" smooth="yes"/>
			<point x="254" y="716"/>
			<point x="90" y="552"/>
			<point x="90" y="350" type="curve" smooth="yes"/>
			<point x="90" y="148"/>
			<point x="254" y="-16"/>
		</contour>
		<contour>
			<point x="456" y="76" type="curve" smooth="yes"/>
			<point x="304" y="76"/>
			<point x="182" y="198"/>
			<point x="182" y="350" type="curve" smooth="yes"/>
			<point x="182" y="501"/>
			<point x="304" y="623"/>
			<point x="456" y="623" type="curve" smooth="yes"/>
			<point x="607" y="623"/>
			<point x="729" y="501"/>
			<point x="729" y="350" type="curve" smooth="yes"/>
			<point x="729" y="198"/>
			<point x="607" y="76"/>
		</contour>
	</outline>
</glyph>
<glyph name="product" format="2">
	<advance width="726"/>
	<unicode hex="220F"/>
	<outline>
		<contour>
			<point x="518" y="-216" type="line"/>
			<point x="636" y="-216" type="line"/>
			<point x="636" y="700" type="line"/>
			<point x="518" y="700" type="line"/>
		</contour>
		<contour>
			<point x="90" y="-216" type="line"/>
			<point x="208" y="-216" type="line"/>
			<point x="208" y="700" type="line"/>
			<point x="90" y="700" type="line"/>
		</contour>
		<contour>
			<point x="90" y="587" type="line"/>
			<point x="636" y="587" type="line"/>
			<point x="636" y="700" type="line"/>
			<point x="90" y="700" type="line"/>
		</contour>
	</outline>
</glyph>
<glyph name="summation" format="2">
	<advance width="702"/>
	<unicode hex="2211"/>
	<outline>
		<contour>
			<point x="90" y="-216" type="line"/>
			<point x="612" y="-216" type="line"/>
			<point x="612" y="-103" type="line"/>
			<point x="167" y="-103" type="line"/>
			<point x="167" y="-199" type="line"/>
			<point x="489" y="242" type="line"/>
			<point x="167" y="683" type="line"/>
			<point x="167" y="587" type="line"/>
			<point x="612" y="587" type="line"/>
			<point x="612" y="700" type="line"/>
			<point x="90" y="700" type="line"/>
			<point x="90" y="601" type="line"/>
			<point x="386" y="194" type="line"/>
			<point x="386" y="289" type="line"/>
			<point x="90" y="-117" type="line"/>
		</contour>
	</outline>
</glyph>
<glyph name="radical" format="2">
	<advance width="677"/>
	<unicode hex="221A"/>
	<outline>
		<contour>
			<point x="261" y="-216" type="line"/>
			<point x="394" y="-216" type="line"/>
			<point x="637" y="700" type="line"/>
			<point x="517" y="700" type="line"/>
			<point x="289" y="-157" type="line"/>
			<point x="363" y="-157" type="line"/>
			<point x="233" y="298" type="line"/>
			<point x="40" y="298" type="line"/>
			<point x="40" y="190" type="line"/>
			<point x="188" y="190" type="line"/>
			<point x="129" y="243" type="line"/>
		</contour>
	</outline>
</glyph>
<glyph name="infinity" format="2">
	<advance width="926"/>
	<unicode hex="221E"/>
	<outline>
		<contour>
			<point x="650" y="55" type="curve" smooth="yes"/>
			<point x="749" y="55"/>
			<point x="856" y="121"/>
			<point x="856" y="261" type="curve" smooth="yes"/>
			<point x="856" y="401"/>
			<point x="749" y="467"/>
			<point x="650" y="467" type="curve" smooth="yes"/>
			<point x="430" y="467"/>
			<point x="426" y="168"/>
			<point x="286" y="168" type="curve" smooth="yes"/>
			<point x="226" y="168"/>
			<point x="188" y="211"/>
			<point x="188" y="261" type="curve" smooth="yes"/>
			<point x="188" y="311"/>
			<point x="226" y="354"/>
			<point x="286" y="354" type="curve" smooth="yes"/>
			<point x="426" y="354"/>
			<point x="420" y="55"/>
		</contour>
		<contour>
			<point x="276" y="55" type="curve" smooth="yes"/>
			<point x="496" y="55"/>
			<point x="500" y="354"/>
			<point x="640" y="354" type="curve" smooth="yes"/>
			<point x="700" y="354"/>
			<point x="738" y="311"/>
			<point x="738" y="261" type="curve" smooth="yes"/>
			<point x="738" y="211"/>
			<point x="700" y="168"/>
			<point x="640" y="168" type="curve" smooth="yes"/>
			<point x="500" y="168"/>
			<point x="506" y="467"/>
			<point x="276" y="467" type="curve" smooth="yes"/>
			<point x="177" y="467"/>
			<point x="70" y="401"/>
			<point x="70" y="261" type="curve" smooth="yes"/>
			<point x="70" y="121"/>
			<point x="177" y="55"/>
		</contour>
	</outline>
</glyph>
<glyph name="integral" format="2">
	<advance width="648"/>
	<unicode hex="222B"/>
	<outline>
		<contour>
			<point x="90" y="-216" type="line"/>
			<point x="210" y="-216" type="line" smooth="yes"/>
			<point x="320" y="-216"/>
			<point x="355" y="-168"/>
			<point x="368" y="-44" type="curve" smooth="yes"/>
			<point x="433" y="556" type="line" smooth="yes"/>
			<point x="436" y="586"/>
			<point x="448" y="597"/>
			<point x="478" y="597" type="curve" smooth="yes"/>
			<point x="558" y="597" type="line"/>
			<point x="558" y="710" type="line"/>
			<point x="438" y="710" type="line" smooth="yes"/>
			<point x="328" y="710"/>
			<point x="293" y="662"/>
			<point x="280" y="538" type="curve" smooth="yes"/>
			<point x="215" y="-62" type="line" smooth="yes"/>
			<point x="212" y="-92"/>
			<point x="200" y="-103"/>
			<point x="170" y="-103" type="curve" smooth="yes"/>
			<point x="90" y="-103" type="line"/>
		</contour>
	</outline>
</glyph>
<glyph name="approxequal" format="2">
	<advance width="619"/>
	<unicode hex="2248"/>
	<outline>
		<contour>
			<point x="70" y="311" type="line"/>
			<point x="114" y="355"/>
			<point x="138" y="379"/>
			<point x="210" y="379" type="curve" smooth="yes"/>
			<point x="279" y="379"/>
			<point x="318" y="319"/>
			<point x="409" y="319" type="curve" smooth="yes"/>
			<point x="498" y="319"/>
			<point x="533" y="355"/>
			<point x="549" y="371" type="curve"/>
			<point x="549" y="500" type="line"/>
			<point x="505" y="456"/>
			<point x="481" y="432"/>
			<point x="409" y="432" type="curve" smooth="yes"/>
			<point x="340" y="432"/>
			<point x="301" y="492"/>
			<point x="210" y="492" type="curve" smooth="yes"/>
			<point x="121" y="492"/>
			<point x="86" y="456"/>
			<point x="70" y="440" type="curve"/>
		</contour>
		<contour>
			<point x="70" y="78" type="line"/>
			<point x="114" y="122"/>
			<point x="138" y="146"/>
			<point x="210" y="146" type="curve" smooth="yes"/>
			<point x="279" y="146"/>
			<point x="318" y="86"/>
			<point x="409" y="86" type="curve" smooth="yes"/>
			<point x="498" y="86"/>
			<point x="533" y="122"/>
			<point x="549" y="138" type="curve"/>
			<point x="549" y="267" type="line"/>
			<point x="505" y="223"/>
			<point x="481" y="199"/>
			<point x="409" y="199" type="curve" smooth="yes"/>
			<point x="340" y="199"/>
			<point x="301" y="259"/>
			<point x="210" y="259" type="curve" smooth="yes"/>
			<point x="121" y="259"/>
			<point x="86" y="223"/>
			<point x="70" y="207" type="curve"/>
		</contour>
	</outline>
</glyph>
<glyph name="lessequal" format="2">
	<advance width="619"/>
	<unicode hex="2264"/>
	<outline>
		<contour>
			<point x="549" y="157" type="line"/>
			<point x="549" y="283" type="line"/>
			<point x="135" y="443" type="line"/>
			<point x="135" y="353" type="line"/>
			<point x="549" y="512" type="line"/>
			<point x="549" y="638" type="line"/>
			<point x="70" y="453" type="line"/>
			<point x="70" y="342" type="line"/>
		</contour>
		<contour>
			<point x="549" y="-1" type="line"/>
			<point x="549" y="112" type="line"/>
			<point x="70" y="112" type="line"/>
			<point x="70" y="-1" type="line"/>
		</contour>
	</outline>
</glyph>
<glyph name="greaterequal" format="2">
	<advance width="619"/>
	<unicode hex="2265"/>
	<outline>
		<contour>
			<point x="70" y="157" type="line"/>
			<point x="549" y="342" type="line"/>
			<point x="549" y="453" type="line"/>
			<point x="70" y="638" type="line"/>
			<point x="70" y="512" type="line"/>
			<point x="484" y="353" type="line"/>
			<point x="484" y="443" type="line"/>
			<point x="70" y="283" type="line"/>
		</contour>
		<contour>
			<point x="70" y="-1" type="line"/>
			<point x="549" y="-1" type="line"/>
			<point x="549" y="112" type="line"/>
			<point x="70" y="112" type="line"/>
		</contour>
	</outline>
</glyph>
<glyph name="one.circled" format="2">
	<advance width="872"/>
	<unicode hex="2460"/>
	<outline>
		<contour>
			<point x="405" y="210" type="line"/>
			<point x="487" y="210" type="line"/>
			<point x="487" y="521" type="line"/>
			<point x="405" y="521" type="line"/>
			<point x="405" y="449"/>
			<point x="394" y="431"/>
			<point x="341" y="431" type="curve" smooth="yes"/>
			<point x="314" y="431" type="line"/>
			<point x="314" y="364" type="line"/>
			<point x="341" y="364" type="line" smooth="yes"/>
			<point x="411" y="364"/>
			<point x="415" y="411"/>
			<point x="415" y="491" type="curve"/>
			<point x="405" y="471" type="line"/>
		</contour>
		<contour>
			<point x="314" y="190" type="line"/>
			<point x="578" y="190" type="line"/>
			<point x="578" y="257" type="line"/>
			<point x="314" y="257" type="line"/>
		</contour>
		<component base="whiteCircle"/>
	</outline>
</glyph>
<glyph name="two.circled" format="2">
	<advance width="872"/>
	<unicode hex="2461"/>
	<outline>
		<contour>
			<point x="305" y="190" type="line"/>
			<point x="568" y="190" type="line"/>
			<point x="568" y="257" type="line"/>
			<point x="360" y="257" type="line"/>
			<point x="330" y="220" type="line"/>
			<point x="407" y="240"/>
			<point x="561" y="314"/>
			<point x="561" y="414" type="curve" smooth="yes"/>
			<point x="561" y="474"/>
			<point x="513" y="528"/>
			<point x="433" y="528" type="curve" smooth="yes"/>
			<point x="353" y="528"/>
			<point x="305" y="470"/>
			<point x="305" y="410" type="curve"/>
			<point x="387" y="405" type="line"/>
			<point x="387" y="445"/>
			<point x="403" y="461"/>
			<point x="433" y="461" type="curve" smooth="yes"/>
			<point x="463" y="461"/>
			<point x="479" y="444"/>
			<point x="479" y="414" type="curve" smooth="yes"/>
			<point x="479" y="345"/>
			<point x="348" y="280"/>
			<point x="305" y="257" type="curve"/>
		</contour>
		<component base="whiteCircle"/>
	</outline>
</glyph>
<glyph name="three.circled" format="2">
	<advance width="872"/>
	<unicode hex="2462"/>
	<outline>
		<contour>
			<point x="436" y="182" type="curve" smooth="yes"/>
			<point x="521" y="182"/>
			<point x="574" y="224"/>
			<point x="574" y="284" type="curve" smooth="yes"/>
			<point x="574" y="354"/>
			<point x="498" y="376"/>
			<point x="448" y="376" type="curve"/>
			<point x="448" y="346" type="line"/>
			<point x="498" y="346"/>
			<point x="562" y="372"/>
			<point x="562" y="432" type="curve" smooth="yes"/>
			<point x="562" y="492"/>
			<point x="506" y="528"/>
			<point x="436" y="528" type="curve" smooth="yes"/>
			<point x="361" y="528"/>
			<point x="309" y="480"/>
			<point x="309" y="420" type="curve"/>
			<point x="392" y="415" type="line"/>
			<point x="392" y="450"/>
			<point x="414" y="461"/>
			<point x="436" y="461" type="curve" smooth="yes"/>
			<point x="455" y="461"/>
			<point x="480" y="451"/>
			<point x="480" y="428" type="curve" smooth="yes"/>
			<point x="480" y="405"/>
			<point x="465" y="395"/>
			<point x="436" y="395" type="curve" smooth="yes"/>
			<point x="404" y="395" type="line"/>
			<point x="404" y="328" type="line"/>
			<point x="436" y="328" type="line" smooth="yes"/>
			<point x="466" y="328"/>
			<point x="491" y="319"/>
			<point x="491" y="289" type="curve" smooth="yes"/>
			<point x="491" y="262"/>
			<point x="470" y="249"/>
			<point x="436" y="249" type="curve" smooth="yes"/>
			<point x="400" y="249"/>
			<point x="381" y="268"/>
			<point x="381" y="308" type="curve"/>
			<point x="298" y="303" type="line"/>
			<point x="298" y="233"/>
			<point x="348" y="182"/>
		</contour>
		<component base="whiteCircle"/>
	</outline>
</glyph>
<glyph name="four.circled" format="2">
	<advance width="872"/>
	<unicode hex="2463"/>
	<outline>
		<contour>
			<point x="264" y="267" type="line"/>
			<point x="588" y="267" type="line"/>
			<point x="588" y="334" type="line"/>
			<point x="293" y="334" type="line"/>
			<point x="280" y="293" type="line"/>
			<point x="424" y="343"/>
			<point x="421" y="441"/>
			<point x="421" y="521" type="curve"/>
			<point x="343" y="521" type="line"/>
			<point x="343" y="441"/>
			<point x="345" y="373"/>
			<point x="264" y="334" type="curve"/>
		</contour>
		<component base="whiteCircle"/>
		<contour>
			<point x="456" y="190" type="line"/>
			<point x="534" y="190" type="line"/>
			<point x="534" y="521" type="line"/>
			<point x="456" y="521" type="line"/>
		</contour>
	</outline>
</glyph>
<glyph name="five.circled" format="2">
	<advance width="872"/>
	<unicode hex="2464"/>
	<outline>
		<contour>
			<point x="436" y="182" type="curve" smooth="yes"/>
			<point x="516" y="182"/>
			<point x="570" y="233"/>
			<point x="570" y="300" type="curve" smooth="yes"/>
			<point x="570" y="367"/>
			<point x="516" y="416"/>
			<point x="456" y="416" type="curve" smooth="yes"/>
			<point x="386" y="416"/>
			<point x="365" y="373"/>
			<point x="365" y="343" type="curve"/>
			<point x="387" y="345" type="line"/>
			<point x="395" y="453" type="line"/>
			<point x="546" y="453" type="line"/>
			<point x="546" y="520" type="line"/>
			<point x="322" y="520" type="line"/>
			<point x="306" y="330" type="line"/>
			<point x="383" y="330" type="line"/>
			<point x="389" y="338"/>
			<point x="406" y="351"/>
			<point x="436" y="351" type="curve" smooth="yes"/>
			<point x="466" y="351"/>
			<point x="487" y="330"/>
			<point x="487" y="300" type="curve" smooth="yes"/>
			<point x="487" y="270"/>
			<point x="466" y="248"/>
			<point x="436" y="248" type="curve" smooth="yes"/>
			<point x="406" y="248"/>
			<point x="386" y="272"/>
			<point x="386" y="292" type="curve"/>
			<point x="303" y="287" type="line"/>
			<point x="303" y="227"/>
			<point x="352" y="182"/>
		</contour>
		<component base="whiteCircle"/>
	</outline>
</glyph>
<glyph name="six.circled" format="2">
	<advance width="872"/>
	<unicode hex="2465"/>
	<outline>
		<contour>
			<point x="433" y="182" type="curve" smooth="yes"/>
			<point x="503" y="182"/>
			<point x="565" y="223"/>
			<point x="565" y="303" type="curve" smooth="yes"/>
			<point x="565" y="383"/>
			<point x="503" y="424"/>
			<point x="453" y="424" type="curve" smooth="yes"/>
			<point x="386" y="424"/>
			<point x="347" y="385"/>
			<point x="347" y="315" type="curve"/>
			<point x="365" y="333" type="line"/>
			<point x="355" y="432"/>
			<point x="397" y="461"/>
			<point x="437" y="461" type="curve" smooth="yes"/>
			<point x="472" y="461"/>
			<point x="487" y="442"/>
			<point x="490" y="437" type="curve"/>
			<point x="572" y="442" type="line"/>
			<point x="559" y="500"/>
			<point x="497" y="528"/>
			<point x="437" y="528" type="curve" smooth="yes"/>
			<point x="357" y="528"/>
			<point x="291" y="472"/>
			<point x="291" y="352" type="curve" smooth="yes"/>
			<point x="291" y="282"/>
			<point x="323" y="182"/>
		</contour>
		<contour>
			<point x="433" y="249" type="curve" smooth="yes"/>
			<point x="398" y="249"/>
			<point x="382" y="274"/>
			<point x="382" y="303" type="curve" smooth="yes"/>
			<point x="382" y="333"/>
			<point x="398" y="357"/>
			<point x="433" y="357" type="curve" smooth="yes"/>
			<point x="468" y="357"/>
			<point x="483" y="333"/>
			<point x="483" y="303" type="curve" smooth="yes"/>
			<point x="483" y="274"/>
			<point x="468" y="249"/>
		</contour>
		<component base="whiteCircle"/>
	</outline>
</glyph>
<glyph name="seven.circled" format="2">
	<advance width="872"/>
	<unicode hex="2466"/>
	<outline>
		<contour>
			<point x="376" y="190" type="curve"/>
			<point x="455" y="190" type="line"/>
			<point x="454" y="336"/>
			<point x="461" y="402"/>
			<point x="567" y="457" type="curve"/>
			<point x="568" y="521" type="line"/>
			<point x="309" y="521" type="line"/>
			<point x="309" y="454" type="line"/>
			<point x="542" y="454" type="line"/>
			<point x="558" y="481" type="line"/>
			<point x="398" y="459"/>
			<point x="375" y="338"/>
		</contour>
		<component base="whiteCircle"/>
	</outline>
</glyph>
<glyph name="eight.circled" format="2">
	<advance width="872"/>
	<unicode hex="2467"/>
	<outline>
		<contour>
			<point x="436" y="182" type="curve" smooth="yes"/>
			<point x="521" y="182"/>
			<point x="576" y="225"/>
			<point x="576" y="284" type="curve" smooth="yes"/>
			<point x="576" y="340"/>
			<point x="520" y="376"/>
			<point x="460" y="376" type="curve"/>
			<point x="460" y="345" type="line"/>
			<point x="510" y="345"/>
			<point x="565" y="381"/>
			<point x="565" y="432" type="curve" smooth="yes"/>
			<point x="565" y="481"/>
			<point x="521" y="528"/>
			<point x="436" y="528" type="curve" smooth="yes"/>
			<point x="351" y="528"/>
			<point x="307" y="481"/>
			<point x="307" y="432" type="curve" smooth="yes"/>
			<point x="307" y="385"/>
			<point x="362" y="345"/>
			<point x="412" y="345" type="curve"/>
			<point x="412" y="376" type="line"/>
			<point x="352" y="376"/>
			<point x="296" y="340"/>
			<point x="296" y="284" type="curve" smooth="yes"/>
			<point x="296" y="225"/>
			<point x="351" y="182"/>
		</contour>
		<contour>
			<point x="436" y="249" type="curve" smooth="yes"/>
			<point x="402" y="249"/>
			<point x="378" y="262"/>
			<point x="378" y="289" type="curve" smooth="yes"/>
			<point x="378" y="315"/>
			<point x="402" y="328"/>
			<point x="436" y="328" type="curve" smooth="yes"/>
			<point x="470" y="328"/>
			<point x="494" y="315"/>
			<point x="494" y="289" type="curve" smooth="yes"/>
			<point x="494" y="262"/>
			<point x="470" y="249"/>
		</contour>
		<component base="whiteCircle"/>
		<contour>
			<point x="436" y="395" type="curve" smooth="yes"/>
			<point x="411" y="395"/>
			<point x="390" y="406"/>
			<point x="390" y="428" type="curve" smooth="yes"/>
			<point x="390" y="450"/>
			<point x="411" y="461"/>
			<point x="436" y="461" type="curve" smooth="yes"/>
			<point x="461" y="461"/>
			<point x="482" y="450"/>
			<point x="482" y="428" type="curve" smooth="yes"/>
			<point x="482" y="406"/>
			<point x="461" y="395"/>
		</contour>
	</outline>
</glyph>
<glyph name="nine.circled" format="2">
	<advance width="872"/>
	<unicode hex="2468"/>
	<outline>
		<contour>
			<point x="435" y="182" type="curve" smooth="yes"/>
			<point x="515" y="182"/>
			<point x="581" y="238"/>
			<point x="581" y="358" type="curve" smooth="yes"/>
			<point x="581" y="428"/>
			<point x="549" y="528"/>
			<point x="439" y="528" type="curve" smooth="yes"/>
			<point x="369" y="528"/>
			<point x="307" y="487"/>
			<point x="307" y="407" type="curve" smooth="yes"/>
			<point x="307" y="327"/>
			<point x="369" y="286"/>
			<point x="419" y="286" type="curve" smooth="yes"/>
			<point x="486" y="286"/>
			<point x="525" y="325"/>
			<point x="525" y="395" type="curve"/>
			<point x="507" y="377" type="line"/>
			<point x="517" y="278"/>
			<point x="475" y="249"/>
			<point x="435" y="249" type="curve" smooth="yes"/>
			<point x="400" y="249"/>
			<point x="385" y="268"/>
			<point x="382" y="273" type="curve"/>
			<point x="300" y="268" type="line"/>
			<point x="313" y="210"/>
			<point x="375" y="182"/>
		</contour>
		<component base="whiteCircle"/>
		<contour>
			<point x="439" y="353" type="curve" smooth="yes"/>
			<point x="404" y="353"/>
			<point x="389" y="377"/>
			<point x="389" y="407" type="curve" smooth="yes"/>
			<point x="389" y="436"/>
			<point x="404" y="461"/>
			<point x="439" y="461" type="curve" smooth="yes"/>
			<point x="474" y="461"/>
			<point x="490" y="436"/>
			<point x="490" y="407" type="curve" smooth="yes"/>
			<point x="490" y="377"/>
			<point x="474" y="353"/>
		</contour>
	</outline>
</glyph>
<glyph name="zero.circled" format="2">
	<advance width="872"/>
	<unicode hex="24EA"/>
	<outline>
		<contour>
			<point x="436" y="182" type="curve" smooth="yes"/>
			<point x="531" y="182"/>
			<point x="583" y="252"/>
			<point x="583" y="355" type="curve" smooth="yes"/>
			<point x="583" y="458"/>
			<point x="531" y="528"/>
			<point x="436" y="528" type="curve" smooth="yes"/>
			<point x="341" y="528"/>
			<point x="289" y="458"/>
			<point x="289" y="355" type="curve" smooth="yes"/>
			<point x="289" y="252"/>
			<point x="341" y="182"/>
		</contour>
		<component base="whiteCircle"/>
		<contour>
			<point x="436" y="249" type="curve" smooth="yes"/>
			<point x="392" y="249"/>
			<point x="372" y="294"/>
			<point x="372" y="355" type="curve" smooth="yes"/>
			<point x="372" y="416"/>
			<point x="392" y="461"/>
			<point x="436" y="461" type="curve" smooth="yes"/>
			<point x="480" y="461"/>
			<point x="500" y="416"/>
			<point x="500" y="355" type="curve" smooth="yes"/>
			<point x="500" y="294"/>
			<point x="480" y="249"/>
		</contour>
	</outline>
</glyph>
<glyph name="zero.blackCircled" format="2">
	<advance width="872"/>
	<unicode hex="24FF"/>
	<outline>
		<contour>
			<point x="437" y="-16" type="curve" smooth="yes"/>
			<point x="638" y="-16"/>
			<point x="802" y="148"/>
			<point x="802" y="350" type="curve" smooth="yes"/>
			<point x="802" y="552"/>
			<point x="638" y="716"/>
			<point x="437" y="716" type="curve" smooth="yes"/>
			<point x="234" y="716"/>
			<point x="70" y="552"/>
			<point x="70" y="350" type="curve" smooth="yes"/>
			<point x="70" y="148"/>
			<point x="234" y="-16"/>
		</contour>
		<contour>
			<point x="436" y="182" type="curve" smooth="yes"/>
			<point x="341" y="182"/>
			<point x="289" y="252"/>
			<point x="289" y="355" type="curve" smooth="yes"/>
			<point x="289" y="458"/>
			<point x="341" y="528"/>
			<point x="436" y="528" type="curve" smooth="yes"/>
			<point x="531" y="528"/>
			<point x="583" y="458"/>
			<point x="583" y="355" type="curve" smooth="yes"/>
			<point x="583" y="252"/>
			<point x="531" y="182"/>
		</contour>
		<contour>
			<point x="436" y="249" type="curve" smooth="yes"/>
			<point x="480" y="249"/>
			<point x="500" y="294"/>
			<point x="500" y="355" type="curve" smooth="yes"/>
			<point x="500" y="416"/>
			<point x="480" y="461"/>
			<point x="436" y="461" type="curve" smooth="yes"/>
			<point x="392" y="461"/>
			<point x="372" y="416"/>
			<point x="372" y="355" type="curve" smooth="yes"/>
			<point x="372" y="294"/>
			<point x="392" y="249"/>
		</contour>
	</outline>
</glyph>
<glyph name="lozenge" format="2">
	<advance width="644"/>
	<unicode hex="25CA"/>
	<outline>
		<contour>
			<point x="262" y="0" type="line"/>
			<point x="371" y="0" type="line"/>
			<point x="574" y="350" type="line"/>
			<point x="371" y="700" type="line"/>
			<point x="262" y="700" type="line"/>
			<point x="70" y="350" type="line"/>
		</contour>
		<contour>
			<point x="287" y="66" type="line"/>
			<point x="348" y="66" type="line"/>
			<point x="164" y="403" type="line"/>
			<point x="164" y="297" type="line"/>
			<point x="351" y="640" type="line"/>
			<point x="284" y="640" type="line"/>
			<point x="478" y="304" type="line"/>
			<point x="478" y="396" type="line"/>
		</contour>
	</outline>
</glyph>
<glyph name="whiteCircle" format="2">
	<advance width="872"/>
	<unicode hex="25CB"/>
	<outline>
		<contour>
			<point x="437" y="-16" type="curve" smooth="yes"/>
			<point x="638" y="-16"/>
			<point x="802" y="148"/>
			<point x="802" y="350" type="curve" smooth="yes"/>
			<point x="802" y="552"/>
			<point x="638" y="716"/>
			<point x="437" y="716" type="curve" smooth="yes"/>
			<point x="234" y="716"/>
			<point x="70" y="552"/>
			<point x="70" y="350" type="curve" smooth="yes"/>
			<point x="70" y="148"/>
			<point x="234" y="-16"/>
		</contour>
		<contour>
			<point x="437" y="53" type="curve" smooth="yes"/>
			<point x="271" y="53"/>
			<point x="139" y="185"/>
			<point x="139" y="350" type="curve" smooth="yes"/>
			<point x="139" y="515"/>
			<point x="271" y="647"/>
			<point x="437" y="647" type="curve" smooth="yes"/>
			<point x="601" y="647"/>
			<point x="733" y="515"/>
			<point x="733" y="350" type="curve" smooth="yes"/>
			<point x="733" y="185"/>
			<point x="601" y="53"/>
		</contour>
	</outline>
</glyph>
<glyph name="blackCircle" format="2">
	<advance width="872"/>
	<unicode hex="25CF"/>
	<outline>
		<contour>
			<point x="437" y="-16" type="curve" smooth="yes"/>
			<point x="638" y="-16"/>
			<point x="802" y="148"/>
			<point x="802" y="350" type="curve" smooth="yes"/>
			<point x="802" y="552"/>
			<point x="638" y="716"/>
			<point x="437" y="716" type="curve" smooth="yes"/>
			<point x="234" y="716"/>
			<point x="70" y="552"/>
			<point x="70" y="350" type="curve" smooth="yes"/>
			<point x="70" y="148"/>
			<point x="234" y="-16"/>
		</contour>
	</outline>
</glyph>
<glyph name="one.blackCircled" format="2">
	<advance width="872"/>
	<unicode hex="2776"/>
	<outline>
		<contour>
			<point x="437" y="-16" type="curve" smooth="yes"/>
			<point x="638" y="-16"/>
			<point x="802" y="148"/>
			<point x="802" y="350" type="curve" smooth="yes"/>
			<point x="802" y="552"/>
			<point x="638" y="716"/>
			<point x="437" y="716" type="curve" smooth="yes"/>
			<point x="234" y="716"/>
			<point x="70" y="552"/>
			<point x="70" y="350" type="curve" smooth="yes"/>
			<point x="70" y="148"/>
			<point x="234" y="-16"/>
		</contour>
		<contour>
			<point x="314" y="190" type="line"/>
			<point x="314" y="256" type="line"/>
			<point x="405" y="256" type="line"/>
			<point x="405" y="398" type="line"/>
			<point x="396" y="375"/>
			<point x="380" y="364"/>
			<point x="351" y="364" type="curve" smooth="yes"/>
			<point x="314" y="364" type="line"/>
			<point x="314" y="431" type="line"/>
			<point x="351" y="431" type="line" smooth="yes"/>
			<point x="394" y="431"/>
			<point x="405" y="449"/>
			<point x="405" y="521" type="curve"/>
			<point x="487" y="521" type="line"/>
			<point x="487" y="256" type="line"/>
			<point x="578" y="256" type="line"/>
			<point x="578" y="190" type="line"/>
		</contour>
	</outline>
</glyph>
<glyph name="two.blackCircled" format="2">
	<advance width="872"/>
	<unicode hex="2777"/>
	<outline>
		<contour>
			<point x="437" y="-16" type="curve" smooth="yes"/>
			<point x="638" y="-16"/>
			<point x="802" y="148"/>
			<point x="802" y="350" type="curve" smooth="yes"/>
			<point x="802" y="552"/>
			<point x="638" y="716"/>
			<point x="437" y="716" type="curve" smooth="yes"/>
			<point x="234" y="716"/>
			<point x="70" y="552"/>
			<point x="70" y="350" type="curve" smooth="yes"/>
			<point x="70" y="148"/>
			<point x="234" y="-16"/>
		</contour>
		<contour>
			<point x="305" y="190" type="line"/>
			<point x="305" y="257" type="line"/>
			<point x="348" y="280"/>
			<point x="479" y="345"/>
			<point x="479" y="414" type="curve" smooth="yes"/>
			<point x="479" y="444"/>
			<point x="463" y="461"/>
			<point x="433" y="461" type="curve" smooth="yes"/>
			<point x="403" y="461"/>
			<point x="387" y="445"/>
			<point x="387" y="405" type="curve"/>
			<point x="305" y="410" type="line"/>
			<point x="305" y="470"/>
			<point x="353" y="528"/>
			<point x="433" y="528" type="curve" smooth="yes"/>
			<point x="513" y="528"/>
			<point x="561" y="474"/>
			<point x="561" y="414" type="curve" smooth="yes"/>
			<point x="561" y="314"/>
			<point x="407" y="240"/>
			<point x="330" y="220" type="curve"/>
			<point x="360" y="257" type="line"/>
			<point x="568" y="257" type="line"/>
			<point x="568" y="190" type="line"/>
		</contour>
	</outline>
</glyph>
<glyph name="three.blackCircled" format="2">
	<advance width="872"/>
	<unicode hex="2778"/>
	<outline>
		<contour>
			<point x="437" y="-16" type="curve" smooth="yes"/>
			<point x="638" y="-16"/>
			<point x="802" y="148"/>
			<point x="802" y="350" type="curve" smooth="yes"/>
			<point x="802" y="552"/>
			<point x="638" y="716"/>
			<point x="437" y="716" type="curve" smooth="yes"/>
			<point x="234" y="716"/>
			<point x="70" y="552"/>
			<point x="70" y="350" type="curve" smooth="yes"/>
			<point x="70" y="148"/>
			<point x="234" y="-16"/>
		</contour>
		<contour>
			<point x="436" y="182" type="curve" smooth="yes"/>
			<point x="348" y="182"/>
			<point x="298" y="233"/>
			<point x="298" y="303" type="curve"/>
			<point x="381" y="308" type="line"/>
			<point x="381" y="268"/>
			<point x="400" y="249"/>
			<point x="436" y="249" type="curve" smooth="yes"/>
			<point x="470" y="249"/>
			<point x="491" y="262"/>
			<point x="491" y="289" type="curve" smooth="yes"/>
			<point x="491" y="319"/>
			<point x="466" y="328"/>
			<point x="436" y="328" type="curve" smooth="yes"/>
			<point x="404" y="328" type="line"/>
			<point x="404" y="395" type="line"/>
			<point x="436" y="395" type="line" smooth="yes"/>
			<point x="465" y="395"/>
			<point x="480" y="405"/>
			<point x="480" y="428" type="curve" smooth="yes"/>
			<point x="480" y="451"/>
			<point x="455" y="461"/>
			<point x="436" y="461" type="curve" smooth="yes"/>
			<point x="414" y="461"/>
			<point x="392" y="450"/>
			<point x="392" y="415" type="curve"/>
			<point x="309" y="420" type="line"/>
			<point x="309" y="480"/>
			<point x="361" y="528"/>
			<point x="436" y="528" type="curve" smooth="yes"/>
			<point x="506" y="528"/>
			<point x="562" y="492"/>
			<point x="562" y="432" type="curve" smooth="yes"/>
			<point x="562" y="372"/>
			<point x="498" y="346"/>
			<point x="448" y="346" type="curve"/>
			<point x="448" y="376" type="line"/>
			<point x="498" y="376"/>
			<point x="574" y="354"/>
			<point x="574" y="284" type="curve" smooth="yes"/>
			<point x="574" y="224"/>
			<point x="521" y="182"/>
		</contour>
	</outline>
</glyph>
<glyph name="four.blackCircled" format="2">
	<advance width="872"/>
	<unicode hex="2779"/>
	<outline>
		<contour>
			<point x="437" y="-16" type="curve" smooth="yes"/>
			<point x="638" y="-16"/>
			<point x="802" y="148"/>
			<point x="802" y="350" type="curve" smooth="yes"/>
			<point x="802" y="552"/>
			<point x="638" y="716"/>
			<point x="437" y="716" type="curve" smooth="yes"/>
			<point x="234" y="716"/>
			<point x="70" y="552"/>
			<point x="70" y="350" type="curve" smooth="yes"/>
			<point x="70" y="148"/>
			<point x="234" y="-16"/>
		</contour>
		<contour>
			<point x="456" y="190" type="line"/>
			<point x="456" y="267" type="line"/>
			<point x="264" y="267" type="line"/>
			<point x="264" y="334" type="line"/>
			<point x="345" y="373"/>
			<point x="343" y="441"/>
			<point x="343" y="521" type="curve"/>
			<point x="421" y="521" type="line"/>
			<point x="421" y="459"/>
			<point x="423" y="387"/>
			<point x="357" y="334" type="curve"/>
			<point x="456" y="334" type="line"/>
			<point x="456" y="521" type="line"/>
			<point x="534" y="521" type="line"/>
			<point x="534" y="334" type="line"/>
			<point x="588" y="334" type="line"/>
			<point x="588" y="267" type="line"/>
			<point x="534" y="267" type="line"/>
			<point x="534" y="190" type="line"/>
		</contour>
	</outline>
</glyph>
<glyph name="five.blackCircled" format="2">
	<advance width="872"/>
	<unicode hex="277A"/>
	<outline>
		<contour>
			<point x="437" y="-16" type="curve" smooth="yes"/>
			<point x="638" y="-16"/>
			<point x="802" y="148"/>
			<point x="802" y="350" type="curve" smooth="yes"/>
			<point x="802" y="552"/>
			<point x="638" y="716"/>
			<point x="437" y="716" type="curve" smooth="yes"/>
			<point x="234" y="716"/>
			<point x="70" y="552"/>
			<point x="70" y="350" type="curve" smooth="yes"/>
			<point x="70" y="148"/>
			<point x="234" y="-16"/>
		</contour>
		<contour>
			<point x="436" y="182" type="curve" smooth="yes"/>
			<point x="352" y="182"/>
			<point x="303" y="227"/>
			<point x="303" y="287" type="curve"/>
			<point x="386" y="292" type="line"/>
			<point x="386" y="272"/>
			<point x="406" y="248"/>
			<point x="436" y="248" type="curve" smooth="yes"/>
			<point x="466" y="248"/>
			<point x="487" y="270"/>
			<point x="487" y="300" type="curve" smooth="yes"/>
			<point x="487" y="330"/>
			<point x="466" y="351"/>
			<point x="436" y="351" type="curve" smooth="yes"/>
			<point x="406" y="351"/>
			<point x="389" y="338"/>
			<point x="383" y="330" type="curve"/>
			<point x="306" y="330" type="line"/>
			<point x="322" y="520" type="line"/>
			<point x="546" y="520" type="line"/>
			<point x="546" y="453" type="line"/>
			<point x="390" y="453" type="line"/>
			<point x="385" y="392" type="line"/>
			<point x="400" y="406"/>
			<point x="422" y="416"/>
			<point x="456" y="416" type="curve" smooth="yes"/>
			<point x="516" y="416"/>
			<point x="570" y="367"/>
			<point x="570" y="300" type="curve" smooth="yes"/>
			<point x="570" y="233"/>
			<point x="516" y="182"/>
		</contour>
	</outline>
</glyph>
<glyph name="six.blackCircled" format="2">
	<advance width="872"/>
	<unicode hex="277B"/>
	<outline>
		<contour>
			<point x="435" y="-16" type="curve" smooth="yes"/>
			<point x="638" y="-16"/>
			<point x="802" y="148"/>
			<point x="802" y="350" type="curve" smooth="yes"/>
			<point x="802" y="552"/>
			<point x="638" y="716"/>
			<point x="435" y="716" type="curve" smooth="yes"/>
			<point x="234" y="716"/>
			<point x="70" y="552"/>
			<point x="70" y="350" type="curve" smooth="yes"/>
			<point x="70" y="148"/>
			<point x="234" y="-16"/>
		</contour>
		<contour>
			<point x="433" y="245" type="curve" smooth="yes"/>
			<point x="468" y="245"/>
			<point x="487" y="274"/>
			<point x="487" y="303" type="curve" smooth="yes"/>
			<point x="487" y="333"/>
			<point x="468" y="361"/>
			<point x="433" y="361" type="curve" smooth="yes"/>
			<point x="398" y="361"/>
			<point x="378" y="333"/>
			<point x="378" y="303" type="curve" smooth="yes"/>
			<point x="378" y="274"/>
			<point x="398" y="245"/>
		</contour>
		<contour>
			<point x="433" y="182" type="curve" smooth="yes"/>
			<point x="323" y="182"/>
			<point x="291" y="282"/>
			<point x="291" y="352" type="curve" smooth="yes"/>
			<point x="291" y="472"/>
			<point x="357" y="528"/>
			<point x="437" y="528" type="curve" smooth="yes"/>
			<point x="497" y="528"/>
			<point x="559" y="500"/>
			<point x="572" y="442" type="curve"/>
			<point x="490" y="437" type="line"/>
			<point x="487" y="442"/>
			<point x="472" y="461"/>
			<point x="437" y="461" type="curve" smooth="yes"/>
			<point x="397" y="461"/>
			<point x="355" y="432"/>
			<point x="365" y="333" type="curve"/>
			<point x="347" y="315" type="line"/>
			<point x="347" y="375"/>
			<point x="386" y="424"/>
			<point x="453" y="424" type="curve" smooth="yes"/>
			<point x="503" y="424"/>
			<point x="565" y="383"/>
			<point x="565" y="303" type="curve" smooth="yes"/>
			<point x="565" y="223"/>
			<point x="503" y="182"/>
		</contour>
	</outline>
</glyph>
<glyph name="seven.blackCircled" format="2">
	<advance width="872"/>
	<unicode hex="277C"/>
	<outline>
		<contour>
			<point x="437" y="-16" type="curve" smooth="yes"/>
			<point x="638" y="-16"/>
			<point x="802" y="148"/>
			<point x="802" y="350" type="curve" smooth="yes"/>
			<point x="802" y="552"/>
			<point x="638" y="716"/>
			<point x="437" y="716" type="curve" smooth="yes"/>
			<point x="234" y="716"/>
			<point x="70" y="552"/>
			<point x="70" y="350" type="curve" smooth="yes"/>
			<point x="70" y="148"/>
			<point x="234" y="-16"/>
		</contour>
		<contour>
			<point x="376" y="190" type="line"/>
			<point x="375" y="306"/>
			<point x="389" y="406"/>
			<point x="473" y="454" type="curve"/>
			<point x="309" y="454" type="line"/>
			<point x="309" y="521" type="line"/>
			<point x="568" y="521" type="line"/>
			<point x="567" y="457" type="line"/>
			<point x="461" y="402"/>
			<point x="454" y="336"/>
			<point x="455" y="190" type="curve"/>
		</contour>
	</outline>
</glyph>
<glyph name="eight.blackCircled" format="2">
	<advance width="872"/>
	<unicode hex="277D"/>
	<outline>
		<contour>
			<point x="437" y="-16" type="curve" smooth="yes"/>
			<point x="638" y="-16"/>
			<point x="802" y="148"/>
			<point x="802" y="350" type="curve" smooth="yes"/>
			<point x="802" y="552"/>
			<point x="638" y="716"/>
			<point x="437" y="716" type="curve" smooth="yes"/>
			<point x="234" y="716"/>
			<point x="70" y="552"/>
			<point x="70" y="350" type="curve" smooth="yes"/>
			<point x="70" y="148"/>
			<point x="234" y="-16"/>
		</contour>
		<contour>
			<point x="436" y="245" type="curve" smooth="yes"/>
			<point x="470" y="245"/>
			<point x="498" y="262"/>
			<point x="498" y="289" type="curve" smooth="yes"/>
			<point x="498" y="315"/>
			<point x="470" y="332"/>
			<point x="436" y="332" type="curve" smooth="yes"/>
			<point x="402" y="332"/>
			<point x="374" y="315"/>
			<point x="374" y="289" type="curve" smooth="yes"/>
			<point x="374" y="262"/>
			<point x="402" y="245"/>
		</contour>
		<contour>
			<point x="436" y="182" type="curve" smooth="yes"/>
			<point x="351" y="182"/>
			<point x="296" y="225"/>
			<point x="296" y="284" type="curve" smooth="yes"/>
			<point x="296" y="340"/>
			<point x="362" y="376"/>
			<point x="422" y="376" type="curve"/>
			<point x="422" y="345" type="line"/>
			<point x="372" y="345"/>
			<point x="307" y="385"/>
			<point x="307" y="432" type="curve" smooth="yes"/>
			<point x="307" y="481"/>
			<point x="351" y="528"/>
			<point x="436" y="528" type="curve" smooth="yes"/>
			<point x="521" y="528"/>
			<point x="565" y="481"/>
			<point x="565" y="432" type="curve" smooth="yes"/>
			<point x="565" y="381"/>
			<point x="500" y="345"/>
			<point x="450" y="345" type="curve"/>
			<point x="450" y="376" type="line"/>
			<point x="510" y="376"/>
			<point x="576" y="340"/>
			<point x="576" y="284" type="curve" smooth="yes"/>
			<point x="576" y="225"/>
			<point x="521" y="182"/>
		</contour>
		<contour>
			<point x="436" y="391" type="curve" smooth="yes"/>
			<point x="461" y="391"/>
			<point x="486" y="406"/>
			<point x="486" y="428" type="curve" smooth="yes"/>
			<point x="486" y="450"/>
			<point x="461" y="465"/>
			<point x="436" y="465" type="curve" smooth="yes"/>
			<point x="411" y="465"/>
			<point x="386" y="450"/>
			<point x="386" y="428" type="curve" smooth="yes"/>
			<point x="386" y="406"/>
			<point x="411" y="391"/>
		</contour>
	</outline>
</glyph>
<glyph name="nine.blackCircled" format="2">
	<advance width="872"/>
	<unicode hex="277E"/>
	<outline>
		<contour>
			<point x="437" y="-16" type="curve" smooth="yes"/>
			<point x="638" y="-16"/>
			<point x="802" y="148"/>
			<point x="802" y="350" type="curve" smooth="yes"/>
			<point x="802" y="552"/>
			<point x="638" y="716"/>
			<point x="437" y="716" type="curve" smooth="yes"/>
			<point x="234" y="716"/>
			<point x="70" y="552"/>
			<point x="70" y="350" type="curve" smooth="yes"/>
			<point x="70" y="148"/>
			<point x="234" y="-16"/>
		</contour>
		<contour>
			<point x="435" y="182" type="curve" smooth="yes"/>
			<point x="375" y="182"/>
			<point x="313" y="210"/>
			<point x="300" y="268" type="curve"/>
			<point x="382" y="273" type="line"/>
			<point x="385" y="268"/>
			<point x="400" y="249"/>
			<point x="435" y="249" type="curve" smooth="yes"/>
			<point x="475" y="249"/>
			<point x="517" y="278"/>
			<point x="507" y="377" type="curve"/>
			<point x="525" y="395" type="line"/>
			<point x="525" y="335"/>
			<point x="486" y="286"/>
			<point x="419" y="286" type="curve" smooth="yes"/>
			<point x="369" y="286"/>
			<point x="307" y="327"/>
			<point x="307" y="407" type="curve" smooth="yes"/>
			<point x="307" y="487"/>
			<point x="369" y="528"/>
			<point x="439" y="528" type="curve" smooth="yes"/>
			<point x="549" y="528"/>
			<point x="581" y="428"/>
			<point x="581" y="358" type="curve" smooth="yes"/>
			<point x="581" y="238"/>
			<point x="515" y="182"/>
		</contour>
		<contour>
			<point x="439" y="349" type="curve" smooth="yes"/>
			<point x="474" y="349"/>
			<point x="494" y="377"/>
			<point x="494" y="407" type="curve" smooth="yes"/>
			<point x="494" y="436"/>
			<point x="474" y="465"/>
			<point x="439" y="465" type="curve" smooth="yes"/>
			<point x="404" y="465"/>
			<point x="385" y="436"/>
			<point x="385" y="407" type="curve" smooth="yes"/>
			<point x="385" y="377"/>
			<point x="404" y="349"/>
		</contour>
	</outline>
</glyph>
<glyph name="Oslash.ss03" format="2">
	<advance width="795"/>
	<outline>
		<contour>
			<point x="0" y="0" type="line"/>
			<point x="129" y="0" type="line"/>
			<point x="795" y="700" type="line"/>
			<point x="666" y="700" type="line"/>
		</contour>
		<component base="O" xOffset="-4"/>
	</outline>
</glyph>
<glyph name="Q.ss03" format="2">
	<advance width="846"/>
	<outline>
		<contour>
			<point x="646" y="0" type="line"/>
			<point x="801" y="0" type="line"/>
			<point x="473" y="346" type="line"/>
			<point x="318" y="346" type="line"/>
		</contour>
		<component base="O"/>
	</outline>
</glyph>
<glyph name="Y.ss02" format="2">
	<advance width="656"/>
	<outline>
		<contour>
			<point x="379" y="257" type="line"/>
			<point x="666" y="700" type="line"/>
			<point x="514" y="700" type="line"/>
			<point x="265" y="319" type="line"/>
		</contour>
		<contour>
			<point x="259" y="0" type="line"/>
			<point x="397" y="0" type="line"/>
			<point x="397" y="337" type="line"/>
			<point x="259" y="337" type="line"/>
		</contour>
		<contour>
			<point x="277" y="257" type="line"/>
			<point x="391" y="319" type="line"/>
			<point x="142" y="700" type="line"/>
			<point x="-10" y="700" type="line"/>
		</contour>
	</outline>
</glyph>
<glyph name="asterisk.ss06" format="2">
	<advance width="516"/>
	<outline>
		<contour>
			<point x="323" y="333" type="line"/>
			<point x="397" y="383" type="line"/>
			<point x="270" y="565" type="line"/>
			<point x="197" y="514" type="line"/>
		</contour>
		<contour>
			<point x="153" y="333" type="line"/>
			<point x="279" y="514" type="line"/>
			<point x="206" y="565" type="line"/>
			<point x="79" y="383" type="line"/>
		</contour>
		<contour>
			<point x="230" y="476" type="line"/>
			<point x="268" y="557" type="line"/>
			<point x="68" y="650" type="line"/>
			<point x="30" y="569" type="line"/>
		</contour>
		<contour>
			<point x="193" y="501" type="line"/>
			<point x="283" y="501" type="line"/>
			<point x="283" y="731" type="line"/>
			<point x="193" y="731" type="line"/>
		</contour>
		<contour>
			<point x="246" y="476" type="line"/>
			<point x="446" y="569" type="line"/>
			<point x="408" y="650" type="line"/>
			<point x="208" y="557" type="line"/>
		</contour>
	</outline>
</glyph>
<glyph name="comma.ss07" format="2">
	<advance width="280"/>
	<outline>
		<contour>
			<point x="40" y="-152" type="line"/>
			<point x="140" y="-152"/>
			<point x="230" y="-105"/>
			<point x="230" y="35" type="curve" smooth="yes"/>
			<point x="230" y="115"/>
			<point x="192" y="165"/>
			<point x="135" y="165" type="curve" smooth="yes"/>
			<point x="88" y="165"/>
			<point x="50" y="127"/>
			<point x="50" y="80" type="curve" smooth="yes"/>
			<point x="50" y="33"/>
			<point x="88" y="-5"/>
			<point x="135" y="-5" type="curve" smooth="yes"/>
			<point x="145" y="-5" type="line"/>
			<point x="145" y="-45"/>
			<point x="100" y="-69"/>
			<point x="40" y="-69" type="curve"/>
		</contour>
	</outline>
</glyph>
<glyph name="commaaccentcomb.ss07" format="2">
	<advance width="434"/>
	<outline>
		<contour>
			<point x="140" y="-287" type="line"/>
			<point x="244" y="-287"/>
			<point x="294" y="-228"/>
			<point x="294" y="-148" type="curve" smooth="yes"/>
			<point x="294" y="-78"/>
			<point x="260" y="-44"/>
			<point x="213" y="-44" type="curve" smooth="yes"/>
			<point x="175" y="-44"/>
			<point x="145" y="-74"/>
			<point x="145" y="-112" type="curve" smooth="yes"/>
			<point x="145" y="-148"/>
			<point x="174" y="-178"/>
			<point x="211" y="-179" type="curve" smooth="yes"/>
			<point x="225" y="-179" type="line"/>
			<point x="225" y="-209"/>
			<point x="180" y="-224"/>
			<point x="140" y="-224" type="curve"/>
		</contour>
	</outline>
</glyph>
<glyph name="dieresis.ss07" format="2">
	<advance width="624"/>
	<outline>
		<contour>
			<point x="216" y="554" type="curve" smooth="yes"/>
			<point x="258" y="554"/>
			<point x="292" y="588"/>
			<point x="292" y="630" type="curve" smooth="yes"/>
			<point x="292" y="672"/>
			<point x="258" y="706"/>
			<point x="216" y="706" type="curve" smooth="yes"/>
			<point x="174" y="706"/>
			<point x="140" y="672"/>
			<point x="140" y="630" type="curve" smooth="yes"/>
			<point x="140" y="588"/>
			<point x="174" y="554"/>
		</contour>
		<contour>
			<point x="408" y="554" type="curve" smooth="yes"/>
			<point x="450" y="554"/>
			<point x="484" y="588"/>
			<point x="484" y="630" type="curve" smooth="yes"/>
			<point x="484" y="672"/>
			<point x="450" y="706"/>
			<point x="408" y="706" type="curve" smooth="yes"/>
			<point x="366" y="706"/>
			<point x="332" y="672"/>
			<point x="332" y="630" type="curve" smooth="yes"/>
			<point x="332" y="588"/>
			<point x="366" y="554"/>
		</contour>
	</outline>
</glyph>
<glyph name="dotaccent.ss07" format="2">
	<advance width="440"/>
	<outline>
		<contour>
			<point x="220" y="555" type="curve" smooth="yes"/>
			<point x="264" y="555"/>
			<point x="300" y="591"/>
			<point x="300" y="635" type="curve" smooth="yes"/>
			<point x="300" y="679"/>
			<point x="264" y="715"/>
			<point x="220" y="715" type="curve" smooth="yes"/>
			<point x="176" y="715"/>
			<point x="140" y="679"/>
			<point x="140" y="635" type="curve" smooth="yes"/>
			<point x="140" y="591"/>
			<point x="176" y="555"/>
		</contour>
	</outline>
</glyph>
<glyph name="downArrow.ss08" format="2">
	<advance width="767"/>
	<outline>
		<contour>
			<point x="384" y="-85" type="line"/>
			<point x="687" y="219" type="line"/>
			<point x="614" y="292" type="line"/>
			<point x="312" y="-11" type="line"/>
			<point x="456" y="-11" type="line"/>
			<point x="153" y="292" type="line"/>
			<point x="80" y="219" type="line"/>
		</contour>
		<contour>
			<point x="330" y="0" type="line"/>
			<point x="437" y="0" type="line"/>
			<point x="437" y="639" type="line"/>
			<point x="330" y="639" type="line"/>
		</contour>
	</outline>
</glyph>
